<?xml version="1.0" encoding="utf-8"?>
<!-- Generator: Adobe Illustrator 24.0.2, SVG Export Plug-In . SVG Version: 6.00 Build 0)  -->
<svg version="1.1" id="Capa_1" xmlns="http://www.w3.org/2000/svg" xmlns:xlink="http://www.w3.org/1999/xlink" x="0px" y="0px"
	 width="395.351px" height="300px" viewBox="0 0 395.351 300" enable-background="new 0 0 395.351 300" xml:space="preserve">
<g>
	<g>
		<g>
			<path fill="#FFFFFF" d="M89.394,74.531c2.139-0.435,3.954-3.041,2.441-5.313c-1.103-1.657-3.915-1.495-5.601-2.585
				c-1.454-0.941-2.826-2.825-3.734-4.308c-7.115-11.616-7.313-37.495-0.287-49.4c10.133-17.171,16.718,6.635,18.525,16.802
				c0.651,3.663-0.159,12.026,5.457,9.191c3.315-1.674,1.551-11.411,0.718-15.079C104.561,13.484,100.644-0.033,88.101,0
				c-2.46,1.074-4.559,1.27-6.462,2.729c-11.814,9.053-14.246,36.408-8.76,54.139C74.751,62.918,80.741,76.292,89.394,74.531z
				 M163.207,74.531c2.153-0.436,4.009-2.995,2.441-5.313c-1.129-1.669-3.894-1.482-5.601-2.585
				c-1.523-0.984-2.949-3.022-3.877-4.595c-7.039-11.929-6.895-37.769,0.144-49.544c9.732-16.281,16.652,7.307,18.238,17.089
				c0.563,3.476-0.047,12.339,5.457,9.334c3.387-1.849,1.541-11.329,0.718-15.079C178.445,13.441,174.429-0.016,161.914,0
				c-2.541,1.112-4.647,1.356-6.606,2.872c-11.211,8.68-14.143,35.953-8.76,53.421C148.451,62.467,154.526,76.289,163.207,74.531z
				 M236.733,74.531c2.236-0.423,4.117-3.043,2.441-5.457c-1.064-1.532-3.871-1.416-5.457-2.441
				c-1.585-1.025-3.054-3.101-4.021-4.739c-7.001-11.866-6.852-37.542,0.144-49.257c6.1-10.215,12.36-3.621,15.509,4.452
				c1.531,3.924,2.086,8.41,2.872,13.068c0.603,3.573,0.262,12.388,5.888,8.473c2.419-1.683,0.957-11.554,0.287-14.504
				C252.016,13.652,248.229-0.001,235.584,0c-2.901,1.218-5.004,1.583-7.18,3.303c-11.133,8.797-13.588,37.793-7.755,54.57
				C222.647,63.619,228.346,76.119,236.733,74.531z M372.439,34.178c-1.868-0.555-4.361-0.484-6.749-0.431
				c-2.571,1.134-4.634,1.461-6.606,3.016c-3.798,2.994-6.043,8.574-8.616,12.781c-4.978,8.137-9.957,16.276-14.935,24.413
				c-20.869,33.983-41.743,67.976-62.612,101.96c-2.537,4.356-5.074,8.712-7.611,13.068c-0.144,8.137-0.287,16.276-0.431,24.413
				c0,4.802-1.312,13.059,1.723,14.935c2.812,1.738,10.196-3.474,12.35-4.595c7.562-3.925,15.127-7.851,22.69-11.776
				c2.991-2.213,5.217-7.567,7.18-10.77c28.479-46.715,56.966-93.444,85.445-140.159C399.921,47.172,382.073,37.038,372.439,34.178z
				 M386.513,60.458c-1.018,1.731-1.748,3.7-3.303,4.883c-2.33,0.313-3.244-1.855-5.601-1.58c-1.16,0.136-1.915,0.772-2.441,1.58
				c-2.273,3.488,2.318,5.041,3.446,7.037c-0.125,3.424-3.252,6.327-4.739,8.76c-3.925,6.414-7.851,12.829-11.776,19.243
				c-15.151,24.316-29.645,49.014-44.805,73.239c-4.308,7.036-8.617,14.074-12.924,21.11c-1.654,2.654-3.122,7.117-5.888,8.616
				c-2.62-0.25-5.168-3.024-7.467-0.431c-0.439,0.495-1.02,1.403-0.862,2.441c0.218,1.433,1.155,1.844,1.292,3.59
				c-1.531,1.602-16.191,9.604-18.669,9.765c-0.096-0.048-0.192-0.096-0.287-0.144c-1.484-2.578-0.574-12.254-0.574-16.227
				c0-2.012-0.343-4.462,1.005-5.17c2.997-0.787,8.802,7.673,12.063,2.729c2.965-4.496-8.886-8.909-10.77-11.488
				c0.307-3.53,3.681-6.856,5.313-9.478c4.687-7.527,9.219-15.051,13.786-22.546c14.154-23.227,28.358-46.366,42.507-69.505
				c4.068-6.653,8.138-13.308,12.206-19.961c1.766-2.892,3.407-7.45,6.175-9.334c3.77,0.19,11.709,8.794,14.504,3.877
				c2.805-4.933-8.447-7.825-9.909-10.627c-0.705-1.808,3.764-7.92,4.883-8.76c1.008-0.757,2.169-0.883,3.446-1.436
				c7.345,0.01,19.445,7.529,20.966,13.068C388.861,56.509,387.447,58.87,386.513,60.458z M41.142,48.539
				c2.112,0.934,15.829,1.007,18.238,0.144c0.84-0.301,1.877-1.296,2.154-2.154c2.095-6.496-13.614-4.729-19.099-4.595
				C39.864,43.204,36.93,46.676,41.142,48.539z M87.814,48.826c11.918,0.048,23.84,0.096,35.758,0.144
				c4.454,0,11.275,0.993,12.206-2.585c1.432-5.501-6.32-4.453-10.627-4.452h-37.05C84.94,43.538,83.014,47.564,87.814,48.826z
				 M161.627,48.539c2.711,1.22,8.269,0.431,11.776,0.431h26.854c4.601,0,10.448,0.891,11.201-3.016
				c0.977-5.066-6.766-4.022-11.058-4.021H162.92C160.201,43.185,157.48,46.672,161.627,48.539z M235.584,48.682
				c2.769,1.02,7.731,0.288,11.058,0.287h36.619c4.597,0,12.154-1.053,15.653,0.574c1.221,3.611,0.575,9.793,0.574,14.361v29.152
				c-0.001,4.776-1.305,13.239,2.585,14.217c5.974,1.502,4.452-8.832,4.452-13.499V59.453c0-4.487,1.045-11.414-0.431-15.078
				c-1.578-3.919-11.732-2.442-17.089-2.441h-52.559C233.662,43.343,231.15,47.05,235.584,48.682z M15.437,81.424
				c0.787,2.913-2.133,5.883-2.872,8.329c-2.157,7.142,0.182,14.804,4.452,17.807c3.806,2.677,10.788,3.144,16.371,1.723
				c1.972-0.502,5.309-2.799,7.467-2.01c2.768,1.128,3.44,8.682,8.329,6.749c5.811-2.297-2.194-8.351-1.58-11.201
				c0.395-1.832,3.224-3.101,4.308-4.452c3.615-4.503,9.323-12.976,4.739-20.392c-2.487-4.023-7.578-6.604-12.924-7.755
				c-2.25-0.144-4.5-0.287-6.749-0.431c-1.5-0.598-3.219-3.062-4.165-4.308c-2.575-3.395,1.301-5.78,0.718-10.052
				c-0.794-5.826-4.87-8.765-11.488-8.76c-2.336,0.923-4.904,0.745-7.037,1.58C8.794,50.682-4.888,61.085,1.795,70.51
				c1.347,1.899,3.776,3.352,6.462,3.877c1.431,0.28,3.037-0.111,4.021,0.574C13.582,75.871,14.995,79.788,15.437,81.424z
				 M42.435,83.291c0.62-1.521,0.398-3.707,0.718-5.601c0.191-0.144,0.383-0.287,0.574-0.431c8.472,0.21,9.507,8.32,5.457,14.073
				c-3.908,5.551-10.505,9.974-18.094,11.776c-8.777,2.084-14.957-1.802-12.206-10.77c0.239-0.096,0.479-0.191,0.718-0.287
				c1.679-0.325,4.226,2.355,7.898,1.723C33.931,92.668,40.248,88.65,42.435,83.291z M36.116,79.845
				c0.486,1.978-1.768,3.749-2.728,4.452c-8.157,5.971-8.807,1.911-11.776-5.026c-0.627-1.466-2.786-4.374-1.867-6.175
				c0.903-1.807,4.606-3.1,6.319-4.165C27.981,69.026,35.684,78.085,36.116,79.845z M7.252,66.776
				c-1.509-2.111,0.695-4.854,1.58-6.031c3.565-4.744,6.829-5.114,12.781-7.467c4.985-0.149,6.232,2.851,4.021,6.462
				c-2.291,3.742-6.488,6.271-11.201,7.611C12.47,67.909,8.469,68.48,7.252,66.776z M84.511,77.978
				c-1.687-1.037-5.056-4.762-7.324-1.436c-3.366,4.936,7.672,10.587,13.499,9.622c18.231-3.02,17.399-30.38-2.298-30.013
				c-2.002,1.117-4.231,3.943-1.436,6.031c1.212,0.905,3.16,0.709,4.739,1.292c3.348,1.237,6.823,5.673,4.739,10.77
				C94.873,78.053,89.166,80.838,84.511,77.978z M158.611,78.408c-1.929-0.961-5.498-5.423-8.042-1.867
				c-3.496,4.885,7.726,10.575,13.499,9.622c18.165-3.001,17.357-30.378-2.298-30.013c-2.09,1.166-4.244,4.161-1.292,6.175
				c1.627,0.431,3.255,0.862,4.883,1.292c3.537,1.445,6.42,6.111,4.308,10.914C168.243,77.773,163.212,80.701,158.611,78.408z
				 M232.855,78.121c-1.66-1.009-5.061-4.917-7.467-1.723c-3.627,4.814,7.392,10.765,13.355,9.765
				c18.329-3.074,17.428-30.393-2.298-30.013c-1.761,1.084-4.296,3.768-1.58,5.888c1.252,0.977,3.227,0.805,4.883,1.436
				c3.557,1.355,6.864,5.816,4.739,10.914C243.026,77.893,237.377,80.87,232.855,78.121z M58.088,155.668
				c2.477,0.822,11.666,3.936,13.93,3.159c2.216-0.761,2.394-3.778,3.159-6.031c1.819-6.031,3.638-12.063,5.457-18.094
				c2.776-9.142,5.553-18.287,8.329-27.429c0.856-2.515,3.57-7.607,2.298-10.627c-0.946-2.246-4.149-2.529-6.606-3.303
				c-4.648-1.464-11.009-4.626-16.515-4.452c-10.891,6.884,13.397,9.197,14.935,11.919c0.87,2.431-2.699,10.679-3.447,13.068
				c-3.638,12.157-7.276,24.318-10.914,36.476c-2.721,1.571-8.695-1.114-11.345-2.154c-9.333-2.92-18.67-5.84-28.003-8.76
				c-2.092-0.658-10.38-2.348-11.345-3.59c-0.84-1.081,0.097-3.422,0.431-4.452c1.197-3.925,2.394-7.851,3.59-11.776
				c0.645-3.405-3.159-5.064-5.457-3.303c-1.386,1.062-5.152,15.299-6.031,18.094c-0.455,1.447-1.236,4.004-0.287,5.457
				c1.659,2.541,10.272,4.21,13.786,5.313C35.397,148.679,46.744,152.174,58.088,155.668z M268.9,108.996
				c0.048,11.439,0.096,22.882,0.144,34.322c-0.001,4.418,0.307,12.405,5.601,8.473c2.155-1.601,1.436-7.686,1.436-11.345v-28.721
				c0-3.732,0.521-8.942-1.723-10.483c-2.387-1.64-9.104-0.718-12.781-0.718H102.893c-2.245,1.017-5.349,3.779-2.154,6.175
				c1.34,1.005,3.519,0.742,4.595,2.01c0.658,3.304,0.287,7.853,0.287,11.632v22.546c0,3.313,0.916,10.202-1.005,11.776
				c-4.831,0.953-23.987-2.059-22.402,4.595c1.372,5.758,18.244,0.507,22.977,3.447c1.011,4.272-1.752,16.956,4.883,15.366
				c5.632-1.35,0.35-13.594,3.447-15.797c1.193-0.849,9.557-0.484,11.919-0.431c7.658,0.048,15.319,0.096,22.977,0.144
				c3.003-0.452,8.446-0.419,11.058,0.431c2.231,4.105-1.679,14.432,3.447,15.653c6.159,1.467,3.551-11.415,4.595-15.366
				c1.583-1.039,9.458-1.314,12.494-0.862c8.376,0.048,16.755,0.096,25.131,0.144c2.921,0.43,6.439-0.339,8.76,0.431
				c1.299,2.291,0.718,7.338,0.718,10.77v24.844c0,2.846,0.877,9.649-0.862,10.914c-1.679,1.369-7.428,0.575-10.196,0.574H70.581
				c-3.475,0-8.096,0.546-11.058-0.287c-0.335-0.287-0.67-0.574-1.005-0.862c-0.048-11.583-0.096-23.169-0.144-34.752
				c0-4.314-0.663-12.1-5.744-8.329c-2.426,1.8-1.437,16.34-1.436,20.823v61.75c0,6.198-1.566,21.287,2.729,22.833
				c3.303,1.189,11.127,0.288,15.222,0.287h189.415c3.844,0,13.002,0.857,15.509-0.574c2.129-1.215,2.01-4.557,2.01-7.898
				c0-6.064,1.572-21.371-3.016-22.402c-6.589-1.482-3.211,18.111-4.452,22.977c-2.162,1.419-7.141,0.862-10.627,0.862h-25.275
				c-2.715,0-9.622,0.826-10.77-0.862c-0.858-1.261-0.287-8.574-0.287-10.77V227.04c0-3.229-0.613-8.288,0.718-10.34
				c5.823-1.342,15.291-0.287,21.828-0.287c3.48,0,7.965,0.028,7.18-4.021c-0.875-4.518-16.431-2.872-22.259-2.872
				c-2.301,0-6.018,0.489-7.037-0.862c-1.222-1.502-0.431-7.06-0.431-9.478v-25.993c0-2.255-0.524-9.167,0.431-10.34
				c1.083-1.725,7.802-0.862,10.483-0.862h25.418c3.889,0.239,8.614,0.242,9.334-2.729c1.242-5.122-6.456-4.314-10.627-4.308
				c-8.52,0.048-17.042,0.096-25.562,0.144c-3.134,0-8.028,0.624-9.478-1.149v-29.295c0-5.023-0.894-11.779,0.287-16.227
				c2.063-1.351,7.232-0.718,10.483-0.718h25.705C261.074,107.704,268.141,106.764,268.9,108.996z M159.473,154.519
				c-0.831,0.619-9.226,0.828-10.914,0.574c-8.855-0.048-17.712-0.096-26.567-0.144c-2.887-0.126-6.492,0.363-8.904-0.287
				c-1.419-2.532-0.287-8.585-0.287-12.35v-22.977c0-3.483-0.435-7.929,0.287-10.914c0.383-0.239,0.766-0.479,1.149-0.718h34.178
				c2.437,0,10.476-0.516,11.345,0.718c1.223,1.736,0.431,7.157,0.431,9.765v25.849
				C160.191,146.599,161.034,153.358,159.473,154.519z M104.759,263.372c-1.746,1.433-7.903,0.574-10.77,0.574H69.002
				c-3.394,0-8.265,0.551-10.34-0.862c-0.629-2.613-0.287-6.526-0.287-9.622v-19.53c0-5.264-0.846-12.096,0.287-16.802
				c0.383-0.239,0.766-0.479,1.149-0.718h32.742c2.428,0,10.803-0.651,12.206,0.287c1.663,1.112,0.862,7.537,0.862,10.196v27.141
				C105.621,256.662,106.349,262.214,104.759,263.372z M213.756,263.515c-3.323,0.807-7.867,0.431-11.776,0.431h-22.402
				c-3.031,0-9.761,0.949-11.632-0.574c-3.997-2.507,2.677-21.34-3.734-22.69c-6.634-1.397-3.188,17.516-4.452,22.402
				c-2.237,1.463-7.48,0.862-11.058,0.862h-24.987c-3.491,0-8.448,0.551-10.627-0.862c-0.629-2.613-0.287-6.526-0.287-9.622v-19.53
				c0-5.264-0.846-12.096,0.287-16.802c0.383-0.239,0.766-0.479,1.149-0.718h89.897c3.152,0,7.312-0.372,9.765,0.431
				c1.281,2.268,0.718,7.225,0.718,10.627v24.844C214.617,255.889,215.26,261.304,213.756,263.515z M213.899,154.519
				c-1.897,1.412-6.877,0.017-9.622,0.431h-22.69c-4.255,0.004-10.158,0.786-13.786-0.287c-1.216-2.089-1.191-7.15-0.718-10.34
				c-0.048-8.52-0.096-17.042-0.144-25.562c0-2.961-0.659-7.704,0.431-9.909c0.383-0.383,0.766-0.766,1.149-1.149h34.322
				c2.437,0,10.476-0.516,11.345,0.718c1.223,1.736,0.431,7.157,0.431,9.765v25.849C214.617,146.599,215.46,153.358,213.899,154.519
				z M259.566,118.905c-3.268-4.829-11.48,6.024-13.93,7.755c-4.984-0.54-6.712-8.861-12.35-9.191
				c-7.862,4.056,4.186,10.67,6.175,14.361c-0.152,4.499-11.306,9.15-8.76,13.642c3.231,5.703,11.659-5.448,14.217-7.324
				c4.215,0.36,9.105,11.513,13.643,8.76c5.593-3.393-6.079-11.401-7.467-14.073C251.489,128.388,262.786,123.664,259.566,118.905z
				 M303.509,229.337c-5.684-1.18-4.021,9.556-4.021,14.217v32.311c0,4.791,0.877,11.29-0.287,15.509
				c-0.287,0.335-0.574,0.67-0.862,1.005c-5.831,1.136-13.59,0.287-19.961,0.287H36.26c-2.768,0-6.323,0.358-8.616-0.287
				c-0.335-0.287-0.67-0.574-1.005-0.862c-0.641-3.323-0.287-7.839-0.287-11.632V164.572c0.751-4.761,0.087-8.794-4.308-8.76
				c-0.902,0.59-1.862,0.972-2.298,2.01c-0.69,1.644-0.287,4.758-0.287,6.893V290.37c0,3.535-0.431,7.231,1.723,8.616
				c2.653,1.706,13.884,0.718,18.238,0.718h248.006c4.121,0,14.398,0.959,17.089-0.574c3.005-1.712,2.011-9.313,2.01-13.93v-40.784
				C306.525,239.244,307.847,230.238,303.509,229.337z M170.1,195.734h21.541c3.59,0,7.318,0.255,8.042-2.585
				c1.094-4.29-3.267-4.452-6.749-4.452H76.326c-3.463,1.64-5.331,5.666-0.431,6.893C107.293,195.638,138.701,195.686,170.1,195.734
				z M161.627,222.875c-4.273,2.178-7.174,6.331-10.052,9.909c-2.489,2.68-4.979,5.362-7.467,8.042
				c-1.793,2.228-3.921,5.646-6.749,6.749c-4.901-2.021-7.231-8.342-11.345-11.345c-1.569-1.145-4.079-0.698-5.026,0.718
				c-1.535,2.295,0.746,4.669,1.723,5.888c3.59,3.829,7.181,7.659,10.77,11.488c1.052,1.061,2.202,3.118,4.739,2.585
				c2.841-0.597,5.397-4.862,7.037-6.893c6.366-7.036,12.734-14.074,19.099-21.11C166.246,226.29,164.861,223.083,161.627,222.875z
				 M260.14,233.215c0.397-1.929-1.248-3.467-2.441-3.877c-8.041-0.048-16.085-0.096-24.126-0.144
				c-2.47,1.149-5.14,4.135-1.58,6.319c1.628,0.998,4.781,0.718,7.324,0.718C245.191,236.229,259.192,237.817,260.14,233.215z
				 M233.86,244.703c-2.659,1.159-5.543,3.994-1.867,6.462c2.376,1.595,10.316,1.028,11.632-0.862
				C247.502,244.738,238.362,244.521,233.86,244.703z"/>
		</g>
	</g>
</g>
</svg>
