<?xml version="1.0" encoding="utf-8"?>
<!-- Generator: Adobe Illustrator 24.0.2, SVG Export Plug-In . SVG Version: 6.00 Build 0)  -->
<svg version="1.1" id="Capa_1" xmlns="http://www.w3.org/2000/svg" xmlns:xlink="http://www.w3.org/1999/xlink" x="0px" y="0px"
	 width="398.343px" height="287.776px" viewBox="0 0 398.343 287.776" enable-background="new 0 0 398.343 287.776"
	 xml:space="preserve">
<g>
	<path fill="#FF6641" d="M2.061,197.224c-17.939,8.214,87.223,2.338,84.047,4v-4H2.061z"/>
	<path fill="#FF6641" d="M396.359,197.224h-84.048v4C312.742,199.563,413.607,205.434,396.359,197.224z"/>
	<path fill="#FF6641" d="M201.21,2.075c-8.174-17.797-2.363,84.814-4,81.729h4V2.075z"/>
	<path fill="#FF6641" d="M290.689,110.573l49.339-49.34c0.781-0.781,0.781-2.047,0-2.829c-0.781-0.781-2.047-0.781-2.828,0
		l-51.424,51.424c0.016,0.051,0.037,0.099,0.052,0.15C287.49,110.03,289.113,110.237,290.689,110.573z"/>
	<path fill="#FF6641" d="M61.219,58.405c-17.393-6.073,49.289,52.779,46.509,52.166c1.64-0.35,3.335-0.547,5.069-0.587
		L61.219,58.405z"/>
	<path fill="#FF6641" d="M382.411,126.363c12.952-13.986-72.065,26.866-70.1,24.384v4.322L382.411,126.363z"/>
	<path fill="#FF6641" d="M16.008,272.085c-12.816,13.981,72.935-27.252,71.017-24.76c-0.346-1.303-0.598-2.644-0.749-4.016
		L16.008,272.085z"/>
	<path fill="#FF6641" d="M126.349,16.022c-14.111-13.118,28.034,74.83,25.473,72.759c1-0.895,2.11-1.708,3.335-2.411L126.349,16.022
		z"/>
	<path fill="#FF6641" d="M277.233,18.16c-0.712-19.197-32.769,71.946-33.121,68.707c1.172,0.741,2.268,1.591,3.277,2.53
		L277.233,18.16z"/>
	<path fill="#FF6641" d="M380.274,277.247c19.154-0.721-71.47-32.574-68.259-32.933c-0.2,1.355-0.5,2.679-0.892,3.963
		L380.274,277.247z"/>
	<path fill="#FF6641" d="M18.146,121.201c-19.137,0.72,71.163,32.451,67.962,32.809v-4.337L18.146,121.201z"/>
	<path fill="#F3C352" d="M351.251,171.889c2.554-0.455,1.781-4.458-0.758-3.928l-38.182,7.376v4.074L351.251,171.889z"/>
	<path fill="#F3C352" d="M47.168,226.559c-2.563,0.454-1.767,4.465,0.758,3.927l38.182-7.376v-4.074L47.168,226.559z"/>
	<path fill="#F3C352" d="M171.875,47.181c-0.457-2.553-4.456-1.782-3.928,0.759l6.928,35.864h4.074L171.875,47.181z"/>
	<path fill="#F3C352" d="M267.346,102.03c-0.133-1.401,24.147-31.777,19.509-32.421c-2.588-3.882-22.996,32.158-24.412,32.528
		C263.441,101.959,266.299,102.05,267.346,102.03z"/>
	<path fill="#F3C352" d="M72.37,111.043c-2.126-1.484-4.413,1.89-2.24,3.314l18.146,12.27c0.529-1.243,1.148-2.438,1.848-3.579
		L72.37,111.043z"/>
	<path fill="#F3C352" d="M326.049,287.406c2.114,1.484,4.419-1.888,2.24-3.314L298.575,264c-1.339,0.771-2.746,1.439-4.216,1.978
		L326.049,287.406z"/>
	<path fill="#F3C352" d="M329.553,116.31c2.189-1.39-0.038-4.799-2.192-3.347l-18.083,11.835c0.619,1.198,1.15,2.448,1.588,3.741
		L329.553,116.31z"/>
	<path fill="#F3C352" d="M68.866,282.138c-2.196,1.391,0.052,4.802,2.192,3.347l31.048-20.319c-1.376-0.63-2.695-1.364-3.938-2.204
		L68.866,282.138z"/>
	<path fill="#F3C352" d="M142.101,108.309c-1.57-0.54-25.781-43.761-28.572-40.008c-5.046,0.192,25.329,40.587,24.875,41.666h3.216
		L142.101,108.309z"/>
	<path fill="#F3C352" d="M232.747,48.428c0.567-2.53-3.425-3.368-3.916-0.818l-7.559,36.194h4.086L232.747,48.428z"/>
	<path fill="#F3C352" d="M350.005,232.761c2.512,0.576,3.379-3.421,0.818-3.916l-38.512-8.043v4.086L350.005,232.761z"/>
	<path fill="#F3C352" d="M48.414,165.687c-2.53-0.567-3.368,3.422-0.818,3.916l38.512,8.043v-4.086L48.414,165.687z"/>
	<g>
		<path fill="#FFA14B" d="M302.954,133.718c-0.275-1.377-0.714-2.693-1.281-3.942l0,0c-4.148-9.824-14.596-11.611-24.376-10.809
			c-0.391-2.064,1.333-7.862-2.147-7.936h-11.236c-3.416-0.119-1.796,6.065-2.15,7.937c-3.099,0-8.521,0-11.598,0
			c-5.722-17.595-3.803-28.427-26.685-26.161c-5.512-0.003-20.751,0.001-26.269-0.001c-8.719,0.009-23.334-0.006-31.971,0
			c-12.662-0.196-13.631,17.41-16.859,26.162c-2.139,0.001-23.845-0.001-26.6,0c-8.984-0.665-19.674,0.389-24.17,9.144l0,0
			c-3.959,5.441-2.114,19.018-2.502,25.334l4.834,2.025c14.717,0,40.367,0,54.83,0c20.637-28.887,67.489-28.876,88.125,0
			c6.545,0,20.363,0,26.821,0c1.075-0.231,33.847,0.779,33.592-1.036C303.2,151.717,303.624,136.046,302.954,133.718z
			 M133.725,136.568c-0.395,7.319-11.429,4.707-15.995,5.147c-3.415,0.455-7.113-1.316-7.481-5.059
			c-0.964-8.868,12.234-5.849,17.231-6.334C131.005,129.997,134.125,133.073,133.725,136.568z"/>
		<path fill="#FFA14B" d="M288.072,164.995c-11.533,0-30.546,0-42.079,0c18.243,33.487-9.015,77.909-47.16,76.713
			c-38.132,1.196-65.418-43.236-47.156-76.713c-17.069,0-39.516,0-56.568,0c-0.003,17.639,0.002,38.725,0,56.376
			c-1.856,39.492,6.519,37.682,41.864,37.262c10.594-0.002,24.595,0.002,35.18,0c17.565,0,35.981,0,53.546,0
			c10.626,0.003,25.102-0.002,35.749,0c33.105,0.243,43.963,3.092,41.863-35.624c-0.023-18.218,0.018-39.816,0-58.014H288.072z"/>
	</g>
	<g>
		<g>
			<g>
				<g>
					<path fill="#FFA14B" d="M242.384,183.705c-0.957-10.004-6.75-18.862-11.047-27.709h0.126
						c-17.159-17.783-48.092-17.772-65.256,0h0.125c-1.061,2.288-3.375,6.511-4.435,8.745c-14.299,22.12-5.152,54.313,19.529,64.356
						C211.005,243.089,247.25,216.032,242.384,183.705z M226.661,190.144c-0.097,7.675-3.64,14.293-8.92,19.012l-0.116,0.106
						c-9.126,8.066-23.372,10.478-34.134,2.852l-0.164-0.105c-5.44-3.381-8.972-8.358-10.753-13.889
						c-0.001-0.003-0.002-0.006-0.003-0.009c-2.693-8.374-1.35-18.014,3.529-25.33c0.222-0.313,0.455-0.618,0.688-0.922
						c-0.232,0.303-0.464,0.606-0.685,0.917c3.188-4.779,7.882-8.569,13.959-10.356c-1.109,0.368-2.19,0.798-3.232,1.297
						c1.043-0.499,2.124-0.929,3.232-1.296c6.039-2.023,12.851-1.863,18.784,0.443c0.087,0.037,0.162,0.069,0.244,0.104
						c5.281,2.088,9.874,5.811,12.995,10.551l0,0C225.316,178.388,226.945,184.298,226.661,190.144z"/>
				</g>
			</g>
		</g>
		<path fill="#164854" d="M180.62,183.464c-4.928,14.771,11.487,29.448,25.617,22.926l0.095,0.064l-0.055-0.083
			c8.182-3.379,13.093-12.802,11.124-21.443C213.989,166.137,185.494,164.98,180.62,183.464z"/>
	</g>
</g>
</svg>
