<?xml version="1.0" encoding="utf-8"?>
<!-- Generator: Adobe Illustrator 26.2.1, SVG Export Plug-In . SVG Version: 6.00 Build 0)  -->
<svg version="1.1" id="Capa_1" xmlns="http://www.w3.org/2000/svg" xmlns:xlink="http://www.w3.org/1999/xlink" x="0px" y="0px"
	 viewBox="0 0 576 576" style="enable-background:new 0 0 576 576;" xml:space="preserve">
<style type="text/css">
	.st0{fill:none;stroke:#00A18D;stroke-width:6;}
</style>
<g>
	<path class="st0" d="M374.1,23.1L374.1,23.1c66.7,0.5,109.6,43.2,133.6,104.7c-48.7-11.8-110.2-10.3-151.8,14
		c-6.6,3.4-10.8,6.9-12.7,10.5c-1,1.9-1.4,3.8-1.1,5.8c0.3,1.9,1.3,3.5,2.5,4.8c2.4,2.5,6.1,3.9,9.9,4.4c3.8,0.5,8,0.1,11.7-1.5l0,0
		c7.4-3.3,18-5.5,30.5-6.7c12.5-1.2,26.8-1.3,41.7-0.6c29,1.5,59.8,6.5,82.8,13.7c6.1,26.8,9.4,55.4,10.3,84.6
		c-39.9-28.9-96.2-50.6-159.5-53.6c-5.1-0.2-9.2,0.9-12,3.2c-2.8,2.4-3.9,5.7-3.8,8.9c0.2,6.1,4.9,12.8,11.9,13.8l0,0
		c28.4,4.2,58.4,17.2,86.8,33.2c27.8,15.6,54,33.9,75.6,49.2c-1.5,21.1-4.2,42-7.9,62c-37.4-34.7-92.1-68.3-144.3-84.4
		c-5-1.6-9.3-1.5-12.7-0.1c-3.4,1.5-5.5,4.4-6.3,7.5c-1.5,6.1,1.5,13.6,8.4,16.6c49.9,21.6,109,73.4,142.3,112.1
		c-7,22.7-15.4,43.2-25.1,60.7c-16.7-20.2-36.6-38.3-57.2-51.9l0,0c-4.2-2.8-8.2-3.7-11.7-2.7c-3.5,1-5.9,3.6-7.1,6.6
		c-1.3,2.9-1.6,6.4-1,9.5c0.6,3.1,2.2,6.3,5.1,8.3l0,0l0,0c20.9,14,37.9,36.6,50.4,61.2c-10.6,11.9-22,20.2-34.1,24.3l0,0
		c-22.3,7.7-44.9,11.2-67.2,11.3c-10.5-18.1-20.7-40.2-27-63.1c-6.5-23.5-8.8-47.4-3.3-68.5c2.1-8.2-2-16-8.1-18.5
		c-3.2-1.3-6.9-1.2-10.2,0.9c-3.2,2.1-5.7,5.9-7.2,11.3c-12.6,43.9-9.6,92.9,5.7,132.3c-28.6-6.4-56.5-17.9-82.8-33.4
		c1.7-60,18.8-136,49.5-192.1l0,0c2.1-3.9,2.4-7.6,1-10.8c-1.4-3.1-4.2-5.1-7-6.1c-2.9-1.1-6.1-1.4-9.1-0.9
		c-2.8,0.5-5.8,1.9-7.5,4.7c-39.5,51.5-60.5,120.3-63.4,180.5c-21.6-16.6-41.8-35.7-59.7-56.5c6.8-48.6,30.7-100.2,89.9-163.7l0,0
		c3.5-3.8,5.6-7.6,6.4-11.1c0.8-3.6,0.1-7-2.2-9.5c-2.3-2.5-5.7-3.5-9.4-3.2c-3.7,0.2-7.9,1.7-12.3,4.5
		c-61.6,39.3-91,90.1-107.7,136.2c-15.5-24.1-28.2-49.2-37.3-74.3c20.6-40.4,68.2-74.7,128.7-93.8c4.8-1.5,8.4-3,11.1-4.6
		c2.6-1.5,4.6-3.4,5.4-5.7c0.9-2.6,0.1-4.9-1.3-6.6c-1.3-1.7-3.2-3-5.3-4.1c-4.1-2.2-9.6-4-14.4-5.2c-4.8-1.2-9.3-2-11.6-2l0,0h0
		c-15.8-0.1-42.7,7.2-68.3,20.5c-22.8,11.8-45.1,28.8-57.7,50.2c-5.9-37.5-2.5-73.2,12.6-103.2c16.2-32.3,46-58.4,92.8-73.5l0,0
		c0.3-0.1,0.7-0.2,1.2-0.4c4.6-1.5,15-5.1,30.3-4.5c16.6,0.6,39.1,6.2,65.7,25c8.5,22,14.8,44.6,19.5,69.2l1.8,9.6l3.9-8.9
		c2.6-6,11.8-10.9,20.9-4.4l6.1,4.4l-1.4-7.4c-5.5-29-15.4-54.9-27.8-80.4c4.2-13.6,10.4-25.9,19.8-35.8
		c9.6-10.1,22.7-17.8,40.7-21.7l0,0C347.4,24.4,361.2,23,374.1,23.1z"/>
</g>
</svg>
