<?xml version="1.0" encoding="utf-8"?>
<!-- Generator: Adobe Illustrator 24.0.2, SVG Export Plug-In . SVG Version: 6.00 Build 0)  -->
<svg version="1.1" id="Capa_1" xmlns="http://www.w3.org/2000/svg" xmlns:xlink="http://www.w3.org/1999/xlink" x="0px" y="0px"
	 width="379.244px" height="273.966px" viewBox="0 0 379.244 273.966" enable-background="new 0 0 379.244 273.966"
	 xml:space="preserve">
<g>
	<path fill="none" d="M166.451,141.255c0.078-0.019,0.158-0.036,0.247-0.048C166.61,141.219,166.53,141.236,166.451,141.255z"/>
	<path fill="none" d="M166.056,141.408c0.074-0.052,0.169-0.092,0.277-0.125C166.225,141.316,166.13,141.356,166.056,141.408z"/>
	<path fill="none" d="M166.864,141.19c0.086-0.008,0.174-0.015,0.267-0.018C167.038,141.175,166.95,141.182,166.864,141.19z"/>
	<path fill="none" d="M167.438,141.164c-0.04,0-0.076,0.002-0.115,0.003c0.082-0.001,0.166,0,0.25,0
		C167.529,141.167,167.483,141.164,167.438,141.164z"/>
	<path fill="none" d="M99.201,271.496c-0.201-0.113-0.394-0.237-0.583-0.371C98.807,271.259,99,271.383,99.201,271.496z"/>
	<path fill="none" d="M101.293,272.284c-0.19-0.045-0.377-0.095-0.561-0.15C100.915,272.189,101.103,272.238,101.293,272.284z"/>
	<path fill="none" d="M102.99,272.568c-0.207-0.022-0.409-0.049-0.608-0.078C102.58,272.52,102.783,272.546,102.99,272.568z"/>
	<path fill="none" d="M100.51,272.062c-0.16-0.053-0.316-0.11-0.47-0.171C100.194,271.952,100.35,272.009,100.51,272.062z"/>
	<path fill="none" d="M99.829,271.804c-0.178-0.077-0.352-0.162-0.521-0.253C99.478,271.642,99.651,271.727,99.829,271.804z"/>
	<path fill="none" d="M102.193,272.464c-0.256-0.041-0.505-0.088-0.749-0.142C101.687,272.376,101.937,272.423,102.193,272.464z"/>
	<path fill="none" d="M283.231,271.857c-0.311,0.122-0.636,0.229-0.979,0.32C282.594,272.086,282.92,271.979,283.231,271.857z"/>
	<path fill="none" d="M287.155,266.871c-0.08,0.367-0.176,0.72-0.289,1.058C286.979,267.591,287.075,267.238,287.155,266.871z"/>
	<path fill="none" d="M284.544,271.179c-0.306,0.215-0.65,0.393-1.011,0.553C283.893,271.571,284.238,271.395,284.544,271.179z"/>
	<path fill="none" d="M284.25,141.173c-0.158,0-0.319,0.005-0.479,0.008c0.171-0.004,0.342-0.008,0.511-0.007
		C284.271,141.174,284.26,141.173,284.25,141.173z"/>
	<path fill="none" d="M282.031,141.242c0.151-0.005,0.313-0.012,0.472-0.019C282.344,141.23,282.183,141.237,282.031,141.242z"/>
	<path fill="none" d="M282.919,141.208c0.198-0.008,0.397-0.016,0.598-0.022C283.316,141.191,283.117,141.199,282.919,141.208z"/>
	<path fill="none" d="M284.671,141.184c0.123,0.004,0.249,0.004,0.368,0.012C284.92,141.188,284.794,141.188,284.671,141.184z"/>
	<path fill="none" d="M285.442,141.236c0.097,0.011,0.201,0.017,0.293,0.031C285.642,141.253,285.539,141.247,285.442,141.236z"/>
	<path fill="none" d="M286.137,141.36c0.065,0.017,0.141,0.027,0.201,0.048C286.277,141.388,286.202,141.378,286.137,141.36z"/>
	<path fill="none" d="M97.388,269.975c-0.159-0.192-0.312-0.394-0.458-0.613C97.075,269.581,97.229,269.783,97.388,269.975z"/>
	<path fill="none" d="M97.893,270.517c-0.122-0.117-0.239-0.242-0.354-0.371C97.654,270.275,97.771,270.4,97.893,270.517z"/>
	<path fill="none" d="M98.468,271.009c-0.137-0.103-0.27-0.211-0.399-0.327C98.198,270.798,98.332,270.906,98.468,271.009z"/>
	<path fill="#00A18D" d="M2,187.622c-1.104,0-2,0.896-2,2s0.896,2,2,2h84.643v-4H2z"/>
	<path fill="#00A18D" d="M377.244,187.622h-80.672v4h80.672c1.104,0,2-0.896,2-2S378.349,187.622,377.244,187.622z"/>
	<path fill="#00A18D" d="M191.622,2c0-1.104-0.896-2-2-2s-2,0.896-2,2v89.676l4-0.83V2z"/>
	<path fill="#00A18D" d="M289.698,87.603l0.029,0.143l0.779,3.82l33.198-33.198c0.781-0.781,0.781-2.047,0-2.829
		c-0.781-0.781-2.047-0.781-2.828,0L289.555,86.86c0.037,0.241,0.074,0.457,0.108,0.602L289.698,87.603z"/>
	<path fill="#00A18D" d="M110.66,109.289l0.122,0.061l0.182,0.091l2.622,1.317L58.368,55.54c-0.781-0.781-2.047-0.781-2.828,0
		s-0.781,2.047,0,2.829l49.993,49.993l2.297-0.493L110.66,109.289z"/>
	<path fill="#00A18D" d="M296.59,145.944c-0.008,0.267-0.018,0.526-0.018,0.763v1.279l67.436-27.615
		c1.022-0.419,1.512-1.587,1.093-2.608c-0.417-1.021-1.585-1.512-2.608-1.093l-65.896,26.984
		C296.632,144.53,296.61,145.317,296.59,145.944z"/>
	<path fill="#00A18D" d="M15.237,258.872c-1.022,0.419-1.512,1.587-1.093,2.608c0.316,0.774,1.063,1.243,1.852,1.243
		c0.252,0,0.509-0.048,0.757-0.15l69.891-28.621v-4.322L15.237,258.872z"/>
	<path fill="#00A18D" d="M154.431,98.409l-34.06-83.172c-0.418-1.021-1.583-1.513-2.608-1.093c-1.022,0.418-1.512,1.586-1.093,2.609
		l33.774,82.477l3.804-0.782L154.431,98.409z"/>
	<path fill="#00A18D" d="M167.925,141.176c0.073,0.002,0.146,0.005,0.22,0.009C168.071,141.181,167.999,141.178,167.925,141.176z"/>
	<path fill="#00A18D" d="M168.547,141.206c0.128,0.008,0.25,0.015,0.37,0.021C168.796,141.221,168.676,141.214,168.547,141.206z"/>
	<path fill="#00A18D" d="M169.173,141.242c0.162,0.008,0.312,0.014,0.441,0.014C169.485,141.256,169.335,141.251,169.173,141.242z"
		/>
	<path fill="#00A18D" d="M263.964,17.345c0.427-1.019-0.053-2.19-1.072-2.617c-1.018-0.427-2.19,0.053-2.617,1.072L232.34,82.481
		l4.742-0.967L263.964,17.345z"/>
	<path fill="#00A18D" d="M361.9,263.963c0.252,0.106,0.514,0.156,0.771,0.156c0.782,0,1.524-0.461,1.846-1.228
		c0.427-1.019-0.053-2.191-1.072-2.618l-66.873-28.016v4.337L361.9,263.963z"/>
	<path fill="#00A18D" d="M86.643,144.312L17.345,115.28c-1.018-0.427-2.19,0.053-2.617,1.072s0.053,2.191,1.072,2.618l70.843,29.679
		v-1.864V144.312z"/>
	<path fill="#F3C352" d="M334.335,163.702c1.085-0.209,1.794-1.258,1.585-2.343s-1.266-1.795-2.343-1.584l-37.005,7.148v4.074
		L334.335,163.702z"/>
	<path fill="#F3C352" d="M44.909,215.541c-1.085,0.209-1.794,1.258-1.585,2.343c0.185,0.956,1.022,1.621,1.962,1.621
		c0.126,0,0.253-0.012,0.381-0.037l40.976-7.916v-4.074L44.909,215.541z"/>
	<path fill="#F3C352" d="M173.38,97.31l0.345-0.523l-10.022-51.878c-0.21-1.085-1.261-1.795-2.343-1.584
		c-1.085,0.209-1.794,1.258-1.585,2.343l10.798,55.897l1.75-2.654L173.38,97.31z"/>
	<path fill="#F3C352" d="M262.687,83.397l0.501,1.001l10.436-15.433c0.618-0.915,0.378-2.158-0.537-2.777
		c-0.913-0.619-2.158-0.379-2.777,0.537l-9.156,13.541l1.5,3.063L262.687,83.397z"/>
	<path fill="#F3C352" d="M115.707,137.243L115.707,137.243c0.006-0.001,0.012-0.002,0.019-0.004l0,0
		C115.719,137.241,115.713,137.242,115.707,137.243z"/>
	<path fill="#F3C352" d="M296.496,264.303l13.782,9.319c0.343,0.232,0.732,0.344,1.118,0.344c0.642,0,1.272-0.309,1.659-0.88
		c0.618-0.915,0.378-2.159-0.537-2.777l-15.944-10.781v0.29C296.577,261.249,296.577,262.763,296.496,264.303z"/>
	<path fill="#F3C352" d="M68.966,105.621c-0.913-0.618-2.158-0.379-2.777,0.537c-0.618,0.915-0.378,2.159,0.537,2.777l16.049,10.853
		c0.191-1.278,0.626-2.602,1.428-3.863L68.966,105.621z"/>
	<path fill="#F3C352" d="M280.926,132.258l32.794-21.463c0.924-0.604,1.183-1.844,0.578-2.769s-1.847-1.183-2.769-0.578
		l-37.966,24.847h0.113L280.926,132.258z"/>
	<path fill="#F3C352" d="M86.643,254.628l-21.118,13.821c-0.924,0.605-1.183,1.845-0.578,2.769c0.384,0.587,1.023,0.905,1.676,0.905
		c0.376,0,0.756-0.105,1.093-0.327l18.92-12.382c0.003-0.318,0.007-0.638,0.007-0.954L86.643,254.628L86.643,254.628z"/>
	<path fill="#F3C352" d="M110.796,65.525c-0.604-0.925-1.847-1.183-2.769-0.579c-0.925,0.605-1.184,1.844-0.579,2.769l23.278,35.568
		l4.214-0.867L110.796,65.525z"/>
	<path fill="#F3C352" d="M212.442,90.145l9.192-44.012c0.226-1.082-0.468-2.141-1.549-2.367c-1.089-0.225-2.142,0.468-2.367,1.549
		l-8.971,42.953h3.06L212.442,90.145z"/>
	<path fill="#F3C352" d="M333.111,221.633c0.139,0.029,0.275,0.043,0.411,0.043c0.927,0,1.759-0.648,1.956-1.592
		c0.226-1.081-0.468-2.141-1.549-2.366l-37.357-7.802v4.086L333.111,221.633z"/>
	<path fill="#F3C352" d="M46.133,157.61c-1.088-0.225-2.142,0.467-2.367,1.549c-0.226,1.081,0.468,2.141,1.549,2.367l41.328,8.631
		v-4.086L46.133,157.61z"/>
	<path fill="#164854" d="M95.719,146.708c-0.025,0.025-0.051,0.051-0.076,0.076v1.297l2.92,1.224
		C97.624,148.212,96.507,146.965,95.719,146.708z"/>
	<path fill="#164854" d="M254.563,87.274c-8.056,1.257-16.045,3.257-24.077,4.769c-5.646,7.774-11.324,16.903-16.656,25.061
		l0.151,0.076c8.101-1.666,16.202-3.332,24.303-4.997c5.451-8.252,10.903-16.506,16.354-24.758
		C254.613,87.374,254.588,87.324,254.563,87.274z"/>
	<path fill="#164854" d="M205.349,97.268c-8.17,1.472-16.3,3.379-24.456,4.997c-5.426,8.227-10.852,16.456-16.278,24.682
		c0.025,0.076,0.051,0.151,0.076,0.227c8.102-1.641,16.203-3.281,24.304-4.922c5.476-8.252,10.953-16.506,16.429-24.758
		C205.4,97.419,205.374,97.343,205.349,97.268z"/>
	<path fill="#164854" d="M115.462,137.062c0.055,0.106,0.067,0.075,0.245,0.182c0.006-0.001,0.012-0.002,0.018-0.004
		L115.462,137.062z"/>
	<path fill="#164854" d="M266.601,141.332c0.019,0.069,0.053,0.148,0.101,0.235l0.363-0.237
		C266.91,141.33,266.756,141.331,266.601,141.332z"/>
	<path fill="#EBEDEC" d="M98.069,270.682c-0.06-0.053-0.118-0.109-0.176-0.165C97.95,270.573,98.009,270.629,98.069,270.682z"/>
	<path fill="#EBEDEC" d="M97.539,270.146c-0.051-0.057-0.102-0.112-0.151-0.171C97.437,270.034,97.489,270.089,97.539,270.146z"/>
	<path fill="#EBEDEC" d="M166.698,141.207c0.053-0.007,0.109-0.012,0.166-0.017C166.808,141.195,166.752,141.2,166.698,141.207z"/>
	<rect x="287.572" y="151.672" fill="#EBEDEC" width="0" height="16.991"/>
	<rect x="287.572" y="172.736" fill="#EBEDEC" width="0" height="14.885"/>
	<path fill="#EBEDEC" d="M103.251,272.594c-0.088-0.008-0.175-0.016-0.261-0.025C103.075,272.578,103.163,272.586,103.251,272.594z"
		/>
	<path fill="#EBEDEC" d="M283.532,271.733c-0.098,0.043-0.2,0.084-0.302,0.124C283.333,271.816,283.434,271.776,283.532,271.733z"/>
	<path fill="#EBEDEC" d="M98.618,271.126c-0.051-0.037-0.1-0.078-0.15-0.116C98.518,271.048,98.567,271.089,98.618,271.126z"/>
	<path fill="#EBEDEC" d="M282.252,272.177c-0.073,0.02-0.142,0.043-0.216,0.062C282.111,272.22,282.179,272.196,282.252,272.177z"/>
	<path fill="#EBEDEC" d="M100.733,272.134c-0.075-0.023-0.149-0.048-0.223-0.072C100.584,272.086,100.657,272.111,100.733,272.134z"
		/>
	<path fill="#EBEDEC" d="M100.04,271.89c-0.071-0.028-0.142-0.056-0.211-0.086C99.899,271.834,99.969,271.862,100.04,271.89z"/>
	<path fill="#EBEDEC" d="M102.381,272.49c-0.062-0.009-0.127-0.017-0.188-0.026C102.254,272.474,102.319,272.481,102.381,272.49z"/>
	<path fill="#EBEDEC" d="M99.308,271.551c-0.035-0.019-0.072-0.035-0.107-0.055C99.236,271.516,99.273,271.532,99.308,271.551z"/>
	<path fill="#EBEDEC" d="M101.444,272.322c-0.051-0.012-0.1-0.026-0.15-0.038C101.344,272.296,101.393,272.31,101.444,272.322z"/>
	<path fill="#EBEDEC" d="M287.572,258.838c0,3.088,0.064,5.818-0.417,8.033C287.636,264.656,287.573,261.926,287.572,258.838v-0.569
		l0,0V258.838z"/>
	<rect x="287.572" y="146.707" fill="#EBEDEC" width="0" height="0.643"/>
	<path fill="#EBEDEC" d="M281.365,141.255c0.208,0,0.433-0.005,0.667-0.013C281.797,141.25,281.573,141.255,281.365,141.255z"/>
	<rect x="287.572" y="191.622" fill="#EBEDEC" width="0" height="16.414"/>
	<path fill="#EBEDEC" d="M282.504,141.224c0.137-0.006,0.274-0.011,0.416-0.016C282.778,141.213,282.641,141.218,282.504,141.224z"
		/>
	<path fill="#EBEDEC" d="M167.131,141.172c0.063-0.002,0.127-0.004,0.192-0.005C167.258,141.168,167.195,141.17,167.131,141.172z"/>
	<path fill="#EBEDEC" d="M283.517,141.186c0.085-0.003,0.169-0.003,0.254-0.004C283.686,141.183,283.602,141.183,283.517,141.186z"
		/>
	<path fill="#EBEDEC" d="M285.039,141.195c0.141,0.008,0.27,0.026,0.402,0.041C285.309,141.221,285.18,141.204,285.039,141.195z"/>
	<path fill="#EBEDEC" d="M285.735,141.268c0.146,0.023,0.272,0.059,0.402,0.093C286.007,141.327,285.88,141.291,285.735,141.268z"/>
	<path fill="#EBEDEC" d="M286.338,141.408c0.182,0.06,0.343,0.134,0.478,0.226C286.681,141.543,286.52,141.468,286.338,141.408z"/>
	<path fill="#EBEDEC" d="M115.404,136.941c0.026,0.057,0.043,0.091,0.058,0.121l0,0C115.447,137.032,115.43,136.998,115.404,136.941
		z"/>
	<path fill="#EBEDEC" d="M284.281,141.174c0.133,0,0.26,0.006,0.39,0.01C284.541,141.18,284.414,141.174,284.281,141.174z"/>
	<path fill="#EBEDEC" d="M286.866,267.929c-0.211,0.634-0.48,1.219-0.836,1.743C286.385,269.149,286.655,268.563,286.866,267.929z"
		/>
	<path fill="#EBEDEC" d="M167.619,141.168L167.619,141.168c-0.016-0.001-0.03-0.001-0.046-0.001
		C167.589,141.167,167.604,141.168,167.619,141.168z"/>
	<path fill="#EBEDEC" d="M166.333,141.282c0.036-0.011,0.08-0.018,0.119-0.027C166.412,141.265,166.369,141.272,166.333,141.282z"/>
	<rect x="287.572" y="212.122" fill="#EBEDEC" width="0" height="16.366"/>
	<polygon fill="#EBEDEC" points="287.572,253.441 287.573,253.441 287.573,232.825 287.572,232.825 	"/>
	<rect x="287.572" y="187.622" fill="#EBEDEC" width="0" height="4"/>
	<path fill="#164854" d="M282.96,99.113c-1.59-5.222-1.809-11.361-3.564-16.382c-0.126-0.025-0.252-0.05-0.379-0.076
		c-5.028,8.239-11.161,16.135-15.899,24.455c6.557-1.782,14.176-2.04,20.291-4.694C283.431,101.213,283.217,100.139,282.96,99.113z"
		/>
	<rect x="287.572" y="147.35" fill="#EBEDEC" width="0" height="4.322"/>
	<path fill="#EBEDEC" d="M168.145,141.185c0.135,0.006,0.271,0.014,0.402,0.021C168.414,141.198,168.281,141.191,168.145,141.185z"
		/>
	<path fill="#EBEDEC" d="M168.917,141.228c0.086,0.005,0.176,0.011,0.256,0.015C169.092,141.238,169.004,141.233,168.917,141.228z"
		/>
	<path fill="#EBEDEC" d="M167.925,141.176c-0.103-0.004-0.204-0.007-0.306-0.009v0.001
		C167.721,141.17,167.823,141.171,167.925,141.176z"/>
	
		<rect x="285.395" y="230.658" transform="matrix(0.7071 -0.7071 0.7071 0.7071 -78.8747 270.8966)" fill="#EBEDEC" width="4.337" height="0.001"/>
	<rect x="287.572" y="168.663" fill="#EBEDEC" width="0" height="4.074"/>
	<path fill="#164854" d="M106.621,117.331c-19.032,4.336-15.622-0.439-12.114,18.625c0.025,0.025,0.051,0.05,0.076,0.076
		c4.39-5.671,8.12-12.619,12.341-18.55C106.823,117.432,106.722,117.382,106.621,117.331z"/>
	<polygon fill="#EBEDEC" points="287.572,258.269 287.573,258.269 287.573,253.441 287.572,253.441 	"/>
	<path fill="#164854" d="M156.061,107.262c-8.101,1.666-16.203,3.331-24.304,4.997c-5.451,8.226-10.903,16.456-16.354,24.682
		c0.021,0.132,0.233,0.233,0.321,0.299c8.019-1.639,16.039-3.278,24.058-4.917C145.026,123.904,151.195,115.739,156.061,107.262z"/>
	<rect x="287.572" y="208.036" fill="#EBEDEC" width="0" height="4.086"/>
	<g>
		<path fill="#164854" d="M287.572,258.269c0-36.539,0-75.04,0-111.562h0.001c-0.056-2.09,0.571-4.953-1.436-5.347
			c-6.315-0.4-12.726,0.097-19.072-0.031l-0.363,0.237c6.616,7.053,13.885,13.683,20.568,20.662
			c-0.075,0.075-0.151,0.151-0.227,0.227h-24.682c-7.016-7.041-14.032-14.083-21.048-21.124c-7.568,0-17.507,0-25.061,0v0.076
			c6.626,6.737,13.286,13.431,20.063,20.045l-1.642,1.075c-7.503-0.024-15.007-0.048-22.51-0.072
			c-7.091-7.066-14.184-14.133-21.275-21.199c-7.981,0.191-16.935-0.35-24.833,0.151c6.194,6.194,14.002,14.002,20.19,20.19
			l0.166,0.859c-8.123,0.025-16.246,0.05-24.369,0.075c-7.142-7.091-14.285-14.184-21.426-21.275c-5.409,0-19.389,0-24.683,0
			c0.055,0.862,19.508,19.561,20.594,20.896c-0.025,0.101-0.05,0.202-0.076,0.303c-8.328-0.026-16.657-0.051-24.985-0.076
			c-5.404-4.546-9.389-11.349-15.824-14.299c0.001,25.18-0.001,52.674,0,77.864c-0.007,6.107,0.005,21.478,0,27.572
			c0.291,4.753-0.891,12.398,1.287,15.844c2.946,4.345,8.864,3.171,13.401,3.332h20.704c13.156-0.004,30.154,0.003,43.281,0
			c21.674,0,45.592,0,67.283,0c3.403,0.012,24.469-0.009,28.267,0C282.135,273.123,288.984,273.465,287.572,258.269z
			 M220.795,216.892c-4.51,6.984-14.605,9.11-21.133,14.15c-6.315,3.791-12.68,7.4-18.994,11.213
			c-1.23,0.854-2.873,1.996-4.503,1.32c-4.496-1.245-3.242-7.557-3.294-11.768c0.01-3.453-0.007-10.408,0-13.839
			c-0.073-6.127,0.128-13.298,0.055-19.347c-0.267-5.093-0.161-12.534,7.075-9.177l-0.526,0.102c2.483,0.376,4.46,2.242,6.538,3.521
			l-0.099,0.236l0.28-0.115c0.193,0.131,0.376,0.248,0.564,0.373l-0.079,0.379l0.334-0.218c0.203,0.132,0.406,0.249,0.611,0.372
			v0.357l0.224-0.224c0.236,0.143,0.474,0.28,0.71,0.423l0.018,0.093l0.04-0.059C193.596,198.852,223.419,211.892,220.795,216.892z"
			/>
		<path fill="#164854" d="M195.424,209.11c0.008,0.004,0.016,0.009,0.023,0.014l-0.039-0.096L195.424,209.11z"/>
	</g>
</g>
</svg>
