<?xml version="1.0" encoding="utf-8"?>
<!-- Generator: Adobe Illustrator 24.0.2, SVG Export Plug-In . SVG Version: 6.00 Build 0)  -->
<svg version="1.1" id="Capa_1" xmlns="http://www.w3.org/2000/svg" xmlns:xlink="http://www.w3.org/1999/xlink" x="0px" y="0px"
	 width="300px" height="349.742px" viewBox="0 0 300 349.742" enable-background="new 0 0 300 349.742" xml:space="preserve">
<g>
	<g>
		<g>
			<path fill-rule="evenodd" clip-rule="evenodd" fill="#FFFFFF" d="M299.004,95.928c-1.194-5.552-2.591-10.878-4.654-15.613
				c-4.099-9.405-10.423-17.598-17.714-23.87c-10.539-9.064-21.684-12.816-38.732-15.613c-4.532-0.743-10.365-0.207-14.262,0.6
				c-2.069,0.429-6.172,2.114-7.957,1.351c-1.85-5.56-9.764-13.807-13.811-17.714C186.512,10.238,167.639-0.012,137.322,0
				c-2.352,0.2-4.704,0.4-7.056,0.601c-5.525,1.064-11.068,1.847-16.063,3.603C98.078,9.873,85.315,18.97,75.171,30.625
				c-5.57,6.4-10.602,14.531-13.961,22.969c-0.765,1.922-3.105,11.497-4.203,12.31c-2.602,0.05-5.204,0.1-7.806,0.15
				c-4.097,0.698-8.246,1.122-11.86,2.402C19.532,74.76,6.742,87.651,1.761,106.737c-8.419,32.259,14.864,57.548,37.681,63.802
				c6.263,1.717,13.342,2.251,21.918,2.252c2.133,0,4.986,0.325,6.455-0.45c3.27-1.724,3.144-7.121,0-8.857
				c-2.245-1.24-7.707-0.451-10.809-0.45c-6.448,0.002-12.011-0.38-16.814-1.952c-13.479-4.411-22.916-14.614-27.623-27.923
				c-1.442-4.078-3.382-10.316-2.402-16.363c3.508-21.649,13.586-34.128,32.877-39.783c2.352-0.4,4.704-0.801,7.056-1.201
				c4.982-0.863,11.07,1.909,14.262-0.6c2.231-1.754,2.055-6.429,3.002-9.458c1.91-6.106,4.177-12.159,7.206-17.264
				c8.132-13.706,19.4-24.373,34.078-31.526c3.753-1.401,7.506-2.802,11.259-4.203c1.451-0.25,2.903-0.5,4.354-0.751
				c6.986-2.838,22.655-3.072,30.925-1.051c18.873,4.613,32.192,12.377,43.385,24.47c3.044,3.288,5.907,7.365,8.257,11.259
				c1.257,2.084,2.216,5.591,4.354,6.756c2.619,1.426,5.812-0.298,8.107-1.051c3.849-1.262,12.337-2.673,17.564-1.802
				c4.677,0.78,9.294,0.985,13.361,2.402c18.484,6.442,30.794,18.742,37.23,37.23c2.068,5.942,3.224,15.042,1.952,22.518
				c-3.901,22.921-14.639,37.396-33.027,45.637c-5.83,2.613-11.525,2.937-18.615,4.654c-3.813,0.923-6.767-0.721-8.407,2.552
				c-4.505,8.994,11.251,7.505,16.964,6.155c25.093-5.93,40.101-20.102,49.24-42.034
				C298.985,121.466,301.473,107.412,299.004,95.928z M200.073,133.159c-0.971-1.878-2.418-4.325-2.552-6.756
				c1.877-2.768,4.538-6.297,5.254-9.908c0.895-4.516-4.147-7.45-6.155-9.458c-3.072-3.072-6.581-8.745-11.409-9.758
				c-3.006-0.631-9.853,4.082-11.71,5.404c-1.536-0.244-5.705-1.675-6.455-2.852c-1.584-3.538-1.412-8.504-3.753-11.259
				c-2.683-3.157-16.547-2.027-22.669-1.952c-0.901,0.35-1.802,0.701-2.702,1.051c-3.479,2.402-3.035,8.622-4.954,12.61
				c-2.102,0.801-4.204,1.601-6.305,2.402c-1.847-1.353-8.693-6.14-11.86-5.404c-3.786,0.879-16.668,13.808-17.414,17.714
				c-0.916,4.793,4.252,7.892,5.254,11.259c0.361,1.214-2.06,5.9-2.552,6.906c-2.252,0.6-4.504,1.201-6.755,1.801
				c-8.401,2.511-6.482,6.857-6.455,16.664c0.008,2.837-0.81,7.172,0.15,9.308c2.196,4.887,8.987,3.684,13.511,6.305
				c0.801,2.001,1.601,4.003,2.402,6.005c-1.325,2.51-6.295,8.151-5.555,11.86c1.001,5.015,9.764,11.571,13.211,15.012
				c1.187,1.185,3.109,3.236,5.855,2.702c4.154-0.807,6.814-3.964,10.509-5.404c1.546,0.588,5.235,1.553,6.155,2.852
				c1.74,3.997,1.395,10.168,4.954,12.31c1.789,1.077,17.742,1.589,21.317,0.901c1.513-0.291,2.988-1.026,3.903-1.952
				c2.146-2.169,3.041-8.226,3.753-11.559c2.179-0.704,4.178-2.184,6.605-2.402c3.158,1.695,6.207,4.543,10.058,5.254
				c2.048,0.378,4.271-0.927,5.254-1.801c2.881-2.562,13.042-12.203,13.811-15.763c1.364-6.311-7.083-7.588-4.053-14.862
				c0.483-1.161,0.571-2.601,1.501-3.303c4.016-2.05,9.99-1.395,12.31-5.104c1.309-2.093,0.901-6.272,0.901-9.608
				C213.433,136.379,213.742,135.867,200.073,133.159z M203.376,155.977c-3.391,0.306-10.536,1.899-11.86,4.504
				c-1.2,2.361-1.496,5.149-2.552,7.506c-0.747,1.666-2.707,3.287-2.102,6.155c0.797,3.78,4.399,6.208,4.954,9.908
				c-2.652,2.602-5.305,5.205-7.957,7.806c-3.102-1.701-6.205-3.403-9.308-5.104c-2.917-0.722-4.889,1.494-6.605,2.252
				c-2.452,0.851-4.904,1.701-7.356,2.552c-2.963,1.597-3.902,8.155-4.654,11.86c-1.372,0.395-11.23,0.325-11.71-0.3
				c-0.851-3.152-1.701-6.305-2.552-9.458c-1.432-2.857-6.538-3.258-9.458-4.654c-1.64-0.784-3.815-3.087-6.756-2.252
				c-3.102,1.701-6.205,3.403-9.308,5.104c-2.602-2.702-5.205-5.405-7.806-8.107c1.701-3.102,3.403-6.205,5.104-9.308
				c0.445-1.88-5.184-14.723-6.155-15.463c-2.078-1.582-9.204-1.648-10.509-3.453v-11.409c3.423-0.279,10.219-1.897,11.71-4.354
				c0.901-2.552,1.802-5.104,2.702-7.656c0.747-1.699,2.934-3.584,2.252-6.455c-0.853-3.587-4.453-5.903-5.104-9.608
				c2.421-1.552,5.749-7.28,8.407-7.806c1.883,1.257,7.929,5.771,10.959,5.104c2.302-1.101,4.604-2.202,6.906-3.303
				c2.201-0.927,5.068-0.992,6.455-2.702c2.181-2.689,1.406-8.132,3.603-10.809c3.753,0.05,7.506,0.1,11.259,0.15
				c0.803,3.849,1.744,10.464,4.954,12.01c2.452,0.851,4.904,1.701,7.356,2.552c1.653,0.791,3.766,2.836,6.305,2.102
				c3.434-0.993,5.886-4.539,9.458-5.104c2.652,2.702,5.305,5.405,7.956,8.107c-1.202,2.209-6.013,8.199-5.254,11.409
				c1.151,2.402,2.302,4.804,3.453,7.206c0.953,2.132,0.925,4.886,2.702,6.155c2.744,1.959,7.531,1.797,10.659,3.303
				C203.476,148.271,203.426,152.125,203.376,155.977z M149.031,115.444c-1.601,0.15-3.203,0.3-4.804,0.45
				c-2.02,0.47-4.654,1.036-6.605,1.801c-10.349,4.062-15.855,11.528-20.417,21.468c-2.827,6.161-1.821,17.047,0.601,22.518
				c1.001,2.352,2.002,4.704,3.002,7.056c4.925,7.779,17.822,18.131,32.577,15.763c13.728-2.204,24.16-9.31,28.523-20.717
				C191.565,138.537,173.766,115.401,149.031,115.444z M156.537,174.142c-16.738,3.172-27.362-6.35-30.475-19.516
				c-0.951-4.021-0.597-9.422,0.751-12.911c2.73-7.064,7.771-11.845,14.562-14.862c1.901-0.45,3.803-0.901,5.705-1.351
				c14.208-0.195,22.645,6.014,26.271,16.213C178.608,156.498,167.979,171.974,156.537,174.142z M81.026,191.556
				c-1.014,0.691-2.364,1.058-3.002,2.102c-2.369,3.868,0.236,13.817-0.751,19.216c-1.03,5.634-3.319,9.55-7.206,12.31
				c-1.482,1.052-4.113,3.342-6.455,2.852c-0.444-3.143-2.687-5.1-4.354-7.056c-8.911-10.453-24.863-6.059-30.025,4.654
				c-0.976,2.025-2.363,5.133-1.952,8.407c1.645,13.081,14.036,23.721,28.073,15.763c5.179-2.936,5.838-6.96,9.007-11.71
				c12.182-1.111,20.082-11.899,22.518-23.119c0.793-3.65,0.656-19.655-0.6-21.468C85.275,192.057,83.577,191.52,81.026,191.556z
				 M47.398,242.448c-5.887,1.365-12.053-5.234-10.058-11.259c1.375-4.152,3.886-4.509,7.506-6.455
				C56.931,224.408,57.718,240.056,47.398,242.448z M255.468,237.794c-5.316,2.553-8.363,6.708-10.659,12.31
				c-12.696,0.124-19.029-6.417-21.317-16.664v-31.225c0.001-2.86,0.434-6.786-0.751-8.557c-1.058-1.581-2.669-2.129-5.404-2.102
				c-1.062,0.779-2.307,1.116-3.002,2.252c-1.402,2.29-0.601,16.671-0.6,20.867v19.666c2.306,11.567,8.042,18.832,17.414,23.269
				c2.613,1.237,5.777,1.699,9.007,2.252c1.965,0.336,3.663-0.2,5.104,0.45c3.834,16.769,27.876,17.289,34.678,2.102
				c1.035-2.311,2.379-6.018,1.651-9.908C279.669,242.242,268.258,231.651,255.468,237.794z M265.076,263.615
				c-7.058,1.643-13.125-5.418-10.358-12.01c1.283-3.056,3.573-3.901,6.455-5.404C274.155,245.839,274.987,261.308,265.076,263.615z
				 M131.317,314.207c-1.185-0.67-3.58-0.734-3.453-2.252c-0.05-22.466-0.1-44.939-0.15-67.405
				c0.001-8.286,2.72-21.348-5.705-21.317c-1.592,0.781-3.017,1.27-3.753,2.852c-1.209,2.6-0.301,16.084-0.3,20.116v66.504
				c-6.755,2.245-11.892,7.068-13.511,14.412c-2.574,11.674,8.381,24.618,20.267,22.368c12.128-2.295,22.435-15.63,13.811-28.824
				C136.798,318.024,134.108,315.784,131.317,314.207z M123.811,339.727c-5.599,1.222-11.294-5.411-9.608-11.259
				c1.163-4.033,3.827-4.588,7.206-6.455C134.194,321.657,134.651,337.362,123.811,339.727z M179.656,266.167
				c-0.05-10.257-0.1-20.518-0.15-30.775c0-6.543,0.953-12.15-5.705-12.16c-1.643,0.817-3.29,1.373-3.903,3.153
				c-0.05,10.257-0.1,20.518-0.15,30.775v8.707c-0.05,0.1-0.1,0.2-0.15,0.3c-1.401,0.55-2.802,1.101-4.203,1.651
				c-1.701,1.401-3.403,2.802-5.104,4.203c-7.665,8.408-4.166,22.343,3.753,27.623c13.641,9.094,33.249-3.193,28.673-20.116
				C190.734,272.194,185.952,269.272,179.656,266.167z M176.504,292.889c-6.17,1.703-12.341-4.498-10.659-10.659
				c1.209-4.429,3.808-5.173,7.806-6.906C185.528,275.043,186.295,290.187,176.504,292.889z"/>
		</g>
	</g>
</g>
</svg>
