<?xml version="1.0" encoding="utf-8"?>
<!-- Generator: Adobe Illustrator 24.0.2, SVG Export Plug-In . SVG Version: 6.00 Build 0)  -->
<svg version="1.1" id="Capa_1" xmlns="http://www.w3.org/2000/svg" xmlns:xlink="http://www.w3.org/1999/xlink" x="0px" y="0px"
	 width="498.377px" height="300px" viewBox="0 0 498.377 300" enable-background="new 0 0 498.377 300" xml:space="preserve">
<g>
	<g>
		<path fill-rule="evenodd" clip-rule="evenodd" fill="#FFFFFF" d="M70.283,71.351c0.473,1.614,2.569,3.818,5.317,3.087
			c4.611-1.227,3.088-10.598,3.087-16.294V22.983c-0.001-7.133-0.514-13.145,5.317-14.407h202.047
			c6.277,1.219,5.49,8.134,5.489,15.608c0.114,1.658,0.229,3.316,0.343,4.974c2.121,4.253,7.545,1.752,8.233-2.23v-7.89
			C300.114,1.176,291.292-0.002,273.53,0H86.577c-1.658,0.114-3.316,0.229-4.974,0.343c-2.956,0.841-6.113,2.863-7.89,4.974
			c-5.626,6.684-3.43,27.869-3.43,40.135V71.351z M190.688,95.706c15.011-2.779,25.747-11.896,30.53-24.87
			c10.29-27.913-11.989-51.579-38.248-51.455c-3.751,1.413-7.764,0.937-11.149,2.23c-11.31,4.319-19.092,12.921-23.326,24.355
			c-1.179,3.184-2.166,8.592-1.544,12.521c0.506,3.189,0.094,5.72,0.858,8.404c3.875,13.632,12.76,22.918,25.728,27.443
			C177.75,95.805,185.034,96.753,190.688,95.706z M156.899,47.167c2.992-7.719,8.941-13.781,16.294-17.152
			c2.679-1.228,5.816-1.053,8.747-2.23c15.635-0.203,25.227,6.314,30.187,16.637c9.957,20.725-5.116,39.978-22.812,43.051
			C167.519,91.258,148.74,68.217,156.899,47.167z M497.017,211.137c-1.574-2.443-4.082-4.059-7.547-4.631
			c-2.04-0.337-6.038,0.785-7.375-0.343c-0.114-0.057-0.229-0.114-0.343-0.172V92.962c0.001-14.016,2.477-35.336-4.631-42.365
			c-4.299-4.251-11.352-4.117-20.067-4.116H266.155c-3.305,1.346-6.159,1.234-8.576,3.259c-7.081,5.933-5.488,16.791-5.489,29.501
			c0,6.222-1.836,17.211,3.43,18.352c5.777,1.252,4.975-6.153,4.974-10.977c-0.002-9.356-2.477-29.429,4.631-31.388
			c51.221-0.057,102.458-0.114,153.679-0.172h36.705c4.623,0,11.964-0.925,14.922,1.029c4.594,3.036,2.745,26.609,2.744,34.989
			c-0.057,38.302-0.114,76.615-0.172,114.916c-0.114,0.172-0.229,0.343-0.343,0.515h-94.849c-4.614,0-23.266-1.039-25.899,0.343
			c-1.065,0.559-2.733,2.611-2.23,4.631c0.387,1.552,1.746,3.001,3.259,3.43h127.952c2.537,0,6.287-0.48,8.233,0.343
			c0.792,0.477,0.8,0.705,0.686,1.715c-2.515,3.03-5.031,6.061-7.547,9.09H379.699c-5.555,0-25.567-1.103-28.643,0.686
			c-0.913,0.531-2.279,2.367-2.058,3.945c0.655,4.673,5.358,3.945,10.634,3.945h98.279c6.746,0,24.276,1.222,28.472-1.029
			c2.938-1.577,9.956-10.208,11.32-13.378C498.904,217.436,498.394,213.274,497.017,211.137z M364.263,66.034
			c-2.973,0.514-5.946,1.029-8.919,1.544c-7.945,2.549-15.264,7.95-19.553,14.236c-2.207,3.234-4.864,7.453-5.66,11.835
			c-0.607,3.341,2.825,6.111,5.832,4.631c2.752-1.201,2.806-4.565,4.116-7.204c1.725-3.474,4.607-7.284,7.547-9.605
			c18.403-14.527,40.701-4.59,47.682,13.721c7.036,18.457-8.887,35.457-22.812,38.248c-3.581,0.718-7.577,0.659-11.149,0
			c-3.077-0.568-7.496-3.655-10.463-1.372c-1.877,1.445-1.663,5.549,0.172,6.861c2.961,2.117,13.751,4.471,19.553,3.43
			c16.784-3.01,26.687-11.412,32.417-25.385c3.08-7.51,2.288-19.298-0.515-26.242C396.561,75.991,385.056,65.947,364.263,66.034z
			 M149.181,188.84c4.986,0,15.719,1.413,18.009-1.544c1.729-2.232,0.858-8.822,0.858-12.521c0.057-4.63,0.114-9.262,0.172-13.893
			c-0.114-1.372-0.229-2.744-0.343-4.116c0.718-3.152,0.567-8.659,0-12.178c-0.057-4.23-0.114-8.462-0.172-12.692
			c-1.703-9.181-4.946-16.74-9.605-22.983c-6.722-9.008-16.866-15.632-29.501-18.695c-8.786-2.13-20.19,0.469-29.844-1.029
			c-17.321-0.172-34.648-0.343-51.97-0.515c-3.797,1.417-8.523,0.952-12.178,2.23C24.08,94.586,15.32,101.113,9.394,109.428
			c-3.318,4.656-6.051,10.456-7.718,16.637c-6.592,24.446,7.485,44.845,20.925,54.028c5.292,3.616,12.012,5.927,19.21,7.547
			c3.43,0.172,6.861,0.343,10.291,0.515c14.863,0.171,29.731,0.343,44.594,0.515C114.19,188.726,131.688,188.783,149.181,188.84z
			 M32.378,175.805c-14.535-6.953-29.982-27.795-21.611-50.597c1.479-4.028,3.628-8.525,6.175-11.663
			c5.381-6.63,12.358-12.021,21.44-14.922c3.087-0.514,6.175-1.029,9.262-1.544c18.293,0.229,36.592,0.457,54.885,0.686
			c8.262,1.23,17.566-1.172,24.698,0.858c5.779,1.644,10.845,3.871,15.265,6.861c8.752,5.919,14.292,15.584,16.809,27.786
			c0.057,7.489,0.114,14.98,0.172,22.469c0,5.637,0.002,11.051,0,16.637c-0.057,2.63-0.114,5.26-0.172,7.89
			c-27.346,0.042-53.152-0.344-79.241-0.343C63.116,179.922,43.881,181.308,32.378,175.805z M350.199,273.226
			c-3.163-2.246-10.278-0.612-12.521-2.23c0.057-40.36,0.114-80.731,0.172-121.091c0.779-4.386,0.32-11.241-0.343-15.094
			c0.114-2.687,0.229-5.374,0.343-8.061c-0.975-6.267-2.941-10.34-7.375-13.035c-6.648-4.041-30.79-2.23-41.85-2.23H184.856
			c-1.261,0.652-2.737,0.875-3.43,2.058c-1.427,2.436-0.009,5.617,2.23,6.346c10.061,0.057,20.126,0.114,30.187,0.172h102.396
			c2.937,0,6.935-0.477,9.09,0.515c1.326,0.61,2.825,2.101,3.43,3.43c1.048,2.301,0.249,6.299,0.343,8.576
			c0.292,7.08,0.172,14.878,0.172,22.469v107.027c0,2.832,0.593,7.503-0.515,9.433H136.145c-5.305,0-15.41,1.165-19.724-0.343
			v-55.057c0.001-5.736,2.056-17.644-4.974-16.294c-5.187,0.996-3.431,11.477-3.43,17.495v38.248c0,3.954,0.962,13.017-0.343,15.951
			c-7.05-0.131-11.986,0.24-14.75,4.288c-5.456,7.989,7.13,22.68,13.378,23.841h217.312c6.069,0,14.672,1.295,18.867-1.029
			c2.775-1.538,4.477-4.56,6.346-7.032C352.71,286.443,358.421,279.066,350.199,273.226z M345.911,281.631
			c-2.573,3.201-5.146,6.404-7.718,9.605h-230.69c-2.572-3.201-5.146-6.404-7.718-9.605c0.114-0.4,0.229-0.8,0.343-1.201
			l0.686-0.343h226.745c4.612,0,15.597-0.999,18.352,0.858V281.631z M82.289,127.266c-4.206,2.324-7.575,2.938-9.262,7.718
			c-2.906,8.234,3.919,17.192,12.692,15.437C100.248,147.514,99.021,126.902,82.289,127.266z M83.661,142.188
			c-0.743-0.457-1.487-0.915-2.23-1.372c-0.237-1.321-0.313-2.314,0-3.602c0.758-0.568,1.536-0.987,2.401-1.544
			c1.854,0.161,2.641,1.03,3.43,2.23C87.403,140.445,86.482,142.193,83.661,142.188z M50.902,127.437
			c-4.958,2.176-8.422,2.722-10.119,8.061c-2.54,7.991,5.005,16.81,13.207,14.922C67.446,147.323,66.649,127.123,50.902,127.437z
			 M55.189,140.472c-0.628,0.968-2.181,2.515-3.945,1.715c-0.942-0.335-1.653-0.827-2.058-1.715c-0.427-0.71-0.38-1.997-0.172-2.916
			c0.696-1.006,1.443-1.325,2.401-2.058C54.59,135.405,55.925,137.656,55.189,140.472z M114.706,127.437
			c-4.047,2.164-7.636,2.718-9.433,7.032c-3.592,8.621,3.85,17.813,12.692,15.951C131.705,147.527,130.858,127.087,114.706,127.437z
			 M117.107,142.359c-2.788,0.05-3.115-1.095-4.288-2.573c-0.043-2.794,1.162-3.324,2.916-4.288c2.526-0.01,4.007,1.519,3.945,4.116
			C118.818,140.895,118.258,141.404,117.107,142.359z M236.826,133.44c-4.703-2.013-10.283-2.433-16.98-2.401
			c-3.717,1.412-7.52,1.062-10.977,2.401c-10.72,4.154-18.785,12.968-22.64,24.012c-1.277,3.657-1.386,7.447-1.372,12.006
			c0.057,18.767,10.61,30.002,24.527,35.504c4.102,1.622,10.551,3.691,16.98,2.573c15.491-2.694,26.769-10.437,31.902-23.326
			C267.622,160.717,253.424,140.542,236.826,133.44z M251.233,179.235c-4.099,11.474-13.093,17.989-26.757,20.067
			c-18.275,2.779-37.028-19.376-30.702-38.591c3.012-9.149,10.649-17.718,20.068-20.411c2.458-0.343,4.917-0.686,7.375-1.029
			C241.559,139.009,259.038,157.388,251.233,179.235z M414.003,191.07c0.8,0.686,1.601,1.372,2.401,2.058
			c2.637,0.046,4.302-0.402,5.146-2.058c1.388-2.727,0.032-18.422-0.686-20.925c-3.573-12.451-12.632-20.31-23.155-25.899
			c-1.93-1.025-3.294-2.214-6.346-2.23c-0.343,0.114-0.686,0.229-1.029,0.343c-1.807,1.31-2.998,4.643-1.201,6.689
			c2.973,1.486,5.946,2.973,8.919,4.459c5.725,3.728,11.275,9.64,14.064,16.294c1.55,3.697,1.544,8.894,1.544,14.064
			C413.66,186.038,413.18,189.485,414.003,191.07z M388.104,177.863v5.146c0,4.479-0.404,12.503,5.489,9.948
			c0.94-0.353,2.178-1.2,2.573-2.058c0.92-1.998,0.164-13.984-0.686-14.922c-0.691-0.762-1.974-1.032-3.087-1.372
			C390.407,175.475,388.688,175.634,388.104,177.863z M168.391,238.237c-0.576,3.02-1.838,13.725-0.515,17.152
			c0.582,1.507,1.779,1.979,2.916,2.916c8.94,0.025,3.918-13.95,6.003-20.582c2.668-8.484,8.346-14.622,15.094-19.038
			c2.915-1.543,5.832-3.087,8.747-4.631c2.599-3.318-0.156-7.001-3.945-7.032c-2.744,1.315-5.489,2.63-8.233,3.945
			C178.893,216.423,170.8,225.612,168.391,238.237z M274.56,258.304c1.054-0.492,2.39-1.059,2.916-2.058
			c1.464-2.782,0.667-16.059-0.172-19.038c-3.313-11.769-9.659-19.051-18.695-25.042c-2.955-1.959-6.594-5.066-11.149-5.146
			c-2.386,1.415-4.977,4.168-2.23,7.204c2.858,1.486,5.718,2.973,8.576,4.459c6.356,4.072,11.761,9.896,14.579,17.495
			C270.651,242.289,266.287,258.316,274.56,258.304z M198.235,258.304c1.172-0.52,2.59-1.236,3.087-2.401
			c0.752-1.764,0.194-3.76,0.172-5.832c-0.061-5.703,1.111-10.443-5.146-10.291c-1.013,0.743-2.213,1.187-2.744,2.401
			c-0.629,1.437-0.343,4.04-0.343,6.003C193.261,253.704,192.603,258.358,198.235,258.304z M249.175,258.304
			c1.001-0.262,2.509-1.361,2.916-2.23c0.114-2.001,0.229-4.002,0.343-6.003c0-5.75,0.732-10.477-5.317-10.291
			c-0.859,0.66-2.05,1.077-2.573,2.058c-0.769,1.444-0.514,4.03-0.515,6.175C244.029,252.616,243.462,259.8,249.175,258.304z"/>
	</g>
</g>
</svg>
