<?xml version="1.0" encoding="utf-8"?>
<!-- Generator: Adobe Illustrator 24.0.2, SVG Export Plug-In . SVG Version: 6.00 Build 0)  -->
<svg version="1.1" id="Capa_1" xmlns="http://www.w3.org/2000/svg" xmlns:xlink="http://www.w3.org/1999/xlink" x="0px" y="0px"
	 viewBox="0 0 431.4 496" enable-background="new 0 0 431.4 496" xml:space="preserve">
<g>
	<path fill="#231F20" d="M215.696,444.765c8.536-14.306,24.574-47.432,24.574-92.154V240.859c0-22.47,7.153-46.534,26.014-59.4
		C352.466,122.667,418.282,48.929,431.253,0c0,0,5.316,114.754-47.966,217.386C352.652,276.341,217.176,493.743,215.696,496
		c-1.449-2.257-136.949-219.659-167.543-278.614C-5.162,114.754,0.146,0,0.146,0c12.979,48.929,78.779,122.667,164.961,181.46
		c18.878,12.866,26.046,36.93,26.046,59.4v111.752C191.154,397.332,207.175,430.459,215.696,444.765"/>
	<path fill="#231F20" d="M227.204,358.48c0,6.344-5.138,11.482-11.506,11.482c-6.327,0-11.498-5.138-11.498-11.482
		c0-6.344,5.171-11.498,11.498-11.498C222.066,346.982,227.204,352.137,227.204,358.48"/>
</g>
</svg>
