<?xml version="1.0" encoding="utf-8"?>
<!-- Generator: Adobe Illustrator 24.0.2, SVG Export Plug-In . SVG Version: 6.00 Build 0)  -->
<svg version="1.1" id="Capa_1" xmlns="http://www.w3.org/2000/svg" xmlns:xlink="http://www.w3.org/1999/xlink" x="0px" y="0px"
	 width="359.601px" height="349.878px" viewBox="0 0 359.601 349.878" enable-background="new 0 0 359.601 349.878"
	 xml:space="preserve">
<g>
	<path fill="none" d="M211.267,273.387c-0.295,0.052-0.59,0.106-0.889,0.147C210.678,273.493,210.972,273.439,211.267,273.387z"/>
	<path fill="none" d="M209.537,273.624c-0.301,0.03-0.602,0.062-0.906,0.081C208.935,273.686,209.235,273.654,209.537,273.624z"/>
	<path fill="none" d="M212.953,273.024c-0.288,0.074-0.575,0.151-0.868,0.214C212.379,273.175,212.665,273.098,212.953,273.024z"/>
	<path fill="none" d="M214.58,272.534c-0.278,0.096-0.555,0.197-0.839,0.281C214.026,272.731,214.302,272.631,214.58,272.534z"/>
	<path fill="none" d="M118.995,223.186c0.747,1.148,1.768,1.879,2.786,2.052C120.764,225.065,119.742,224.334,118.995,223.186z"/>
	<path fill="none" d="M157.374,264.795c-0.444,0.123-0.899,0.229-1.358,0.322C156.475,265.024,156.93,264.917,157.374,264.795z"/>
	<path fill="none" d="M214.206,253.891c-0.3,0.115-0.604,0.222-0.909,0.318C213.602,254.114,213.906,254.007,214.206,253.891z"/>
	<path fill="none" d="M155.77,265.165c-0.456,0.086-0.917,0.156-1.378,0.207C154.854,265.321,155.314,265.252,155.77,265.165z"/>
	<path fill="none" d="M158.912,264.308c-0.438,0.158-0.895,0.302-1.359,0.435C158.017,264.61,158.474,264.467,158.912,264.308z"/>
	<path fill="none" d="M117.828,199.587c0.785,0.85,1.612,1.619,2.457,2.345l0,0C119.44,201.206,118.613,200.437,117.828,199.587z"/>
	<path fill="none" d="M207.101,273.759c0.226,0,0.448-0.018,0.673-0.024c-0.384,0.01-0.768,0.026-1.155,0.019
		C206.78,273.757,206.94,273.759,207.101,273.759z"/>
	<path fill="none" d="M115.526,185.325c-1.294,0.101-2.321,0.688-2.925,1.547C113.205,186.013,114.232,185.426,115.526,185.325z"/>
	<path fill="none" d="M200.307,94.207c-0.243-0.821-0.218-1.657,0.022-2.415c-0.283,0.861-0.249,1.846,0.082,2.744
		C200.367,94.401,200.343,94.329,200.307,94.207z"/>
	<path fill="none" d="M219.287,250.442c-0.146,0.174-0.3,0.344-0.462,0.51C218.987,250.786,219.141,250.616,219.287,250.442z"/>
	<path fill="none" d="M255.13,181.706L255.13,181.706c-1.312,1.271-2.544,2.624-3.697,4.044
		C252.585,184.33,253.818,182.977,255.13,181.706z"/>
	<path fill="none" d="M218.679,251.103c-0.211,0.206-0.433,0.407-0.667,0.6C218.245,251.51,218.468,251.309,218.679,251.103z"/>
	<path fill="none" d="M203.108,89.075c-0.824,0.24-1.516,0.717-2.023,1.331C201.592,89.792,202.284,89.315,203.108,89.075z"/>
	<path fill="none" d="M208.531,227.931c-0.723,0.431-1.457,0.844-2.202,1.239C207.074,228.775,207.808,228.362,208.531,227.931z"/>
	<path fill="none" d="M154.153,265.395c-0.473,0.045-0.946,0.074-1.415,0.075C153.207,265.469,153.68,265.44,154.153,265.395z"/>
	<path fill="none" d="M217.858,251.824c-0.194,0.155-0.394,0.305-0.601,0.45C217.464,252.129,217.664,251.979,217.858,251.824z"/>
	<path fill="none" d="M124.184,219.399c-0.105-0.232-0.217-0.471-0.303-0.682l0,0C123.967,218.929,124.079,219.167,124.184,219.399z
		"/>
	<path fill="none" d="M216.224,252.936c-0.276,0.159-0.562,0.306-0.851,0.447C215.663,253.242,215.948,253.094,216.224,252.936z"/>
	<path fill="none" d="M217.034,252.429c-0.237,0.159-0.48,0.313-0.73,0.459C216.554,252.742,216.797,252.588,217.034,252.429z"/>
	<path fill="none" d="M136.315,210.579c0.048,0.017,0.096,0.036,0.144,0.052C136.412,210.615,136.363,210.596,136.315,210.579
		L136.315,210.579z"/>
	<path fill="none" d="M119.13,156.618c-0.053-0.08-0.105-0.16-0.158-0.242l0,0C119.024,156.457,119.077,156.538,119.13,156.618z"/>
	<path fill="none" d="M190.224,149.733c-0.52-0.986-0.993-2.05-1.424-3.163C189.231,147.684,189.705,148.748,190.224,149.733
		L190.224,149.733z"/>
	<path fill="none" d="M217.286,95.887c0.062-0.074,0.129-0.143,0.197-0.212C217.415,95.744,217.348,95.813,217.286,95.887z"/>
	<path fill="none" d="M134.229,116.462c0.118-0.091,0.235-0.181,0.351-0.272C134.465,116.281,134.348,116.372,134.229,116.462z"/>
	<path fill="none" d="M135.056,115.811c0.109-0.089,0.218-0.177,0.325-0.265C135.274,115.634,135.164,115.722,135.056,115.811z"/>
	<path fill="none" d="M130.351,107.747c-0.125,0.106-0.251,0.213-0.384,0.324C130.1,107.96,130.227,107.852,130.351,107.747
		L130.351,107.747z"/>
	<path fill="none" d="M217.848,95.335c0.076-0.062,0.152-0.124,0.231-0.182C217.999,95.21,217.924,95.272,217.848,95.335z"/>
	<polygon fill="none" points="133.488,105.229 133.486,105.23 133.486,105.23 	"/>
	<path fill="none" d="M241.218,186.012c-0.853,1.292-1.622,2.627-2.35,3.98l0,0C239.596,188.639,240.365,187.304,241.218,186.012z"
		/>
	<path fill="none" d="M218.518,94.874c0.079-0.045,0.154-0.093,0.235-0.133C218.672,94.781,218.597,94.829,218.518,94.874z"/>
	<path fill="none" d="M145.107,256.442c-0.145-0.04-0.289-0.082-0.434-0.124C144.818,256.361,144.962,256.402,145.107,256.442z"/>
	<path fill="none" d="M219.362,94.491c0.043-0.015,0.084-0.036,0.128-0.049C219.446,94.455,219.405,94.476,219.362,94.491z"/>
	<path fill="none" d="M220.274,94.271c0.078-0.011,0.158-0.011,0.237-0.018C220.432,94.26,220.352,94.26,220.274,94.271z"/>
	<path fill="none" d="M221.12,94.229c0.06,0.002,0.12,0.006,0.179,0.01C221.239,94.235,221.18,94.231,221.12,94.229z"/>
	<path fill="none" d="M137.731,252.876c-0.12-0.09-0.239-0.18-0.357-0.272C137.493,252.696,137.611,252.786,137.731,252.876z"/>
	<path fill="none" d="M107.334,154.325c0-0.001,0-0.001-0.001-0.002c0.99,1.768,1.968,3.621,3.013,5.318
		C109.302,157.944,108.323,156.092,107.334,154.325z"/>
	<path fill="none" d="M141.245,254.994c-0.135-0.065-0.27-0.132-0.403-0.199C140.975,254.863,141.109,254.929,141.245,254.994z"/>
	<path fill="none" d="M127.33,251.542c-0.361-0.784-0.674-1.574-0.943-2.369C126.656,249.968,126.969,250.759,127.33,251.542z"/>
	<path fill="none" d="M133.366,117.098c0.124-0.088,0.245-0.176,0.367-0.265C133.612,116.921,133.49,117.01,133.366,117.098z"/>
	<path fill="none" d="M142.938,255.737c-0.003-0.001-0.006-0.002-0.009-0.003C142.933,255.735,142.935,255.735,142.938,255.737z"/>
	<path fill="none" d="M131.516,118.3c0.123-0.072,0.241-0.147,0.362-0.221C131.758,118.152,131.639,118.228,131.516,118.3z"/>
	<path fill="none" d="M132.461,117.714c0.127-0.083,0.25-0.167,0.375-0.251C132.711,117.547,132.588,117.632,132.461,117.714z"/>
	<path fill="none" d="M125.257,237.691c0.018-0.082,0.047-0.156,0.069-0.235C125.305,237.536,125.275,237.609,125.257,237.691z"/>
	<path fill="none" d="M207.812,90.96c0.041,0.068,0.085,0.132,0.122,0.203C207.898,91.092,207.853,91.028,207.812,90.96z"/>
	<path fill="none" d="M130.532,118.846c0.085-0.044,0.166-0.093,0.25-0.138C130.698,118.754,130.617,118.802,130.532,118.846z"/>
	<path fill="none" d="M215.131,253.497c-0.228,0.106-0.459,0.206-0.692,0.301C214.672,253.703,214.903,253.603,215.131,253.497z"/>
	<path fill="none" d="M207.124,80.64c0.182,0.027,0.36,0.061,0.541,0.091C207.483,80.701,207.306,80.668,207.124,80.64z"/>
	<path fill="none" d="M196.907,81.014c0.461-0.128,0.929-0.241,1.406-0.333C197.836,80.773,197.368,80.885,196.907,81.014z"/>
	<path fill="none" d="M204.713,80.375c0.115,0.008,0.23,0.01,0.345,0.02C204.942,80.385,204.828,80.383,204.713,80.375z"/>
	<path fill="none" d="M202.948,80.301c-0.101-0.001-0.203-0.013-0.304-0.013l-0.003,0.013
		C202.743,80.301,202.845,80.299,202.948,80.301z"/>
	<path fill="none" d="M118.071,185.76c0.13,0.053,0.262,0.104,0.388,0.166C118.332,185.863,118.202,185.813,118.071,185.76z"/>
	<path fill="none" d="M195.375,81.526c0.395-0.155,0.8-0.293,1.212-0.417C196.175,81.233,195.77,81.371,195.375,81.526z"/>
	<path fill="none" d="M192.557,83.05c0.347-0.251,0.709-0.479,1.083-0.692C193.266,82.57,192.904,82.799,192.557,83.05z"/>
	<path fill="none" d="M122.688,225.239c-0.061,0.011-0.124,0.013-0.185,0.02C122.565,225.252,122.627,225.251,122.688,225.239z"/>
	<path fill="none" d="M209.203,81.023c0.188,0.041,0.376,0.08,0.562,0.123C209.578,81.103,209.391,81.064,209.203,81.023z"/>
	<path fill="none" d="M117.17,185.471c0.139,0.032,0.278,0.063,0.414,0.106C117.447,185.534,117.309,185.504,117.17,185.471z"/>
	<path fill="none" d="M268.392,147.611c0.286,0.615,0.534,1.247,0.744,1.894C268.926,148.858,268.678,148.227,268.392,147.611z"/>
	<path fill="none" d="M269.72,151.756c0.251,1.299,0.379,2.633,0.406,3.975C270.099,154.389,269.972,153.055,269.72,151.756z"/>
	<path fill="none" d="M193.931,82.193c0.409-0.219,0.829-0.422,1.264-0.6C194.76,81.771,194.34,81.974,193.931,82.193z"/>
	<path fill="none" d="M175.883,108.775c-0.015,0.454-0.032,0.907-0.054,1.357C175.851,109.682,175.869,109.229,175.883,108.775z"/>
	<path fill="none" d="M188.585,88.404c0.184-0.514,0.402-0.989,0.635-1.446C188.987,87.415,188.769,87.89,188.585,88.404z"/>
	<path fill="none" d="M188.337,123.556c0.03-0.028,0.065-0.05,0.097-0.076C188.402,123.506,188.367,123.528,188.337,123.556z"/>
	<path fill="none" d="M187.549,114.793L187.549,114.793c1.551-0.768,3.031-1.76,4.409-2.908l0,0
		C190.579,113.033,189.099,114.025,187.549,114.793z"/>
	<path fill="none" d="M175.921,105.84c0.002,0.313,0.002,0.626,0,0.938C175.923,106.466,175.923,106.153,175.921,105.84z"/>
	<path fill="none" d="M175.916,107.328c-0.005,0.323-0.012,0.646-0.02,0.969C175.904,107.974,175.911,107.651,175.916,107.328z"/>
	<path fill="none" d="M191.38,84.036c0.337-0.323,0.688-0.629,1.059-0.905C192.067,83.407,191.717,83.712,191.38,84.036z"/>
	<path fill="none" d="M189.683,122.776c-0.307,0.138-0.632,0.282-0.891,0.446C189.051,123.058,189.376,122.914,189.683,122.776z"/>
	<path fill="none" d="M190.243,85.307c0.278-0.368,0.579-0.706,0.893-1.027C190.822,84.601,190.521,84.939,190.243,85.307z"/>
	<path fill="none" d="M186.332,135.623c0.055,0.701,0.133,1.405,0.228,2.109l0,0C186.466,137.028,186.387,136.325,186.332,135.623z"
		/>
	<path fill="none" d="M189.396,86.626c0.244-0.44,0.503-0.863,0.791-1.25C189.899,85.763,189.64,86.185,189.396,86.626z"/>
	<path fill="none" d="M125.907,111.068c0.123-0.075,0.245-0.151,0.367-0.229C126.152,110.917,126.029,110.993,125.907,111.068z"/>
	<path fill="none" d="M203.836,88.939c0.068-0.007,0.136-0.011,0.204-0.015C203.972,88.928,203.904,88.932,203.836,88.939z"/>
	<path fill="none" d="M118.918,186.186c0.118,0.071,0.238,0.137,0.35,0.216C119.156,186.323,119.036,186.257,118.918,186.186z"/>
	<path fill="none" d="M139.399,305.694c0-0.843,0.169-1.646,0.473-2.38l0,0c-0.989,2.243-0.361,5.176,1.374,6.806l0,0
		C140.105,308.991,139.399,307.425,139.399,305.694z"/>
	<path fill="none" d="M139.399,289.218c0-0.861,0.175-1.681,0.49-2.427c-0.642,1.459-0.649,3.342-0.018,4.807l0,0
		C139.568,290.864,139.399,290.061,139.399,289.218z"/>
	<path fill="none" d="M128.927,108.922c0.133-0.106,0.263-0.211,0.391-0.316C129.19,108.71,129.06,108.815,128.927,108.922z"/>
	<path fill="none" d="M129.462,108.489c0.149-0.122,0.293-0.242,0.435-0.36C129.756,108.247,129.611,108.367,129.462,108.489z"/>
	<path fill="none" d="M128.364,109.363c0.126-0.097,0.249-0.193,0.371-0.29C128.613,109.169,128.49,109.266,128.364,109.363z"/>
	<path fill="none" d="M157.304,273.053c0.006,0,0.012-0.001,0.018-0.001c-4.741-0.115-9.447-0.799-13.589-1.99l0,0
		C147.869,272.252,152.568,272.933,157.304,273.053z"/>
	<path fill="none" d="M206.811,89.813c0.068,0.053,0.131,0.112,0.196,0.169C206.942,89.924,206.879,89.866,206.811,89.813z"/>
	<path fill="none" d="M204.56,88.934c0.085,0.007,0.17,0.009,0.254,0.021C204.73,88.943,204.646,88.941,204.56,88.934z"/>
	<path fill="none" d="M206.201,89.407c0.059,0.031,0.112,0.072,0.169,0.106C206.313,89.478,206.259,89.438,206.201,89.407z"/>
	<path fill="none" d="M205.401,89.084c0.042,0.012,0.087,0.018,0.129,0.032C205.488,89.102,205.443,89.096,205.401,89.084z"/>
	<path fill="none" d="M220.717,322.252c0,0.466-0.055,0.919-0.152,1.357l0,0c0.203-0.878,0.201-1.866-0.008-2.742l0,0
		C220.658,321.313,220.717,321.775,220.717,322.252z"/>
	<path fill="none" d="M240.429,210.955c0.264-1.055,0.553-2.168,0.866-3.333l0,0C240.982,208.786,240.693,209.9,240.429,210.955z"/>
	<path fill="none" d="M120.928,188.189c0.05,0.085,0.111,0.165,0.155,0.253C121.038,188.354,120.977,188.274,120.928,188.189z"/>
	<path fill="none" d="M120.364,187.401c0.079,0.092,0.166,0.178,0.238,0.274C120.53,187.579,120.443,187.493,120.364,187.401z"/>
	<path fill="none" d="M119.69,186.737c0.101,0.084,0.206,0.163,0.3,0.253C119.896,186.899,119.791,186.821,119.69,186.737z"/>
	<path fill="none" d="M225.508,305.694c0,1.526-0.55,2.922-1.46,4.006c1.446-1.637,1.89-4.322,0.992-6.374l0,0
		C225.339,304.057,225.508,304.856,225.508,305.694z"/>
	<path fill="none" d="M215.659,261.906c0.757-0.347,1.499-0.752,2.215-1.209C217.158,261.154,216.416,261.558,215.659,261.906
		L215.659,261.906z"/>
	<path fill="none" d="M127.167,110.242c0.125-0.087,0.248-0.176,0.371-0.264C127.415,110.066,127.292,110.154,127.167,110.242z"/>
	<path fill="none" d="M215.333,272.268c0.071-0.028,0.143-0.053,0.213-0.082l-0.004-0.01
		C215.472,272.206,215.405,272.24,215.333,272.268z"/>
	<path fill="none" d="M127.774,109.806c0.125-0.093,0.249-0.185,0.372-0.278C128.023,109.621,127.899,109.714,127.774,109.806z"/>
	<path fill="none" d="M126.543,110.664c0.124-0.081,0.246-0.164,0.368-0.247C126.789,110.501,126.667,110.583,126.543,110.664z"/>
	<path fill="none" d="M207.351,90.327c0.059,0.066,0.118,0.134,0.172,0.204C207.468,90.46,207.411,90.394,207.351,90.327z"/>
	<path fill="none" d="M161.96,251.464c-0.017,0.013-0.032,0.029-0.049,0.043C161.928,251.494,161.943,251.478,161.96,251.464z"/>
	<path fill="none" d="M205.237,247.01c-0.226,0.134-0.513,0.231-0.729,0.352C204.724,247.241,205.011,247.144,205.237,247.01z"/>
	<path fill="none" d="M226.884,154.707c0.709-1.424,1.264-2.918,1.634-4.471l0,0C228.148,151.789,227.594,153.282,226.884,154.707z"
		/>
	<path fill="none" d="M235.24,102.433c-0.132-0.162-0.276-0.319-0.415-0.478l0,0C234.964,102.114,235.108,102.271,235.24,102.433z"
		/>
	<path fill="none" d="M226.38,136.244c1.059,1.791,1.898,3.903,2.335,6.179C228.278,140.147,227.44,138.034,226.38,136.244
		c1.935-1.053,3.746-2.528,5.351-4.333C230.126,133.716,228.315,135.19,226.38,136.244z"/>
	<path fill="none" d="M194.144,154.976L194.144,154.976c-0.434-0.418-0.846-0.852-1.235-1.298l0,0
		C193.298,154.124,193.71,154.557,194.144,154.976z"/>
	<path fill="none" d="M216.971,96.318c-0.028,0.045-0.07,0.081-0.087,0.132C216.911,96.405,216.942,96.363,216.971,96.318z"/>
	<path fill="none" d="M167.501,228.081c-1.319-1.337-2.354-3.181-3.458-5.499l0,0C165.146,224.901,166.182,226.744,167.501,228.081z
		"/>
	<path fill="none" d="M236.721,194.445c0.104-0.251,0.23-0.495,0.338-0.745l0,0C236.951,193.95,236.825,194.194,236.721,194.445z"/>
	<path fill="none" d="M203.305,249.072c0.022-0.194,0.069-0.403,0.154-0.615c-0.549,1.699,0.261,3.764,2.209,5.244c0,0,0,0,0.001,0
		C203.902,252.452,203.139,250.424,203.305,249.072z"/>
	<polygon fill="none" points="208.382,254.708 208.39,254.709 208.389,254.708 	"/>
	<path fill="none" d="M223.823,194.605c0.113,0.026,0.224,0.058,0.333,0.093C224.047,194.662,223.937,194.631,223.823,194.605z"/>
	<path fill="none" d="M230.709,221.016c-0.258,1.956-0.601,3.858-1.019,5.716c0.749-3.171,1.098-6.552,1.62-9.805l0,0
		C231.099,218.289,230.889,219.652,230.709,221.016z"/>
	<path fill="none" d="M201.37,168.003L201.37,168.003c0.399,0.087,0.797,0.167,1.194,0.235
		C202.168,168.17,201.77,168.09,201.37,168.003z"/>
	<path fill="none" d="M226.194,196.366c0.047,0.087,0.101,0.169,0.14,0.261C226.294,196.535,226.241,196.453,226.194,196.366z"/>
	<path fill="none" d="M225.763,195.743c0.068,0.078,0.14,0.153,0.201,0.237C225.903,195.896,225.832,195.821,225.763,195.743z"/>
	<path fill="none" d="M224.562,194.855c0.101,0.046,0.201,0.094,0.296,0.149C224.763,194.949,224.664,194.901,224.562,194.855z"/>
	<path fill="none" d="M197.854,232.813c-0.452,0.153-0.904,0.3-1.357,0.441C196.95,233.113,197.402,232.965,197.854,232.813z"/>
	<path fill="none" d="M225.214,195.238c0.086,0.063,0.173,0.127,0.252,0.197C225.387,195.364,225.301,195.302,225.214,195.238z"/>
	<path fill="none" d="M142.353,128.928c0.244-0.567,0.483-1.156,0.723-1.738c-1.337,3.127-2.692,6.506-3.405,9.523
		C140.294,134.217,141.187,131.631,142.353,128.928z"/>
	<path fill="none" d="M167.448,251.873c-0.165-0.171-0.346-0.326-0.542-0.469l0,0C167.103,251.547,167.283,251.702,167.448,251.873z
		"/>
	<path fill="none" d="M190.808,265.575c-1.156-1.599-2.116-3.379-2.823-5.325C188.692,262.196,189.652,263.976,190.808,265.575z"/>
	<path fill="none" d="M186.048,245.989c0-0.001,0-0.002,0-0.004C186.048,245.986,186.048,245.988,186.048,245.989z"/>
	<path fill="none" d="M186.352,251.976c-0.069-0.737-0.129-1.508-0.178-2.302C186.223,250.468,186.283,251.239,186.352,251.976z"/>
	<path fill="none" d="M223.668,243.027L223.668,243.027c1.965-3.81,3.593-7.718,4.837-11.823l0,0
		C227.262,235.309,225.633,239.217,223.668,243.027z"/>
	<path fill="none" d="M210.874,197.378c0.861-0.452,1.702-0.935,2.528-1.441l0,0C212.577,196.443,211.736,196.926,210.874,197.378z"
		/>
	<path fill="none" d="M159.374,213.538L159.374,213.538c0.922,1.322,1.693,2.728,2.386,4.139l0,0
		C161.067,216.266,160.296,214.86,159.374,213.538z"/>
	<path fill="none" d="M207.776,254.591c-0.126-0.029-0.255-0.053-0.378-0.088C207.521,254.538,207.649,254.563,207.776,254.591z"/>
	<path fill="none" d="M217.632,202.547c0.325-1.741,0.046-3.117,0.469-4.642l0,0C217.678,199.43,217.957,200.807,217.632,202.547z"
		/>
	<path fill="none" d="M196.089,166.282c0.123,0.054,0.25,0.1,0.375,0.152C196.339,166.382,196.211,166.336,196.089,166.282
		L196.089,166.282z"/>
	<path fill="none" d="M204.716,160.198c0.164,0.021,0.324,0.034,0.485,0.05C205.04,160.232,204.879,160.219,204.716,160.198z"/>
	<path fill="none" d="M214.915,223.386c1.041-0.891,2.034-1.825,2.964-2.809l0,0C216.949,221.561,215.956,222.495,214.915,223.386z"
		/>
	<path fill="none" d="M210.117,197.768c0.112-0.056,0.229-0.103,0.339-0.16C210.346,197.664,210.229,197.712,210.117,197.768
		L210.117,197.768z"/>
	<path fill="none" d="M188.524,206.492c-0.353,0.966-0.646,1.954-0.906,2.951c0.28-1.047,0.571-2.087,0.967-3.096
		C188.56,206.401,188.538,206.452,188.524,206.492z"/>
	<path fill="none" d="M200.886,191.526c0.356-0.125,0.71-0.255,1.064-0.387l0,0C201.597,191.271,201.242,191.4,200.886,191.526
		L200.886,191.526z"/>
	<path fill="none" d="M207.061,188.943C209.259,187.826,209.254,187.828,207.061,188.943L207.061,188.943z"/>
	<path fill="none" d="M203.383,200.424c0.805-0.239,1.598-0.495,2.374-0.777C204.98,199.93,204.187,200.186,203.383,200.424
		L203.383,200.424z"/>
	<path fill="none" d="M218.561,126.008c0.054,0.084,0.103,0.17,0.158,0.254C218.664,126.178,218.615,126.093,218.561,126.008
		L218.561,126.008z"/>
	<path fill="none" d="M154.267,221.092c0.457,0.918,0.893,1.891,1.325,2.902C155.16,222.982,154.724,222.009,154.267,221.092
		L154.267,221.092z"/>
	<path fill="none" d="M160.376,253.499c0.184-0.253,0.357-0.512,0.507-0.781C160.733,252.986,160.56,253.245,160.376,253.499z"/>
	<path fill="none" d="M154.848,256.855c1.471-0.285,2.951-0.861,4.074-1.81C157.799,255.994,156.318,256.57,154.848,256.855z"/>
	<path fill="none" d="M192.524,267.671c0.834,0.878,1.75,1.668,2.728,2.374l0,0C194.273,269.339,193.358,268.549,192.524,267.671z"
		/>
	<path fill="none" d="M161.308,252.106c0.041-0.049,0.082-0.097,0.125-0.144C161.391,252.01,161.349,252.057,161.308,252.106z"/>
	<path fill="none" d="M210.313,129.446c0.158,0.304,0.318,0.604,0.486,0.898C210.632,130.05,210.471,129.751,210.313,129.446z"/>
	<path fill="none" d="M214.765,135.986c0.922,1.157,1.796,2.279,2.56,3.404l0,0c-1.223-1.815-2.774-3.613-4.135-5.438l0,0
		C213.714,134.655,214.245,135.334,214.765,135.986z"/>
	<path fill="none" d="M156.655,210.417c-0.81-0.733-1.715-1.396-2.731-1.969l0,0C154.94,209.021,155.846,209.684,156.655,210.417
		L156.655,210.417z"/>
	<path fill="none" d="M197.697,242.366c1.116-1.23,2.536-2.235,4.241-2.899C200.233,240.131,198.813,241.136,197.697,242.366z"/>
	<path fill="none" d="M227.179,123.593c2.088-4.258,2.713-9.612,1.798-12.989l0,0C229.892,113.981,229.267,119.335,227.179,123.593z
		"/>
	<path fill="none" d="M219.874,145.999c0.083,2.013-0.284,3.888-1.083,5.654c1.18-2.603,1.512-5.81,0.49-8.562l0,0
		C219.613,144.026,219.832,144.987,219.874,145.999z"/>
	<path fill="none" d="M220.461,217.502L220.461,217.502c0.882-1.129,1.612-2.37,2.283-3.68
		C222.073,215.132,221.342,216.373,220.461,217.502z"/>
	<path fill="none" d="M166.267,270.824c-0.074,0.04-0.146,0.082-0.221,0.12C166.121,270.905,166.194,270.864,166.267,270.824z"/>
	<path fill="none" d="M174.645,230.728c1.146-3.16,2.082-6.496,2.697-9.887C176.726,224.232,175.791,227.568,174.645,230.728
		L174.645,230.728z"/>
	<path fill="none" d="M167.879,269.815c-0.058,0.041-0.113,0.084-0.17,0.124C167.766,269.9,167.821,269.856,167.879,269.815z"/>
	<path fill="none" d="M169.343,268.622c-0.033,0.03-0.063,0.064-0.096,0.094C169.279,268.685,169.31,268.652,169.343,268.622z"/>
	<path fill="none" d="M175.5,241.394c0.31,0.474,0.575,1.004,0.725,1.647C176.075,242.399,175.81,241.868,175.5,241.394z"/>
	<path fill="none" d="M173.307,239.444c0.44,0.229,0.889,0.509,1.303,0.879C174.196,239.953,173.747,239.674,173.307,239.444z"/>
	<path fill="none" d="M176.856,249.295c0,0.024-0.002,0.049-0.003,0.073C176.853,249.344,176.855,249.319,176.856,249.295z"/>
	<path fill="none" d="M153.12,257.124c-0.289,0.033-0.576,0.068-0.868,0.088C152.544,257.192,152.832,257.157,153.12,257.124z"/>
	<path fill="none" d="M154.543,256.908c-0.325,0.063-0.65,0.125-0.98,0.171C153.893,257.034,154.218,256.971,154.543,256.908z"/>
	<path fill="none" d="M164.547,271.64c-0.082,0.033-0.164,0.067-0.247,0.099C164.383,271.707,164.465,271.674,164.547,271.64z"/>
	<path fill="none" d="M162.718,251.007c-0.055,0.026-0.108,0.051-0.161,0.079C162.609,251.058,162.663,251.032,162.718,251.007z"/>
	<path fill="none" d="M175.893,104.238c0.01,0.358,0.019,0.717,0.023,1.075C175.912,104.955,175.904,104.596,175.893,104.238z"/>
	<path fill="none" d="M195.675,245.733c-0.238,0.661-0.417,1.35-0.522,2.073C195.258,247.084,195.437,246.394,195.675,245.733z"/>
	<path fill="none" d="M202.452,261.391c1.275,0.677,2.627,1.163,4.029,1.456C205.079,262.554,203.727,262.068,202.452,261.391z"/>
	<path fill="none" d="M197.123,256.486c0.322,0.507,0.679,0.996,1.068,1.462C197.802,257.482,197.445,256.993,197.123,256.486z"/>
	<path fill="none" d="M206.786,254.285c-0.099-0.04-0.203-0.071-0.298-0.115C206.584,254.214,206.687,254.246,206.786,254.285z"/>
	<path fill="none" d="M201.36,260.748c-0.818-0.498-1.559-1.13-2.233-1.792C199.802,259.618,200.542,260.25,201.36,260.748z"/>
	<path fill="none" d="M150.934,257.256c0.266,0,0.528-0.016,0.792-0.026c-0.267,0.01-0.532,0.026-0.8,0.026
		C150.929,257.255,150.931,257.256,150.934,257.256z"/>
	<path fill="none" d="M242.383,203.741c0.244-0.837,0.499-1.693,0.771-2.583C242.881,202.048,242.627,202.904,242.383,203.741
		L242.383,203.741z"/>
	<path fill="none" d="M212.589,254.41c0.182-0.046,0.362-0.1,0.543-0.154c-0.182,0.054-0.364,0.099-0.546,0.146L212.589,254.41z"/>
	<path fill="none" d="M210.128,263.214c0.562,0,1.125-0.058,1.687-0.142C211.252,263.156,210.689,263.214,210.128,263.214
		L210.128,263.214z"/>
	<path fill="none" d="M196.665,255.713c-0.062-0.113-0.116-0.229-0.174-0.342l0,0C196.549,255.485,196.603,255.601,196.665,255.713z
		"/>
	<path fill="none" d="M219.933,249.569c-0.146,0.234-0.314,0.462-0.491,0.686c0.78-1.025,1.379-2.172,2.042-3.261l0,0
		C220.981,247.854,220.468,248.713,219.933,249.569z"/>
	<path fill="none" d="M216.494,99.634c0.333,0.989,1.086,1.826,2.144,2.289C217.58,101.46,216.827,100.623,216.494,99.634z"/>
	<path fill="none" d="M139.837,203.494c-2.292-0.667-4.636-1.45-6.866-2.435l0,0C135.201,202.044,137.544,202.828,139.837,203.494z"
		/>
	<path fill="none" d="M216.166,121.371c0.056,0.058,0.109,0.118,0.161,0.179C216.275,121.489,216.222,121.429,216.166,121.371z"/>
	<path fill="none" d="M151.923,217.416L151.923,217.416c-1.125-1.391-2.603-2.107-4.196-2.772l0,0
		C149.32,215.308,150.798,216.025,151.923,217.416z"/>
	<path fill="none" d="M144.93,204.941L144.93,204.941c1.737,0.514,3.457,1.073,5.12,1.722
		C148.387,206.014,146.667,205.455,144.93,204.941z"/>
	<path fill="none" d="M216.494,99.634c-0.083-0.247-0.14-0.504-0.169-0.766C216.354,99.13,216.411,99.387,216.494,99.634z"/>
	<path fill="none" d="M123.468,214.207L123.468,214.207c0.48-0.905,1.631-2.033,4.513-2.953
		C125.098,212.175,123.948,213.301,123.468,214.207z"/>
	<path fill="none" d="M127.612,235.038c0.084-0.015,0.17-0.025,0.257-0.031C127.781,235.012,127.696,235.023,127.612,235.038z"/>
	<path fill="none" d="M222.522,128.984c-0.256,0.138-0.507,0.256-0.75,0.35C222.016,129.24,222.266,129.122,222.522,128.984z"/>
	<path fill="none" d="M226.246,106.11c0.187,0.192,0.368,0.389,0.542,0.589l0,0C226.614,106.499,226.433,106.302,226.246,106.11z"/>
	<path fill="none" d="M225.635,105.517c0.197,0.179,0.388,0.364,0.573,0.552C226.023,105.88,225.832,105.696,225.635,105.517z"/>
	<path fill="none" d="M223.013,194.497c0.122,0.005,0.24,0.018,0.357,0.032C223.252,194.515,223.135,194.502,223.013,194.497z"/>
	<path fill="none" d="M218.662,101.931c0.72,0.304,1.516,0.385,2.258,0.688C220.178,102.316,219.381,102.235,218.662,101.931z"/>
	<path fill="none" d="M225.635,105.517c-1.377-1.255-3.026-2.279-4.707-2.895C222.609,103.238,224.258,104.262,225.635,105.517z"/>
	<path fill="none" d="M213.251,120.151c0.084,0.002,0.166,0.011,0.249,0.018C213.416,120.162,213.335,120.153,213.251,120.151z"/>
	<path fill="none" d="M209.509,121.76c0.171-0.201,0.364-0.389,0.577-0.56C209.873,121.371,209.68,121.559,209.509,121.76z"/>
	<path fill="none" d="M215.614,120.898c0.051,0.035,0.096,0.077,0.145,0.115C215.709,120.975,215.664,120.933,215.614,120.898z"/>
	<path fill="none" d="M131.141,239.451c0.235-2.194-1.083-4.215-2.79-4.439l0,0l0,0c4.734,1.28,1.508,7.713,3.986,11.369l0,0
		C131.258,243.999,130.911,241.57,131.141,239.451z"/>
	<path fill="none" d="M162.536,272.327v0.001c0.074-0.021,0.147-0.042,0.221-0.063C162.683,272.287,162.609,272.307,162.536,272.327
		z"/>
	<path fill="none" d="M212.426,120.197c0.091-0.013,0.18-0.014,0.271-0.022C212.606,120.184,212.517,120.184,212.426,120.197z"/>
	<path fill="none" d="M125.56,236.811c-0.031,0.069-0.067,0.133-0.095,0.205c0.029-0.073,0.066-0.138,0.098-0.208L125.56,236.811z"
		/>
	<path fill="none" d="M127.305,235.116c-0.026,0.01-0.061,0.005-0.079,0.03C127.252,235.136,127.278,235.124,127.305,235.116z"/>
	<path fill="none" d="M214.029,120.242c0.083,0.017,0.165,0.033,0.246,0.054C214.194,120.274,214.112,120.258,214.029,120.242z"/>
	<path fill="none" d="M125.146,238.429c0.001-0.016,0.005-0.029,0.006-0.045c-0.285,3.521,0.026,7.197,1.235,10.789
		C125.18,245.597,124.876,241.935,125.146,238.429z"/>
	<path fill="none" d="M214.829,120.481c0.05,0.021,0.103,0.035,0.152,0.058C214.933,120.516,214.88,120.502,214.829,120.481z"/>
	<path fill="none" d="M116.235,185.335c0.144,0.009,0.288,0.017,0.43,0.037C116.522,185.353,116.379,185.344,116.235,185.335z"/>
	<path fill="none" d="M169.697,84.458c0.259,0.249,0.51,0.506,0.75,0.779C170.208,84.964,169.956,84.706,169.697,84.458z"/>
	<path fill="none" d="M87.888,174.125c-0.134-0.824-0.237-1.66-0.312-2.505C87.65,172.465,87.754,173.301,87.888,174.125z"/>
	<path fill="none" d="M164.61,346.297c-0.002-0.002-0.003-0.004-0.005-0.005C164.607,346.294,164.608,346.296,164.61,346.297z"/>
	<path fill="none" d="M87.422,168.143c0-0.012,0-0.024,0-0.036C87.423,168.118,87.422,168.13,87.422,168.143z"/>
	<path fill="none" d="M163.522,345.169c-0.366-0.404-0.726-0.818-1.074-1.247C162.797,344.351,163.157,344.765,163.522,345.169z"/>
	<path fill="none" d="M245.801,233.101c-0.664,1.265-1.419,2.568-2.24,3.885C244.382,235.669,245.137,234.366,245.801,233.101z"/>
	<path fill="none" d="M168.864,83.734c0.196,0.156,0.386,0.32,0.572,0.488C169.25,84.054,169.06,83.89,168.864,83.734z"/>
	<path fill="none" d="M167.948,83.083c0.204,0.131,0.405,0.268,0.6,0.412C168.353,83.35,168.152,83.213,167.948,83.083z"/>
	<path fill="none" d="M115.642,150.644c-0.207-0.345-0.416-0.687-0.629-1.027C115.226,149.957,115.435,150.3,115.642,150.644
		L115.642,150.644z"/>
	<path fill="none" d="M111.908,226.553c0.897,1.256,1.823,2.489,2.79,3.681C113.731,229.042,112.805,227.809,111.908,226.553
		L111.908,226.553z"/>
	<path fill="none" d="M170.462,85.252c0.245,0.278,0.477,0.573,0.703,0.875C170.939,85.825,170.707,85.531,170.462,85.252z"/>
	<path fill="none" d="M171.377,86.429c0.15,0.213,0.298,0.429,0.439,0.652C171.675,86.858,171.527,86.642,171.377,86.429z"/>
	<path fill="none" d="M172.04,87.446c0.132,0.22,0.259,0.444,0.383,0.673C172.299,87.89,172.172,87.666,172.04,87.446z"/>
	<path fill="none" d="M173.144,89.581c0.164,0.372,0.319,0.752,0.467,1.141C173.463,90.333,173.308,89.953,173.144,89.581z"/>
	<path fill="none" d="M172.622,88.491c0.137,0.266,0.267,0.539,0.394,0.816C172.889,89.03,172.759,88.756,172.622,88.491z"/>
	<path fill="none" d="M129.009,262.361c0.648,0.705,1.328,1.371,2.039,1.999C130.337,263.732,129.657,263.067,129.009,262.361z"/>
	<path fill="none" d="M197.175,348.583c-0.056,0.029-0.109,0.063-0.166,0.091C197.065,348.646,197.119,348.611,197.175,348.583z"/>
	<path fill="none" d="M224.99,260.532c-0.056,0.385-0.104,0.775-0.185,1.144C224.886,261.307,224.934,260.917,224.99,260.532z"/>
	<path fill="none" d="M225.177,258.197c-0.005,0.571-0.026,1.133-0.082,1.673C225.151,259.33,225.172,258.768,225.177,258.197z"/>
	<path fill="none" d="M238.018,244.853c0.604-0.773,1.199-1.56,1.783-2.354l0,0C239.217,243.293,238.622,244.08,238.018,244.853z"/>
	<path fill="none" d="M87.984,174.682c0.186,1.032,0.42,2.042,0.703,3.024l0,0C88.404,176.724,88.17,175.714,87.984,174.682z"/>
	<path fill="none" d="M164.484,81.619c0.292,0.069,0.576,0.15,0.854,0.239C165.059,81.77,164.776,81.688,164.484,81.619z"/>
	<path fill="none" d="M165.602,81.938c0.359,0.124,0.707,0.264,1.043,0.42C166.309,82.202,165.961,82.062,165.602,81.938z"/>
	<path fill="none" d="M90.196,181.706c0.314,0.654,0.659,1.283,1.03,1.889C90.855,182.989,90.51,182.36,90.196,181.706
		L90.196,181.706z"/>
	<path fill="none" d="M163.278,81.401c0.273,0.037,0.541,0.082,0.804,0.135C163.819,81.483,163.552,81.438,163.278,81.401z"/>
	<path fill="none" d="M157.166,81.789c0.425-0.097,0.84-0.179,1.248-0.248C158.007,81.609,157.591,81.691,157.166,81.789z"/>
	<path fill="none" d="M155.344,82.273c0.534-0.163,1.057-0.308,1.565-0.43C156.401,81.966,155.878,82.11,155.344,82.273z"/>
	<path fill="none" d="M94.06,187.186c-0.908-0.88-1.711-1.872-2.426-2.947C92.349,185.314,93.152,186.306,94.06,187.186
		c-0.088,0.029-1.863,1.391-2.736,3.955C92.197,188.577,93.972,187.215,94.06,187.186z"/>
	<path fill="none" d="M166.881,82.479c0.253,0.125,0.502,0.256,0.743,0.399C167.384,82.735,167.135,82.604,166.881,82.479z"/>
	<path fill="none" d="M248.704,223.387c2.847-1.485,5.592-3.632,8.14-6.249C254.296,219.756,251.551,221.902,248.704,223.387
		L248.704,223.387z"/>
	<path fill="none" d="M87.546,165.137c0.013-0.16,0.027-0.32,0.042-0.479C87.573,164.818,87.558,164.977,87.546,165.137z"/>
	<path fill="none" d="M245.801,233.101c0.909-1.732,1.645-3.39,2.155-4.918C247.446,229.71,246.71,231.369,245.801,233.101z"/>
	<path fill="none" d="M153.647,82.85c0.44-0.162,0.873-0.311,1.297-0.447C154.519,82.539,154.087,82.688,153.647,82.85z"/>
	<path fill="none" d="M90.936,151.786c0.138-0.296,0.279-0.588,0.424-0.878C91.215,151.198,91.074,151.49,90.936,151.786z"/>
	<path fill="none" d="M103.575,214.311c-0.226-0.311-0.458-0.621-0.694-0.93l0,0c2.373,3.14,4.467,6.49,6.752,9.88l0,0
		C107.587,220.215,105.631,217.142,103.575,214.311z"/>
	<path fill="none" d="M119.614,102.531c0.663-0.687,1.37-1.351,2.099-2.004C120.984,101.179,120.277,101.844,119.614,102.531z"/>
	<path fill="none" d="M174.532,93.652c0.076,0.292,0.147,0.588,0.216,0.885C174.679,94.24,174.607,93.944,174.532,93.652z"/>
	<path fill="none" d="M222.444,266.933c-0.173,0.239-0.34,0.484-0.527,0.71C222.104,267.417,222.27,267.172,222.444,266.933z"/>
	<path fill="none" d="M174.844,94.956c0.095,0.433,0.184,0.87,0.265,1.313C175.028,95.826,174.939,95.389,174.844,94.956z"/>
	<path fill="none" d="M220.266,269.309c-0.218,0.19-0.43,0.385-0.659,0.562C219.836,269.693,220.049,269.498,220.266,269.309z"/>
	<path fill="none" d="M175.112,96.283c0.082,0.449,0.155,0.904,0.224,1.363C175.267,97.187,175.194,96.732,175.112,96.283z"/>
	<path fill="none" d="M223.323,265.553c-0.147,0.264-0.287,0.535-0.449,0.787C223.037,266.088,223.176,265.817,223.323,265.553z"/>
	<path fill="none" d="M221.422,268.183c-0.197,0.215-0.388,0.435-0.598,0.637C221.034,268.618,221.225,268.398,221.422,268.183z"/>
	<path fill="none" d="M175.818,102.429c0.027,0.476,0.049,0.953,0.065,1.432C175.867,103.382,175.845,102.905,175.818,102.429z"/>
	<path fill="none" d="M140.433,88.76c-2.718,1.318-5.456,2.729-8.101,4.261C134.977,91.489,137.715,90.078,140.433,88.76z"/>
	<path fill="none" d="M175.398,98.097c0.044,0.314,0.085,0.629,0.123,0.946C175.483,98.725,175.442,98.41,175.398,98.097z"/>
	<path fill="none" d="M175.717,100.997c0.029,0.357,0.054,0.716,0.077,1.075C175.771,101.712,175.746,101.354,175.717,100.997z"/>
	<path fill="none" d="M175.58,99.565c0.034,0.308,0.064,0.617,0.092,0.927C175.644,100.181,175.613,99.872,175.58,99.565z"/>
	<path fill="none" d="M224.608,262.38c-0.089,0.328-0.169,0.663-0.279,0.977C224.439,263.043,224.519,262.708,224.608,262.38z"/>
	<path fill="none" d="M174.165,92.362c0.083,0.272,0.164,0.547,0.241,0.825C174.329,92.908,174.249,92.634,174.165,92.362z"/>
	<path fill="none" d="M173.716,91.018c0.109,0.299,0.215,0.6,0.314,0.908C173.931,91.618,173.825,91.316,173.716,91.018z"/>
	<path fill="none" d="M224.049,264.039c-0.12,0.293-0.23,0.593-0.367,0.872C223.819,264.631,223.929,264.332,224.049,264.039z"/>
	<path fill="none" d="M151.425,83.744c0.599-0.265,1.18-0.499,1.751-0.719c-3.048,1.226-5.918,2.577-9.123,4.022l0,0
		C146.609,85.87,149.101,84.771,151.425,83.744z"/>
	<path fill="none" d="M200.294,346.298c-0.676,0.646-1.39,1.221-2.14,1.711C198.904,347.519,199.618,346.944,200.294,346.298z"/>
	<path fill="none" d="M131.048,264.36c2.585,2.283,5.58,4.056,8.896,5.394C136.628,268.415,133.634,266.643,131.048,264.36z"/>
	<path fill="none" d="M108.506,114.641c-1.186,0.535-2.25,1.206-3.17,2.021C106.255,115.847,107.32,115.176,108.506,114.641z"/>
	<path fill="#FFA14B" d="M88.687,177.706L88.687,177.706c0.402,1.4,0.903,2.741,1.509,4l0,0
		C89.59,180.447,89.09,179.106,88.687,177.706z"/>
	<path fill="#FFA14B" d="M357.543,177.706H281.14c0.084,1.308,0.115,2.641,0.081,4C281.701,180.14,374.447,185.761,357.543,177.706z
		"/>
	<path fill="#FFA14B" d="M255.472,181.362c-0.117,0.111-0.226,0.232-0.342,0.344l0,0
		C255.246,181.594,255.355,181.473,255.472,181.362z"/>
	<path fill="#FFA14B" d="M2.13,177.706c-17.755,8.092,81.429,2.413,78.417,4c-0.436-1.292-0.82-2.62-1.123-4H2.13z"/>
	<path fill="#FFA14B" d="M181.837,81.712V2c0-1.104-0.896-2-2-2s-2,0.896-2,2v78.048c1.019,1.262,1.93,2.659,2.73,4.192
		C180.939,83.356,181.363,82.513,181.837,81.712z"/>
	<path fill="#FFA14B" d="M306.908,55.462c5.983-17.218-50.794,47.254-50.24,44.583c0.927,0.972,1.829,1.956,2.704,2.953
		L306.908,55.462z"/>
	<path fill="#FFA14B" d="M196.089,166.282c-0.537-0.238-1.064-0.491-1.582-0.761C195.024,165.791,195.552,166.044,196.089,166.282z"
		/>
	<path fill="#FFA14B" d="M192.596,164.407L192.596,164.407c0.127,0.081,0.249,0.169,0.378,0.248
		C192.845,164.576,192.724,164.488,192.596,164.407z"/>
	<path fill="#FFA14B" d="M112.094,244.62l-59.329,59.329c-0.781,0.781-0.781,2.047,0,2.829c0.781,0.781,2.047,0.781,2.828,0
		l57.294-57.294C112.542,247.899,112.208,246.264,112.094,244.62z"/>
	<path fill="#FFA14B" d="M125.759,236.417c0.047-0.079,0.102-0.148,0.153-0.222C125.861,236.269,125.807,236.338,125.759,236.417z"
		/>
	<path fill="#FFA14B" d="M153.924,208.447L153.924,208.447c-1.23-0.706-2.539-1.254-3.874-1.784l0,0
		C151.384,207.194,152.694,207.741,153.924,208.447z"/>
	<path fill="#FFA14B" d="M219.28,143.091L219.28,143.091c-0.453-1.269-1.133-2.488-1.956-3.701l0,0
		C218.147,140.603,218.828,141.822,219.28,143.091z"/>
	<path fill="#FFA14B" d="M126.13,235.908c0.06-0.068,0.124-0.126,0.188-0.187C126.254,235.782,126.19,235.84,126.13,235.908z"/>
	<path fill="#FFA14B" d="M127.238,235.132c-0.059,0.021-0.115,0.047-0.172,0.073C127.121,235.175,127.19,235.171,127.238,235.132z"
		/>
	<path fill="#FFA14B" d="M126.569,235.5c0.07-0.053,0.143-0.097,0.216-0.142C126.711,235.402,126.639,235.447,126.569,235.5z"/>
	<path fill="#FFA14B" d="M144.911,213.517c0.972,0.353,1.905,0.73,2.816,1.127C146.816,214.247,145.883,213.87,144.911,213.517z"/>
	<path fill="#FFA14B" d="M125.579,236.772c-0.006,0.013-0.013,0.025-0.02,0.039C125.568,236.799,125.573,236.785,125.579,236.772z"
		/>
	<path fill="#FFA14B" d="M220.461,217.502c-0.797,1.069-1.656,2.097-2.582,3.075l0,0
		C218.805,219.599,219.663,218.571,220.461,217.502L220.461,217.502z"/>
	<path fill="#FFA14B" d="M107.035,105.533c0.098-0.371,0.213-0.74,0.348-1.109l-51.79-51.79c-0.781-0.781-2.047-0.781-2.828,0
		s-0.781,2.047,0,2.828l51.301,51.301C105.002,106.288,106.037,105.888,107.035,105.533z"/>
	<path fill="#FFA14B" d="M139.671,136.712L139.671,136.712c-0.311,1.243-0.56,2.466-0.723,3.662
		C139.111,139.178,139.36,137.955,139.671,136.712z"/>
	<path fill="#FFA14B" d="M239.801,242.499c0.057-0.078,0.116-0.155,0.173-0.233C239.917,242.345,239.858,242.421,239.801,242.499
		L239.801,242.499z"/>
	<path fill="#FFA14B" d="M228.506,231.204L228.506,231.204c0.443-1.464,0.842-2.952,1.185-4.472
		C229.348,228.252,228.949,229.739,228.506,231.204z"/>
	<path fill="#FFA14B" d="M246.229,248.928l57.851,57.85c0.781,0.781,2.047,0.781,2.828,0s0.781-2.048,0-2.829l-58.287-58.287
		C247.68,246.986,247.114,247.762,246.229,248.928z"/>
	<path fill="#FFA14B" d="M199.89,201.3L199.89,201.3C203.596,200.43,203.589,200.432,199.89,201.3z"/>
	<path fill="#FFA14B" d="M120.285,201.931L120.285,201.931c0.654,0.563,1.317,1.104,1.991,1.601
		c-0.461,0.146-0.884,0.305-1.298,0.467c0.414-0.162,0.837-0.321,1.298-0.467C121.602,203.035,120.939,202.494,120.285,201.931z"/>
	<path fill="#FFA14B" d="M345.047,114.213c13.032-14.048-73.376,27.42-71.36,24.9c0.834,1.063,1.57,2.207,2.215,3.415
		L345.047,114.213z"/>
	<path fill="#FFA14B" d="M101.371,211.486c0.519,0.629,1.024,1.261,1.51,1.895l0,0C102.396,212.747,101.89,212.115,101.371,211.486z
		"/>
	<path fill="#FFA14B" d="M212.6,167.686c-0.08,0.025-0.163,0.043-0.243,0.067C212.437,167.729,212.52,167.711,212.6,167.686z"/>
	<path fill="#FFA14B" d="M91.476,213.729l-76.85,31.47c-1.022,0.419-1.512,1.587-1.093,2.609c0.418,1.032,1.612,1.509,2.608,1.093
		l78.056-31.964C93.335,215.898,92.381,214.791,91.476,213.729z"/>
	<path fill="#FFA14B" d="M131.124,200.178c0.604,0.312,1.22,0.605,1.847,0.882C132.344,200.782,131.728,200.489,131.124,200.178z"/>
	<path fill="#FFA14B" d="M202.565,168.238c1.401,0.239,2.783,0.358,4.126,0.358C205.348,168.596,203.966,168.476,202.565,168.238
		L202.565,168.238z"/>
	<path fill="#FFA14B" d="M212.087,254.523c-0.264,0.057-0.528,0.105-0.792,0.145C211.558,254.629,211.822,254.58,212.087,254.523z"
		/>
	<path fill="#FFA14B" d="M203.498,239.186c0.059,0.001,0.116,0.01,0.175,0.013C203.614,239.195,203.557,239.187,203.498,239.186z"/>
	<path fill="#FFA14B" d="M211.814,263.072L211.814,263.072c1.3-0.195,2.595-0.593,3.844-1.166l0,0
		C214.409,262.479,213.115,262.878,211.814,263.072z"/>
	<path fill="#FFA14B" d="M202.706,239.25c0.089-0.016,0.177-0.015,0.267-0.025C202.883,239.235,202.795,239.233,202.706,239.25z"/>
	<path fill="#FFA14B" d="M114.343,14.496c-13.833-12.903,25.03,67.774,22.672,65.918c1.223-0.589,2.431-1.153,3.625-1.702
		L114.343,14.496z"/>
	<path fill="#FFA14B" d="M209.635,254.801c0.12,0,0.243-0.009,0.364-0.013c-0.194,0.007-0.385,0.004-0.575,0
		C209.495,254.791,209.563,254.801,209.635,254.801z"/>
	<path fill="#FFA14B" d="M211.148,254.693c-0.307,0.042-0.61,0.07-0.912,0.087C210.538,254.763,210.842,254.735,211.148,254.693z"/>
	<path fill="#FFA14B" d="M212.358,254.462c0.077-0.018,0.154-0.032,0.23-0.052l-0.003-0.009
		C212.51,254.421,212.434,254.444,212.358,254.462z"/>
	<path fill="#FFA14B" d="M225.036,291.597L225.036,291.597c0.984-2.235,0.365-5.157-1.355-6.79
		C225.401,286.44,226.02,289.363,225.036,291.597z"/>
	<path fill="#FFA14B" d="M144.053,87.047c-1.196,0.552-2.406,1.123-3.621,1.712l0,0C141.647,88.17,142.857,87.599,144.053,87.047z"
		/>
	<path fill="#FFA14B" d="M188.585,206.347c0.149-0.332,0.485-0.915,1.013-1.55C189.07,205.432,188.734,206.014,188.585,206.347z"/>
	<path fill="#FFA14B" d="M217.614,271.175c-0.253,0.142-0.502,0.29-0.764,0.42C217.111,271.464,217.361,271.317,217.614,271.175z"/>
	<path fill="#FFA14B" d="M218.993,270.305c-0.236,0.166-0.469,0.337-0.715,0.491C218.524,270.642,218.757,270.471,218.993,270.305z"
		/>
	<path fill="#FFA14B" d="M215.547,272.187c0.202-0.082,0.394-0.18,0.592-0.269c-0.197,0.088-0.395,0.177-0.596,0.259
		L215.547,272.187z"/>
	<path fill="#FFA14B" d="M207.365,242.087c-0.03-0.097-0.044-0.195-0.082-0.291C207.321,241.892,207.335,241.99,207.365,242.087z"/>
	<path fill="#FFA14B" d="M205.321,246.967c-0.028,0.014-0.056,0.03-0.084,0.043l0,0
		C205.266,246.996,205.293,246.981,205.321,246.967z"/>
	<path fill="#FFA14B" d="M206.318,240.36c0.055,0.053,0.105,0.11,0.157,0.166C206.424,240.469,206.373,240.413,206.318,240.36z"/>
	<path fill="#FFA14B" d="M206.808,240.94c0.043,0.061,0.088,0.12,0.127,0.184C206.896,241.06,206.851,241.001,206.808,240.94z"/>
	<path fill="#FFA14B" d="M205.762,239.898c0.031,0.021,0.059,0.048,0.089,0.07C205.821,239.946,205.793,239.919,205.762,239.898z"/>
	<path fill="#FFA14B" d="M208.39,254.709c0.136,0.019,0.275,0.031,0.415,0.043C208.665,254.74,208.525,254.727,208.39,254.709
		L208.39,254.709z"/>
	<path fill="#FFA14B" d="M204.955,239.481c0.06,0.024,0.122,0.044,0.181,0.07C205.077,239.525,205.016,239.505,204.955,239.481z"/>
	<path fill="#FFA14B" d="M204.224,239.266c0.076,0.015,0.15,0.032,0.225,0.051C204.374,239.298,204.3,239.281,204.224,239.266z"/>
	<path fill="#FFA14B" d="M250.347,16.574c1.035-2.373-2.719-3.958-3.69-1.545L221.311,75.53c1.22,0.5,2.441,1.04,3.663,1.608
		L250.347,16.574z"/>
	<path fill="#FFA14B" d="M216.896,96.421c-0.021,0.035-0.042,0.07-0.062,0.105C216.854,96.491,216.884,96.46,216.896,96.421z"/>
	<path fill="#FFA14B" d="M190.976,151.062c0.551,0.9,1.203,1.778,1.933,2.616l0,0c-1.088-1.244-1.935-2.509-2.685-3.944
		C190.466,150.192,190.717,150.637,190.976,151.062z"/>
	<path fill="#FFA14B" d="M146.915,256.87c-0.009-0.001-0.018-0.002-0.026-0.004C146.897,256.868,146.906,256.869,146.915,256.87z"/>
	<path fill="#FFA14B" d="M149.134,257.168c-0.149-0.013-0.299-0.027-0.448-0.043C148.836,257.141,148.984,257.155,149.134,257.168z"
		/>
	<path fill="#FFA14B" d="M143.732,271.062c-1.305-0.377-2.567-0.815-3.789-1.308l0,0
		C141.165,270.247,142.427,270.685,143.732,271.062z"/>
	<path fill="#FFA14B" d="M189.384,162.015c-0.196-0.17-0.398-0.332-0.588-0.508l0,0
		C188.986,161.683,189.188,161.845,189.384,162.015L189.384,162.015z"/>
	<path fill="#FFA14B" d="M164.042,222.582L164.042,222.582c-0.759-1.587-1.48-3.278-2.282-4.905l0,0
		C162.562,219.303,163.284,220.996,164.042,222.582z"/>
	<path fill="#FFA14B" d="M219.155,196.101c-0.488,0.518-0.84,1.138-1.054,1.804l0,0C218.314,197.24,218.667,196.619,219.155,196.101
		z"/>
	<path fill="#FFA14B" d="M226.49,197.116c0.022,0.083,0.055,0.161,0.071,0.248C226.545,197.277,226.513,197.2,226.49,197.116z"/>
	<path fill="#FFA14B" d="M115.642,150.644c0.409,0.683,0.808,1.373,1.19,2.074C116.45,152.017,116.051,151.327,115.642,150.644
		L115.642,150.644z"/>
	<path fill="#FFA14B" d="M342.969,250.217c19.319-0.785-76.442-34.576-73.086-34.955c-0.774,1.151-1.575,2.263-2.401,3.331
		L342.969,250.217z"/>
	<path fill="#FFA14B" d="M242.242,204.222c0.045-0.157,0.094-0.322,0.141-0.481l0,0C242.336,203.9,242.287,204.065,242.242,204.222z
		"/>
	<path fill="#FFA14B" d="M16.704,109.196c-19.232,0.708,72.453,32.974,69.191,33.323c0.796-1.164,1.642-2.261,2.542-3.271
		L16.704,109.196z"/>
	<path fill="#FFA14B" d="M241.295,207.622L241.295,207.622c0.292-1.085,0.604-2.213,0.947-3.4
		C241.899,205.409,241.587,206.537,241.295,207.622z"/>
	<path fill="#FFA14B" d="M213.403,195.937c0.224-0.137,0.445-0.279,0.667-0.42C213.848,195.658,213.626,195.799,213.403,195.937
		L213.403,195.937z"/>
	<path fill="#FFA14B" d="M201.95,191.139L201.95,191.139c1.742-0.65,3.449-1.382,5.111-2.195
		C205.4,189.757,203.693,190.489,201.95,191.139z"/>
	<path fill="#FFA14B" d="M116.832,152.718c0.701,1.284,1.415,2.536,2.139,3.658l0,0
		C118.247,155.254,117.533,154.003,116.832,152.718z"/>
	<g>
		<g>
			<path fill="#164854" d="M142.663,294.702c3.837,1.607,10.974,0.396,15.042,0.753c13.352-0.005,33.229,0.003,46.529-0.001
				c1.198-0.121,16.356,0.335,17.101-0.357c6.486-2.073,4.776-12.317-2.065-12.118c-18.298,0.001-40.661-0.001-58.959,0
				c-2.806-0.026-11.75,0.019-14.675,0C139.293,282.811,137.075,291.887,142.663,294.702z"/>
		</g>
		<g>
			<path fill="#164854" d="M222.901,300.63c-3.971-2.488-17.313-0.629-21.968-1.174c-13.724,0.003-34.428-0.001-48.15,0.001
				c-2.26,0.206-8.535-0.641-10.439,0.947c-4.023,2.296-3.799,8.742,0.319,10.773c1.634,1.15,5.604,0.653,7.514,0.753
				c15.004-0.001,38.167,0,53.165,0c2.842,0.028,12.94-0.02,15.929,0C225.176,312.116,227.79,303.891,222.901,300.63z"/>
		</g>
		<g>
			<path fill="#164854" d="M219.651,318.765c-3.086-4.609-10.863-2.174-15.519-2.75c-2.854-0.005-24.06,0.005-26.295,0
				c-2.753,0.065-26.311-0.142-28.455,0.094c-7.353,1.083-6.392,12.544,1.045,12.38c2.561,0.014,29.824-0.01,31.41,0h32.643
				C219.402,328.606,222.446,322.688,219.651,318.765z"/>
		</g>
		<g>
			<path fill="#164854" d="M181.837,332.609c-1.705,0-27.212,0-29.735,0c14.006,10.402,7.597,18.73,29.735,16.989
				c23.02,1.864,16.539-5.776,30.963-16.989C212.191,332.609,182.399,332.609,181.837,332.609z"/>
		</g>
	</g>
	<g>
		<g>
			<path fill="#F3C352" d="M82.012,196.567c-1.068,1.21-43.329,5.981-40.846,9.926c-1.035,4.605,40.574-6.788,41.772-6.031
				C82.474,199.102,82.178,197.802,82.012,196.567z"/>
		</g>
		<g>
			<path fill="#F3C352" d="M278.599,162.664c1.097-1.212,42.323-5.793,39.908-9.745c0.857-4.557-38.159,6.313-39.453,5.583
				C278.975,159.868,278.829,161.255,278.599,162.664z"/>
		</g>
		<g>
			<path fill="#F3C352" d="M157.116,72.64c1.372-0.223,2.708-0.347,4.004-0.362l-5.729-29.659c-0.21-1.084-1.26-1.795-2.343-1.584
				c-1.085,0.209-1.794,1.259-1.585,2.343L157.116,72.64z"/>
		</g>
		<g>
			<path fill="#F3C352" d="M100.187,293.926c-1.479,2.124,1.88,4.415,3.315,2.241l18.797-27.799
				c-0.94-1.028-1.817-2.111-2.635-3.245L100.187,293.926z"/>
		</g>
		<g>
			<path fill="#F3C352" d="M259.485,65.486c1.482-2.127-1.889-4.413-3.315-2.241l-15.552,22.999c1.089,0.767,2.166,1.557,3.23,2.365
				L259.485,65.486z"/>
		</g>
		<g>
			<path fill="#F3C352" d="M63.376,103.371l28.5,19.271c0.355-1.358,0.774-2.662,1.32-3.936l-27.579-18.649
				C63.493,98.573,61.202,101.947,63.376,103.371z"/>
		</g>
		<g>
			<path fill="#F3C352" d="M296.297,256.042l-39.344-26.604c-0.353,1.321-0.803,2.637-1.329,3.93l38.433,25.988
				C296.17,260.84,298.476,257.467,296.297,256.042z"/>
		</g>
		<g>
			<path fill="#F3C352" d="M297.433,105.133c2.191-1.389-0.037-4.8-2.191-3.347l-25.321,16.572c0.571,1.206,1.096,2.459,1.563,3.758
				L297.433,105.133z"/>
		</g>
		<g>
			<path fill="#F3C352" d="M102.104,228.189c-0.528,1.562-44.232,26.091-40.445,28.858c0.834,4.679,41.301-25.832,42.714-25.562
				C103.588,230.38,102.836,229.28,102.104,228.189z"/>
		</g>
		<g>
			<path fill="#F3C352" d="M235.504,261.112c-0.576,0.544-1.15,1.069-1.718,1.562c-0.14,0.781-0.329,1.542-0.54,2.293l21.163,32.336
				c1.398,2.192,4.798-0.042,3.348-2.191C257.757,295.113,235.504,261.112,235.504,261.112z"/>
		</g>
		<g>
			<path fill="#F3C352" d="M119.303,90.864c1.057-0.805,2.152-1.572,3.261-2.322c-1.433-0.592-17.519-30.731-20.067-27.012
				C98.018,62.29,119.428,89.47,119.303,90.864z"/>
		</g>
		<g>
			<path fill="#F3C352" d="M204.513,71.338l5.747-27.516c0.226-1.082-0.468-2.141-1.549-2.367c-1.084-0.226-2.141,0.468-2.367,1.549
				l-5.923,28.359C201.751,71.272,203.177,71.266,204.513,71.338z"/>
		</g>
		<g>
			<path fill="#F3C352" d="M316.539,206.214l-38.33-8.005c-0.417,1.266-0.873,2.533-1.375,3.799l38.887,8.122
				C318.232,210.705,319.1,206.708,316.539,206.214z"/>
		</g>
		<g>
			<path fill="#F3C352" d="M43.134,153.199l35.878,7.493c0.204-1.33,0.46-2.639,0.766-3.927l-35.826-7.482
				C41.417,148.714,40.587,152.705,43.134,153.199z"/>
		</g>
		<g>
			<path fill="#F3C352" d="M239.801,242.499c3.168-4.352,6.439-9.335,8.155-14.317l0,0c0.59-1.817,0.878-3.193,0.748-4.795
				c16.307-9.869,26.804-32.54,22.368-51.347c-38.791,12.342-26.419,63.776-52.186,87.964
				c-13.923,12.102-35.32-11.603-16.761-20.592c4.658-1.713,7.653,5.397,3.195,7.555c-0.99,0.399-1.989,1.069-2.016,2.105
				c0.914,10.025,15.921,5.221,18.179-2.078l0,0c17.901-31.173,2.865-65.981,47.439-82.119c1.766-6.635,2.068-14.563-2.355-20.261
				c-28.608,12.688-36.909,52.894-69.862,57.214c-4.666-0.169-8.515,3.056-9.087,7.615l0,0c-0.925,3.402-1.223,6.949-1.013,10.475
				c0.143,2.354,0.514,4.698,1.158,6.977c12.578-2.659,28.135-9.775,29.827-24.074c0.5-2.453-0.247-4.853,1.565-6.719
				c1.697-1.887,5.186-2.322,6.809-0.121c2.617,12.514-6.342,25.681-17.089,31.748c-5.676,5.158-20.869,5.289-22.367,10.903
				c-7.112,42.11,37.327,43.988,38.681,19.307C230.807,253.968,235.369,248.316,239.801,242.499z"/>
		</g>
		<g>
			<path fill="#F3C352" d="M186.084,106.554c0.193,2.821,0.67,5.6,1.465,8.239c7.291-3.746,13.6-12.154,12.759-20.585
				c-1.49-4.659,5.482-7.419,7.627-3.045c3.92,13.235-7.616,26.869-19.142,32.06c-4.773,6.19-2.25,16.456,0.008,23.349l0,0
				c1.219,3.187,2.861,6.047,5.344,8.405l0,0c9.171,9.961,25.769,4.829,25.73-8.977c-0.475-6.317-6.245-10.293-9.075-15.654l0,0
				c-3.717-4.676-2.336-12.654,4.815-9.447c2.265,2.516,2.911,6.215,5.616,8.624c7.714-3.177,10.74-16.706,5.737-22.604
				c-2.338-4.14-8.432-3.463-10.474-7.282c-0.167-10.938,14.798-2.387,18.332,2.32l0,0c8.811,10.359,2.374,27.94-8.444,34.289
				c11.931,22.188-19.56,43.212-36.997,25.771l0,0c-0.196-0.17-0.398-0.332-0.588-0.508c-2.437,10.764-3.208,22.518,1.021,32.938
				c7.094-1.326,14.093-3.546,20.368-7.156c8.121-4.237,13.056-12.023,18.494-19.055c10.121-12.757,21.69-24.055,35.805-32.467
				c0.225-26.2-37.454-53.712-61.843-55.465l0.003-0.013C188.153,79.091,185.306,95.154,186.084,106.554z"/>
		</g>
		<g>
			<path fill="#F3C352" d="M119.614,102.531c-1.547,1.975-4.702,4.227-3.724,6.951c1.535,2.063,3.79,3.675,6.083,3.213
				c4.607-0.952,7.847-4.861,11.513-7.465l0,0c8.597-7.334,23.322-3.048,22.01,9.762c-0.321,12.069-10.379,22.874-7.339,35.026
				c3.142,10.364,25.54,9.424,27.818-0.849l0,0c2.598-12.713-0.772-26.304-0.148-38.97c0.232-5.089,0.092-10.251-0.982-15.244
				c-1.835-12.422-12.636-16.899-23.419-11.211C140.349,88.705,128.357,93.755,119.614,102.531z"/>
		</g>
		<g>
			<path fill="#F3C352" d="M178.337,178.352c-0.05-1.5-0.182-2.998-0.401-4.483c-0.542-3.65-1.551-7.419-2.916-10.702l0,0
				c-0.09-0.217-0.174-0.44-0.268-0.654c-26.419,11.183-44.821-10.419-31.677-35.324l0,0c3.251-6.376,8.172-24.837-4.621-14.366
				c-7.571,8.891-21.115,11.053-29.084,1.438c-8.254,3.027-10.429,13.241-9.416,21.064c13.895,5.241,14.987,22.242,27.191,27.652
				c31.423,6.261,27.591,23.86,48.936,29.058c0.055-0.128,0.098-0.263,0.15-0.392l0,0
				C177.906,187.447,178.515,182.858,178.337,178.352z"/>
		</g>
		<g>
			<path fill="#F3C352" d="M178.12,210.821c0.364-10.87-4.604-9.998-12.718-13.34c-9.04-4.759-14.325-14.183-22.723-19.775
				c-10.676-6.331-25.872-5.482-32.333-18.066c-3.656-5.972-6.352-13.422-13.398-16.168c-10.996,10.685-13.489,31.975-2.888,43.714
				c-8.342,7.122,1.711,18.009,7.311,24.299c6.747,8.234,11.336,18.631,19.903,25.358c-3.719,23.31,19.674,40.042,41.261,35.485
				v-0.001c11.97-3.316,16.96-19.999,12.966-30.933c-0.901-1.489-2.73-2.406-4.317-2.683c-11.171-1.378-14.074-13.389-19.261-21.296
				l0,0c-4.159-4.056-10.373-4.617-15.607-6.836l0,0c-3.836-1.456-11.329,0.993-12.847,3.627l0,0
				c-1.001,2.023,0.423,4.339,1.196,6.31c1.596,4.232-3.442,6.63-5.669,2.668c-4.026-6.772-6.816-17.439,3.281-19.653
				c-5.327-2.67-17.623-20.758-3.817-17.608c1.106,0.552,2.043,1.425,2.624,2.517c2.15,8.724,10.789,12.899,18.754,15.052l0,0
				c5.745,1.752,12.161,2.92,16.819,6.922l0,0c1.049,0.922,1.936,2.006,2.719,3.122l0,0c4.581,6.263,5.574,17.637,15.271,17.19
				C176.919,224.443,178.352,217.567,178.12,210.821z M127.305,235.116c8.183-0.987-2.861,18.682,21.83,22.052
				c12.17,1.935,11.097-9.589,17.771-5.764l0,0c3.604,2.638,0.653,7.054-1.937,9.274c-6.459,6.143-16.341,5.363-24.286,3
				c-10.465-3.124-16.68-14.807-15.536-25.249C125.255,237.071,125.936,235.572,127.305,235.116z"/>
		</g>
	</g>
</g>
</svg>
