<?xml version="1.0" encoding="utf-8"?>
<!-- Generator: Adobe Illustrator 24.0.2, SVG Export Plug-In . SVG Version: 6.00 Build 0)  -->
<svg version="1.1" id="Capa_1" xmlns="http://www.w3.org/2000/svg" xmlns:xlink="http://www.w3.org/1999/xlink" x="0px" y="0px"
	 width="158.748px" height="147.857px" viewBox="0 0 158.748 147.857" enable-background="new 0 0 158.748 147.857"
	 xml:space="preserve">
<g>
	<linearGradient id="SVGID_1_" gradientUnits="userSpaceOnUse" x1="79.3739" y1="147.8571" x2="79.3739" y2="-9.094947e-13">
		<stop  offset="0" style="stop-color:#00A18D"/>
		<stop  offset="1" style="stop-color:#164854"/>
	</linearGradient>
	<path fill="url(#SVGID_1_)" d="M158.693,70.343c-2.43,23.968-12.023,44.021-27.748,57.993
		c-14.234,12.646-32.989,19.521-53.074,19.521c-0.911,0-1.821-0.01-2.741-0.041C32.149,146.482-0.15,113.4,0.001,70.855
		c0.021-8.08,1.671-16.511,5.042-25.674c0-0.01,0-0.02,0.01-0.041c0.14-0.893,0.41-1.786,0.811-2.649
		c5.611-12.235,15.054-27.601,38.38-37.879c0.14-0.07,0.291-0.13,0.441-0.19C60.857-1.831,78.692-1.44,94.906,5.515
		c16.315,6.996,28.788,19.722,35.1,35.811c4.431,11.282,3.891,22.342,2.921,30.723c-0.09,0.762-0.25,1.495-0.491,2.198
		c-3.411,17.494-11.313,30.602-23.536,39.012c-10.192,7.016-20.906,8.952-28.108,9.344c-1.13,0.061-2.261,0.091-3.371,0.091
		c-28.777,0-50.424-20.285-52.014-49.351c-0.09-1.656-0.11-3.272-0.06-4.838c0.19-5.721,4.971-10.208,10.663-10.017
		c5.702,0.19,10.173,4.978,9.983,10.699c-0.03,0.984-0.02,2.008,0.04,3.051c1.02,18.769,14.555,30.712,33.64,29.669
		c12.513-0.672,28.367-7.026,32.819-33.423c0.029-0.171,0.06-0.341,0.1-0.512c0.79-8.1,0.23-13.871-1.801-19.05
		c-8.812-22.452-35.54-33.974-58.465-25.242c-15.084,6.704-21.846,15.688-26.357,24.67c-0.01,0.01-0.01,0.02-0.01,0.02
		c-0.08,0.241-0.16,0.472-0.26,0.713c-3.421,8.31-5.021,15.246-5.051,21.84c-0.1,31.555,23.076,55.181,55.124,56.176
		c34.19,1.064,58.646-22.04,62.377-58.856c0.57-5.701,5.661-9.846,11.313-9.264C155.143,59.564,159.274,64.642,158.693,70.343"/>
</g>
</svg>
