<?xml version="1.0" encoding="utf-8"?>
<!-- Generator: Adobe Illustrator 24.0.2, SVG Export Plug-In . SVG Version: 6.00 Build 0)  -->
<svg version="1.1" id="Capa_1" xmlns="http://www.w3.org/2000/svg" xmlns:xlink="http://www.w3.org/1999/xlink" x="0px" y="0px"
	 width="498.468px" height="300px" viewBox="0 0 498.468 300" enable-background="new 0 0 498.468 300" xml:space="preserve">
<g>
	<g>
		<path fill-rule="evenodd" clip-rule="evenodd" fill="#FFFFFF" d="M153.857,206.75c0.767-2.323-0.59-5.212-1.083-7.423
			c-0.103-1.907-0.206-3.815-0.309-5.722c-0.862-2.632-12.334-9.571-15.154-11.289v-0.773c9.638-13.658,19.279-27.321,28.917-40.979
			c2.278-3.377,5.304-9.519,8.35-11.907c0.103,0.103,0.206,0.206,0.309,0.309c3.953,1.175,5.808,5.932,9.897,1.082
			c0.077-4.176-3.441-5.585-6.185-6.804v-0.928c1.611-1.294,3.691-4.025,3.711-6.804c-1.765-3.558-6.551-5.562-9.742-7.732
			c-7.422-5.206-14.846-10.413-22.268-15.618c-1.731-1.266-8.207-7.021-10.979-5.876c-3.16,1.304-6.495,9.762-9.278,12.371
			c-3.505-2.474-7.011-4.949-10.515-7.423c-5.334-3.72-13.087-7.165-16.237-12.99c-1.123-2.076-2.575-5.936-1.856-9.433
			c1.988-9.66,10.464-15.261,6.031-28.453c-2.532-7.534-9.097-11.737-15-15.928c-1.76-1.25-4.154-2.282-5.412-4.021
			C91.429,9.49,82.302,0.032,72.208,0c-1.598,0.309-3.196,0.619-4.794,0.928c-3.84,1.476-7.35,4.958-8.814,8.814
			c-5.981,15.754,12.462,25.437,23.814,17.165c2.943,0.886,5.496,3.898,7.886,5.567c3.367,2.349,6.71,4.284,8.814,7.887
			c5.15,8.815-0.673,14.63-3.402,20.876c-2.298,5.259-2.294,13.445,0,18.711c3.747,8.603,15.055,14.867,22.577,19.948
			c2.303,1.555,5.691,2.993,7.268,5.258c-2.319,3.247-4.639,6.495-6.959,9.742c-3.351,4.803-6.636,9.595-9.897,14.227
			c-2.68,3.866-5.361,7.732-8.041,11.598c-2.59-0.41-9.335-6.408-11.752-8.041c-7.01-4.742-14.021-9.485-21.031-14.227
			c-3.852-2.83-7.379-5.923-12.062-8.041c-9.792-4.43-21.224,1.533-25.67,6.649c-3.35,4.793-6.701,9.588-10.051,14.381
			c-8.491-1.124-13.939,0.097-17.783,5.876c-4.521,6.797-1.919,16.913,3.557,20.721c9.568,6.655,21.191,1.148,23.66-8.505
			c0.348-1.362,1.034-3.519,0.619-5.567c-0.703-3.463-2.237-5.673-3.711-8.196c0.754-2.593,3.479-4.996,4.948-7.113
			c4.014-5.785,9.814-15.328,21.34-11.289c3.243,1.137,5.89,3.476,8.505,5.258c6.266,4.268,12.269,8.945,18.402,13.144
			c5.566,3.814,11.134,7.629,16.701,11.443c-2.368,5.127-6.826,9.217-9.897,13.763c-0.695,1.028-2.851,3.622-1.546,5.412
			c0.817,1.613,2.885,2.395,4.33,3.402c2.165,1.701,4.33,3.402,6.495,5.103c2.24,1.423,5.062,2.421,6.649,4.484
			c-10.72,15.359-21.444,30.723-32.165,46.082c-4.977,7.167-11.656,15.686-6.649,27.835c3.917,9.506,13.291,12.121,19.639,19.02
			c-5.245,19.113,18.654,26.567,27.371,12.835c6.777-10.677-2.022-21.35-11.443-23.041c-5.186-0.931-10.683,3.739-12.062,3.402
			c-2.422-1.855-4.846-3.711-7.268-5.567c-3.195-2.439-6.761-4.479-8.66-8.196c-2.06-4.033-2.061-10.511,0-14.536
			c7.731-11.03,15.465-22.063,23.196-33.092c4.742-6.855,9.485-13.712,14.227-20.567c4.381,3.041,8.763,6.083,13.144,9.124
			c1.244,0.853,3.079,3.23,5.412,2.32c2.632-1.058,4.58-4.983,6.031-7.268h0.155c4.123,2.783,8.248,5.567,12.371,8.35
			c2.667,3.481-1.466,12.43,5.722,12.68C152.454,208.287,153.372,207.813,153.857,206.75z M73.6,22.732
			c-5.037,0.811-9.95-4.419-8.041-9.897c1.248-3.582,3.454-3.953,7.113-5.258C82.669,8.174,82.868,21.24,73.6,22.732z M15.765,153.4
			c-4.742,0.911-9.538-3.951-8.35-8.969c0.854-3.609,3.098-4.755,6.186-6.185C24.815,137.883,25.292,151.571,15.765,153.4z
			 M90.301,274.636c1.139-3.022,3.299-3.598,6.186-4.948c10.729-0.334,11.12,13.417,2.165,15.154
			C93.111,285.917,88.242,280.099,90.301,274.636z M128.496,182.163c-1.029,1.527-1.838,3.669-3.402,4.639
			c-4.793-3.402-9.588-6.804-14.381-10.206c-2.972-1.996-5.963-3.488-8.814-5.567c-2.094-1.526-6.537-5.75-9.124-6.185
			c-0.052-0.309-0.103-0.619-0.155-0.928c2.268-3.247,4.536-6.495,6.804-9.742c4.832-6.688,9.524-13.413,14.227-20.412
			c8.908-13.258,18.46-26.293,27.835-39.278c3.784,1.055,7.395,5.148,10.515,7.268c7.319,5.103,14.64,10.207,21.958,15.309
			c-11.442,16.39-22.888,32.785-34.33,49.175C136.001,171.596,132.055,176.885,128.496,182.163z M317.772,85.978
			c6.006-1.102,1.648-7.58,0-10.051c-4.367-6.548-14.135-15.787-8.66-26.598c1.263-2.494,2.544-4.714,4.948-6.031
			c1.701,0.928,3.402,1.856,5.103,2.783c7.233,2.391,14.322-1.331,17.165-5.412c7.554-10.843-0.397-24.403-13.453-24.278
			c-1.649,0.412-3.299,0.825-4.948,1.237c-4.21,1.849-7.648,5.945-8.814,10.825c-0.692,2.896,0.952,6.631,0.464,8.505
			c-0.876,0.773-1.753,1.546-2.629,2.32c-2.038,2.032-4.023,4.64-5.258,7.423c-5.629,12.685,2.22,22.128,7.268,29.69
			C310.455,78.633,314.113,86.65,317.772,85.978z M316.69,29.381c1.194-3.418,3.403-3.976,6.649-5.412
			c10.365-0.224,10.874,13.73,1.392,15.309C319.858,40.089,314.832,34.699,316.69,29.381z M398.184,41.288
			c0.114-3.889-3.727-9.488-7.268-9.588c-1.659,0.744-2.318,1.058-3.247,2.474C387.172,39.439,393.352,47.251,398.184,41.288z
			 M469.627,188.503c-3.092,2.01-6.186,4.021-9.278,6.031c-10.102,7.01-20.207,14.021-30.309,21.031
			c-3.554,2.367-7.551,6.735-14.381,5.567c-9.156-1.566-12.474-8.268-16.856-14.536c-6.906-9.277-13.815-18.557-20.721-27.835
			c0.983-1.589,3.351-2.74,4.948-3.711c1.446,1.087,2.35,2.837,3.402,4.33c3.244,4.606,7.274,10.692,11.907,13.917
			c2.184,1.52,4.863,2.613,7.577,3.557c13.092,4.551,25.705-8.002,32.938-12.835c1.695-1.133,3.427-3.348,5.722-3.711
			c3.478,3.041,10.53,2.851,14.691,0.773c8.59-4.289,11.569-15.414,4.639-23.814c-7.445-9.025-22.143-4.217-25.515,5.103
			c-0.732,2.022-1.283,5.82-0.619,8.505c0.302,1.22,1.299,2.583,1.082,3.866c-7.693,3.355-13.08,11.13-21.031,14.227
			c-12.365,4.816-18.396-5.401-23.196-11.752c-1.752-2.165-3.505-4.33-5.258-6.495c1.46-1.766,4.707-2.345,5.258-4.948
			c0.576-2.725-4.378-7.812-5.567-9.588c-5.927-8.556-11.856-17.114-17.783-25.67c0.103-0.155,0.206-0.309,0.309-0.464
			c2.629-1.855,5.258-3.711,7.887-5.567c6.7-4.639,13.403-9.279,20.103-13.917c2.567-1.357,7.994-1.792,11.134-0.619
			c5.969,2.23,7.524,6.865,11.907,10.361c3.182,2.538,6.266,3.949,10.979,5.103c2.909,0.712,7.67,0.705,10.515-0.155
			c1.959-0.876,3.918-1.753,5.876-2.629c8.442,5.054,17.92,2.893,22.422-4.484c3.591-5.884,1.612-15.322-2.783-18.866
			c-8.593-6.928-20.261-3.938-24.433,5.103c-0.808,1.752-1.605,5.055-1.082,7.732l1.082,4.33c-0.35,0.926-3.735,1.634-4.794,1.856
			c-9.718,2.032-13.442-5.381-17.629-9.588c-3.374-3.39-7.229-5.23-12.835-6.495c-1.504-0.339-4.209-0.849-6.34-0.464
			c-7.952,1.439-12.467,5.197-17.629,9.278c-3.562,2.816-7.708,4.9-11.443,7.423c-2.354,1.59-4.967,4.655-7.887,5.412
			c-1.752-2.454-6.499-7.69-7.113-10.515c10.257-7.886,20.516-15.774,30.773-23.66c6.08-4.364,13.469-8.747,17.165-15.464
			c3.542-6.438,3.85-25.939-5.567-25.824c-5.854,3.471-0.62,7.217,0.464,12.216c1.034,4.769-1.033,9.509-2.938,12.062
			c-3.166,4.243-8.789,7.458-13.144,10.515c-10.36,7.989-20.722,15.98-31.082,23.969c-3.556-4.896-7.114-9.794-10.67-14.691
			c-1.366-2.021-2.775-5.869-5.567-6.34c-2.695-0.455-8.349,4.919-10.206,6.185c-7.768,5.296-15.332,10.848-23.041,16.082
			c-2.422,1.645-6.784,3.439-8.35,5.876c-1.937,3.014,1.91,6.142,3.093,8.196c-0.052,0.155-0.103,0.309-0.155,0.464
			c-3.659,2.68-7.32,5.361-10.979,8.041c-1.812,0.454-6.486-2.608-7.886-3.247c-7.68-3.505-15.361-7.011-23.041-10.515
			c-9.741-0.773-19.485-1.546-29.227-2.32c-11.492-1.879-24.012-1.399-29.536,5.258c-1.543,1.86-2.481,4.178-3.093,6.959
			c-2.554,11.6,4.971,18.935,13.917,21.185c3.969,0.515,7.938,1.031,11.907,1.546c6.763,1.256,14.495,2.43,20.876,3.866
			c3.525,0.793,9.17,2.269,10.206-1.392c0.246-0.869,0.158-1.902-0.309-2.474c-1.269-2.529-7.29-2.315-10.361-3.093
			c-8.766-2.221-31.667-3.142-36.494-7.732c-2.036-1.936-4.726-5.919-3.402-10.515c2.59-8.988,13.894-8.797,24.278-6.959
			c4.329,0.258,8.66,0.516,12.99,0.773c5.206,0.412,10.413,0.825,15.618,1.237c6.34,2.835,12.681,5.67,19.02,8.505
			c2.735,1.193,12.148,7.077,15.309,6.34c3.077-0.717,11.396-7.799,14.381-9.897c1.664,1.346,2.625,3.635,3.866,5.412
			c2.942,4.214,5.841,8.369,8.814,12.68c6.098,8.844,12.39,17.665,18.557,26.598c2.062,2.886,4.124,5.773,6.185,8.66
			c-0.052,0.103-0.103,0.206-0.155,0.309c-4.639,3.402-9.279,6.804-13.917,10.206c-1.153,1.722-2.295,11.867-1.856,13.608
			c1.269,0.972,3.404,2.495,5.258,0.773c2.487-2.311,0.801-7.763,2.784-10.67c3.917-2.835,7.835-5.67,11.752-8.505
			c0.155,0.103,0.309,0.206,0.464,0.309c0.837,1.973,3.749,6.649,5.876,7.268c2.602,0.756,4.734-2.033,6.031-2.938
			c4.536-3.041,9.073-6.083,13.608-9.124c0.103,0.052,0.206,0.103,0.309,0.155c3.299,4.432,6.598,8.866,9.897,13.299
			c3.998,5.703,8.015,11.351,12.371,16.701c3.853,4.732,6.301,9.51,11.752,12.68c3.29,1.913,9.26,3.7,14.691,2.629
			c10.984-2.167,21.9-12.694,30.309-18.402c6.009-4.079,11.845-8.338,17.783-12.371c1.99-1.352,5.01-2.382,5.412-5.258
			C474.563,190.393,472.109,187.834,469.627,188.503z M445.349,165.308c1.071-3.045,3.241-3.739,5.876-5.258
			c11.181-0.364,11.695,13.077,2.629,15.154C448.587,176.412,443.449,170.705,445.349,165.308z M452.153,107.473
			c1.501-3.263,3.5-3.351,7.113-4.639c9.711,0.602,9.949,13.617,0.773,15.154C454.34,118.943,449.809,112.568,452.153,107.473z
			 M353.958,186.802c-0.258-0.206-0.516-0.412-0.773-0.619c-2.129-5.34-7.23-9.895-10.361-14.536
			c-8.737-12.951-17.59-25.442-26.288-38.35c-2.886-4.123-5.773-8.248-8.66-12.371c-0.86-1.288-2.218-2.296-2.629-4.021
			c10.617-7.473,21.238-14.949,31.855-22.422c1.754,0.413,2.662,2.992,3.557,4.33c2.938,4.226,5.877,8.454,8.814,12.68
			c12.267,17.421,24.537,34.847,36.804,52.268c-0.697,2.605-5.951,4.612-8.041,6.031
			C370.144,175.461,362.05,181.133,353.958,186.802z M46.384,88.143c4.178,0.326,7.675-2.037,10.051-3.711
			c11.184,8.298,22.372,16.599,33.556,24.897c2.015,1.513,8.766,8.358,12.062,7.113c7.486-2.804-2.602-9.485-4.639-10.979
			C85.25,96.34,73.083,87.215,60.919,78.092c2.005-11.618-3.236-20.358-15-20.412c-1.443,0.258-2.887,0.516-4.33,0.773
			c-3.786,1.348-7.394,4.63-8.969,8.196C27.685,77.825,36.461,87.37,46.384,88.143z M39.579,69.742
			c1.278-2.687,3.296-3.327,6.186-4.484c10.631-0.277,11.008,13.761,1.237,15.309C41.649,81.414,37.182,74.782,39.579,69.742z
			 M361.071,158.658c-1.028,0.706-2.412,1.129-3.093,2.165c-2.806,4.27,1.162,9.896,6.185,8.505
			C370.175,167.664,369.299,158.315,361.071,158.658z M115.661,160.514c-1.477,0.846-3.172,1.512-3.866,3.093
			c-1.626,3.704,1.427,8.799,5.722,7.887C124.125,170.089,123.796,160.181,115.661,160.514z M311.123,204.895
			c-10.308-7.216-20.619-14.434-30.927-21.649c-7.937-5.566-15.877-11.134-23.814-16.701c-2.921-1.98-6.091-5.888-10.515-6.031
			c-0.893,0.744-1.554,1.3-2.32,2.165c-0.041,1.349-0.192,2.301,0.464,3.247c4.587,3.196,9.176,6.392,13.763,9.588
			c15.72,11.081,31.445,22.166,47.164,33.247c4.373,3.048,17.433,8.962,15.773,17.01c-1.107,5.364-7.471,10.673-13.917,6.959
			c-9.02-6.391-18.042-12.784-27.062-19.175c-3.553-2.427-7.301-7.354-12.526-7.268c-0.638,0.735-1.352,1.411-2.01,2.165
			c0.052,5.228,6.031,6.809,9.124,9.124c9.706,7.265,19.664,14.666,29.69,21.495c4.202,2.862,13.106,7.568,8.66,15.773
			c-1.752,3.234-6.298,6.329-11.443,4.639c-3.362-1.104-6.22-4.268-8.969-6.185c-7.319-5.103-14.64-10.207-21.958-15.309
			c-1.791-1.248-7.66-6.549-9.897-6.031c-1.367,0.177-2.176,0.775-2.629,1.856c-1.802,3.886,6.636,8.059,9.124,9.742
			c8.453,6.082,16.908,12.165,25.361,18.247c2.92,1.996,8.01,4.854,6.804,10.67c-1.089,5.25-6.377,10.238-13.299,7.423
			c-1.855-1.443-3.711-2.887-5.567-4.33c-3.877-2.854-7.495-5.927-11.289-8.814c-1.591-1.211-6.831-6.547-9.433-3.402
			c-2.625,3.172,1.216,5.486,2.938,7.113c3.74,3.534,13.282,8.774,9.433,17.01c-1.949,4.17-8.631,7.537-13.917,4.021
			c-1.855-1.392-3.711-2.784-5.567-4.175c-2.441-0.682-4.523,1.695-4.175,3.866c0.363,2.264,2.782,3.195,4.33,4.33
			c6.91,5.066,16.544,5.96,22.577-0.928c1.348-1.539,4.206-9.21,4.794-9.588c1.743-0.599,3.542,1.247,4.948,1.701
			c3.406,1.1,8.467,0.706,11.289-0.619c4.412-2.071,7.998-5.962,9.278-11.134c0.48-1.94-0.555-6.724,0.155-7.887
			c0.509-0.834,5.776-1.906,6.959-2.629c3.764-2.301,6.699-6.284,7.732-11.289c1.111-5.387-3.48-12.109-3.093-13.299
			c1.855-1.34,3.711-2.68,5.567-4.021c4.182-4.226,6.343-13.319,2.474-19.639C322.128,211.173,315.945,208.172,311.123,204.895z
			 M80.868,187.266c0.061-4.742-3.485-5.706-6.495-7.732c-5.672-3.819-10.348-7.933-20.103-7.886
			c-2.062,0.464-4.124,0.928-6.186,1.392c-6.087,2.541-9.194,6.345-12.835,11.289c-2.437,3.309-5.839,7.3,0.309,9.588
			c4.204-0.49,5.762-5.379,7.732-8.196c2.335-3.338,6.206-5.421,10.979-6.34c7.454-1.435,13.064,4.242,17.474,7.268
			C75.321,189.102,77.103,191.673,80.868,187.266z M493.75,171.648c-1.853,1.281-13.662,7.369-6.804,11.134
			c2.626,1.441,9.75-3.461,10.825-5.103C499.779,174.609,497.144,171.543,493.75,171.648z M247.258,265.049
			c-1.707-3.448-4.69-5.048-7.268-7.577v-1.082c7.219-5.397,9.629-17.405,2.32-24.742c-2.749-2.759-7.614-3.179-9.897-5.412
			c0.561-12.171-3.025-18.346-13.917-20.412c-2.319,0.103-4.639,0.206-6.959,0.309c-2.612-9.29-5.563-16.482-17.319-16.392
			c-2.252,0.885-4.559,0.733-6.495,1.701c-7.164,5.103-14.33,10.207-21.495,15.309c-3.418,2.62-8.306,4.572-10.67,8.196
			c-1.869,2.865-4.199,7.706-2.938,12.99c0.978,4.099,3.471,7.801,6.495,9.897c1.158,0.803,2.736,1.023,3.402,2.32
			c0.266,1.58-2.624,6.573-3.093,9.433c-1.111,6.776,4.722,13.514,8.66,15.464c1.851,0.917,4.523,1.033,6.185,2.165v6.804
			c1.544,7.53,8.428,15.505,18.866,13.299c2.216-0.825,4.433-1.65,6.649-2.474c1.398,1.454,1.371,3.924,2.32,5.876
			c2.128,4.379,6.366,7.874,11.752,8.969c8.342,1.696,13.94-3.914,18.093-7.268C238.995,286.729,254.604,279.884,247.258,265.049z
			 M162.671,232.111c-3.76-2.891-4.657-9.821-1.237-13.763c2.474-1.752,4.949-3.505,7.423-5.258
			c8.132-5.657,15.616-11.377,24.433-16.546c7.947-0.125,14.478,6.612,9.897,14.072c-2.169,3.532-6.563,4.883-9.588,7.577
			c-2.333,2.078-5.128,3.597-7.732,5.412c-4.175,3.041-8.351,6.083-12.526,9.124C170.25,234.617,165.209,234.063,162.671,232.111z
			 M168.238,256.698c-3.016-3.999-2.182-10.515,1.392-13.299c8.04-5.566,16.083-11.134,24.123-16.701
			c7.278-5.014,13.49-10.487,22.113-14.227c8.098-0.075,13.787,8.844,8.35,15.309c-3.155,3.752-11.559,8.347-15.928,11.289
			c-9.226,6.546-18.454,13.093-27.68,19.639C176.577,261.176,170.58,259.804,168.238,256.698z M195.763,279.121
			c-4.076,2.661-10.216,1.636-12.835-1.701c-3.622-4.613-1.572-11.354,2.32-14.072c9.947-6.855,19.898-13.712,29.845-20.567
			c3.608-2.629,7.217-5.258,10.825-7.886c1.185-0.412,2.371-0.825,3.557-1.237c8.056-0.108,14.015,7.545,9.124,14.691
			c-2.954,4.315-9.707,6.959-14.072,9.897C214.939,265.203,205.35,272.163,195.763,279.121z M241.536,275.719
			c-1.337,3.196-18.13,15.724-21.804,17.01c-3.472,1.215-7.463-0.336-9.278-1.856c-3.124-2.615-4.045-8.869-1.392-12.68
			c1.825-2.621,5.32-3.803,7.887-5.722c3.852-2.88,8.122-7.077,12.526-9.124c1.082-0.206,2.165-0.412,3.247-0.619
			C238.658,263.246,244.465,268.718,241.536,275.719z M370.04,198.245c-1.362,1.152-3.33,2.704-2.165,5.412
			c0.773,1.031,1.546,2.062,2.32,3.093c3.718,5.56,8.977,11.073,11.134,17.783c1.427,4.437-0.305,11.899-2.938,13.453
			c-1.756,0.227-6.253-3.585-11.134-2.474c-10.781,2.453-17.804,15.126-9.278,25.051c7.813,9.095,22.492,5.068,25.979-5.103
			c0.587-1.712,1.117-4.861,0.619-7.268c-0.361-1.34-0.722-2.681-1.082-4.021c1.34-2.816,3.642-5.052,4.794-8.35
			c4.344-12.441-3.849-21.235-8.505-28.144C377.509,204.305,375.677,198.18,370.04,198.245z M371.122,258.09
			c-6.358,1.671-11.12-5.412-8.66-10.67c1.271-2.717,3.391-3.079,6.031-4.484C378.732,242.625,379.443,255.903,371.122,258.09z
			 M25.817,199.946c-2.08,0.951-7.467,5.833-6.031,9.278c2.58,7.058,11.274-1.956,9.742-7.577
			C28.405,200.777,27.828,200.022,25.817,199.946z"/>
	</g>
</g>
</svg>
