<?xml version="1.0" encoding="utf-8"?>
<!-- Generator: Adobe Illustrator 24.0.2, SVG Export Plug-In . SVG Version: 6.00 Build 0)  -->
<svg version="1.1" id="Capa_1" xmlns="http://www.w3.org/2000/svg" xmlns:xlink="http://www.w3.org/1999/xlink" x="0px" y="0px"
	 width="380.75px" height="292.092px" viewBox="0 0 380.75 292.092" enable-background="new 0 0 380.75 292.092"
	 xml:space="preserve">
<g>
	<path fill="#F3C352" d="M2,188.375c-1.104,0-2,0.896-2,2s0.896,2,2,2h76.827c-0.048-1.329-0.075-2.662-0.079-4H2z"/>
	<path fill="#F3C352" d="M378.751,188.375h-65.948c-0.141,1.342-0.301,2.675-0.474,4h66.421c1.104,0,2-0.896,2-2
		S379.855,188.375,378.751,188.375z"/>
	<path fill="#F3C352" d="M192.375,2c0-1.104-0.896-2-2-2s-2,0.896-2,2v80.349c1.337,0.101,2.67,0.237,4,0.392V2z"/>
	<path fill="#F3C352" d="M324.991,58.588c0.781-0.781,0.781-2.047,0-2.828s-2.047-0.781-2.828,0l-63.377,63.377
		c0.841,1.049,1.649,2.126,2.446,3.21L324.991,58.588z"/>
	<path fill="#F3C352" d="M58.588,55.759c-0.781-0.781-2.048-0.781-2.828,0c-0.781,0.781-0.781,2.047,0,2.828l53.821,53.821
		c0.926-0.93,1.893-1.853,2.885-2.771L58.588,55.759z"/>
	<path fill="#F3C352" d="M365.459,120.839c1.022-0.418,1.512-1.586,1.093-2.608c-0.417-1.022-1.584-1.511-2.608-1.093
		l-87.827,35.965c0.339,1.326,0.642,2.643,0.907,3.951L365.459,120.839z"/>
	<path fill="#F3C352" d="M15.293,259.911c-1.022,0.418-1.512,1.586-1.093,2.608c0.317,0.774,1.063,1.243,1.852,1.243
		c0.252,0,0.509-0.049,0.757-0.15l71.459-29.263c-0.532-1.221-1.047-2.451-1.536-3.693L15.293,259.911z"/>
	<path fill="#F3C352" d="M120.839,15.292c-0.419-1.023-1.586-1.513-2.608-1.093c-1.022,0.418-1.512,1.586-1.093,2.608l29.281,71.503
		c1.253-0.468,2.51-0.918,3.776-1.334L120.839,15.292z"/>
	<path fill="#F3C352" d="M265.009,17.404c0.427-1.019-0.053-2.191-1.072-2.618c-1.016-0.428-2.19,0.053-2.617,1.072l-32.798,78.288
		c1.188,0.635,2.354,1.298,3.509,1.976L265.009,17.404z"/>
	<path fill="#F3C352" d="M363.347,265.008c0.252,0.105,0.514,0.156,0.771,0.156c0.782,0,1.524-0.462,1.846-1.229
		c0.427-1.019-0.053-2.19-1.072-2.617l-64.471-27.009c-0.567,1.213-1.147,2.417-1.748,3.604L363.347,265.008z"/>
	<path fill="#F3C352" d="M87.571,145.138l-70.168-29.396c-1.019-0.428-2.19,0.054-2.618,1.072c-0.427,1.019,0.053,2.191,1.072,2.618
		l70.349,29.472c0.338-1.274,0.786-2.519,1.339-3.711C87.554,145.175,87.563,145.156,87.571,145.138z"/>
	<path fill="#FFA14B" d="M306.956,169.891l28.713-5.547c1.085-0.209,1.794-1.259,1.585-2.343c-0.21-1.085-1.265-1.795-2.343-1.584
		l-31.738,6.131C304.556,167.525,305.824,168.646,306.956,169.891z"/>
	<path fill="#FFA14B" d="M45.082,216.406c-1.084,0.209-1.794,1.259-1.584,2.343c0.185,0.957,1.022,1.621,1.961,1.621
		c0.126,0,0.254-0.012,0.382-0.036l35.651-6.887c-0.286-1.3-0.554-2.606-0.796-3.92L45.082,216.406z"/>
	<path fill="#FFA14B" d="M164.345,45.082c-0.21-1.085-1.264-1.792-2.343-1.584c-1.084,0.209-1.794,1.259-1.584,2.343l7.172,37.124
		c1.324-0.18,2.653-0.336,3.985-0.461L164.345,45.082z"/>
	<path fill="#FFA14B" d="M274.707,69.23c0.618-0.915,0.378-2.158-0.537-2.777c-0.913-0.619-2.158-0.378-2.777,0.537l-26.019,38.479
		c1.034,0.863,2.037,1.756,3.031,2.659L274.707,69.23z"/>
	<path fill="#FFA14B" d="M311.52,274.707c0.343,0.231,0.732,0.343,1.118,0.343c0.642,0,1.272-0.308,1.659-0.88
		c0.618-0.915,0.378-2.158-0.537-2.777l-25.152-17.008c-0.787,1.08-1.588,2.149-2.41,3.2L311.52,274.707z"/>
	<path fill="#FFA14B" d="M69.231,106.044c-0.914-0.619-2.158-0.378-2.777,0.537s-0.378,2.158,0.537,2.777l29.218,19.757
		c0.708-1.105,1.452-2.214,2.224-3.324L69.231,106.044z"/>
	<path fill="#FFA14B" d="M65.784,269.525c-0.924,0.605-1.183,1.845-0.578,2.77c0.384,0.586,1.023,0.904,1.675,0.904
		c0.375,0,0.755-0.105,1.093-0.326l30.569-20.006c-0.757-1.099-1.49-2.213-2.206-3.338L65.784,269.525z"/>
	<path fill="#FFA14B" d="M314.968,111.225c0.924-0.605,1.183-1.844,0.578-2.769c-0.604-0.924-1.844-1.182-2.77-0.578l-43.131,28.228
		c0.602,1.201,1.192,2.409,1.745,3.639L314.968,111.225z"/>
	<path fill="#FFA14B" d="M111.225,65.783c-0.605-0.924-1.843-1.184-2.769-0.578c-0.924,0.605-1.183,1.844-0.578,2.769l19.681,30.073
		c1.108-0.705,2.248-1.399,3.415-2.086L111.225,65.783z"/>
	<path fill="#FFA14B" d="M222.508,46.308c0.226-1.081-0.468-2.141-1.549-2.366c-1.084-0.227-2.141,0.468-2.367,1.549l-8.555,40.959
		c1.28,0.392,2.556,0.808,3.825,1.252L222.508,46.308z"/>
	<path fill="#FFA14B" d="M334.442,222.507c0.139,0.028,0.275,0.042,0.411,0.042c0.927,0,1.759-0.647,1.956-1.591
		c0.226-1.082-0.468-2.142-1.549-2.367l-27.025-5.644c-0.355,1.296-0.732,2.578-1.121,3.853L334.442,222.507z"/>
	<path fill="#FFA14B" d="M46.308,158.243c-1.08-0.222-2.141,0.469-2.366,1.549c-0.226,1.081,0.467,2.141,1.549,2.367l35.03,7.316
		c0.247-1.297,0.526-2.602,0.826-3.914L46.308,158.243z"/>
	<g>
		
			<linearGradient id="SVGID_1_" gradientUnits="userSpaceOnUse" x1="195.6737" y1="290.092" x2="195.6737" y2="88.6801" gradientTransform="matrix(1 0 0 1 0 2)">
			<stop  offset="0" style="stop-color:#00A18D"/>
			<stop  offset="1" style="stop-color:#164854"/>
		</linearGradient>
		<path fill="url(#SVGID_1_)" d="M303.724,186.502c-3.322,32.648-16.378,59.966-37.798,78.998
			c-19.39,17.227-44.938,26.592-72.298,26.592c-1.241,0-2.48-0.014-3.734-0.055c-58.551-1.818-102.548-46.882-102.344-104.838
			c0.028-11.007,2.276-22.491,6.868-34.974c0-0.014,0-0.027,0.013-0.055c0.191-1.217,0.559-2.433,1.104-3.609
			c7.644-16.666,20.506-37.598,52.281-51.599c0.191-0.095,0.395-0.177,0.6-0.259c22.033-8.517,46.328-7.984,68.414,1.49
			c22.224,9.529,39.216,26.866,47.813,48.783c6.036,15.368,5.3,30.434,3.979,41.851c-0.123,1.039-0.34,2.037-0.668,2.994
			c-4.647,23.83-15.41,41.686-32.061,53.143c-13.884,9.557-28.478,12.195-38.289,12.729c-1.539,0.083-3.08,0.124-4.591,0.124
			c-39.201,0-68.688-27.632-70.854-67.227c-0.122-2.257-0.149-4.457-0.081-6.59c0.258-7.793,6.771-13.906,14.524-13.645
			c7.767,0.259,13.858,6.781,13.599,14.574c-0.041,1.34-0.027,2.735,0.054,4.156c1.39,25.567,19.826,41.837,45.824,40.415
			c17.046-0.916,38.642-9.571,44.706-45.529c0.04-0.232,0.081-0.465,0.136-0.697c1.076-11.034,0.313-18.895-2.453-25.95
			c-12.004-30.585-48.413-46.28-79.642-34.385c-20.548,9.133-29.759,21.37-35.904,33.606c-0.014,0.013-0.014,0.027-0.014,0.027
			c-0.109,0.329-0.218,0.643-0.354,0.971c-4.661,11.319-6.84,20.768-6.881,29.751c-0.136,42.985,31.434,75.168,75.091,76.523
			c46.574,1.449,79.889-30.024,84.971-80.173c0.777-7.766,7.711-13.413,15.41-12.619
			C298.887,171.819,304.514,178.737,303.724,186.502z"/>
	</g>
</g>
</svg>
