<?xml version="1.0" encoding="utf-8"?>
<!-- Generator: Adobe Illustrator 24.0.2, SVG Export Plug-In . SVG Version: 6.00 Build 0)  -->
<svg version="1.1" id="Capa_1" xmlns="http://www.w3.org/2000/svg" xmlns:xlink="http://www.w3.org/1999/xlink" x="0px" y="0px"
	 width="391.818px" height="335.024px" viewBox="0 0 391.818 335.024" enable-background="new 0 0 391.818 335.024"
	 xml:space="preserve">
<g>
	<path fill="#00A18D" d="M2,193.909c-1.104,0-2,0.896-2,2s0.896,2,2,2h82.389v-4H2z"/>
	<path fill="#00A18D" d="M389.818,193.909h-82.389v4h82.389c1.104,0,2-0.896,2-2S390.923,193.909,389.818,193.909z"/>
	<path fill="#00A18D" d="M197.909,2c0-1.104-0.896-2-2-2s-2,0.896-2,2v92.221h4V2z"/>
	<path fill="#00A18D" d="M57.381,331.609c-0.781,0.781-0.781,2.047,0,2.829c0.391,0.391,0.902,0.586,1.414,0.586
		s1.023-0.195,1.414-0.586l53.929-53.929c-1.392-0.458-2.752-0.987-4.078-1.579L57.381,331.609z"/>
	<path fill="#00A18D" d="M334.438,60.209c0.781-0.781,0.781-2.047,0-2.829c-0.781-0.781-2.047-0.781-2.828,0l-43.836,43.836
		c1.126,0.736,2.22,1.53,3.282,2.375L334.438,60.209z"/>
	<path fill="#00A18D" d="M60.209,57.38c-0.781-0.781-2.047-0.781-2.828,0s-0.781,2.047,0,2.829l43.4,43.4
		c1.057-0.84,2.152-1.631,3.286-2.371L60.209,57.38z"/>
	<path fill="#00A18D" d="M331.61,334.438c0.391,0.391,0.902,0.586,1.414,0.586s1.023-0.195,1.414-0.586
		c0.781-0.781,0.781-2.047,0-2.829l-52.68-52.68c-1.326,0.592-2.686,1.121-4.078,1.579L331.61,334.438z"/>
	<path fill="#00A18D" d="M376.113,124.276c1.022-0.418,1.512-1.586,1.093-2.608c-0.417-1.021-1.581-1.513-2.608-1.093L307.43,148.08
		v4.322L376.113,124.276z"/>
	<path fill="#00A18D" d="M84.389,239.417l-68.684,28.126c-1.022,0.419-1.512,1.587-1.093,2.608c0.316,0.774,1.063,1.243,1.852,1.243
		c0.252,0,0.509-0.048,0.757-0.15l67.377-27.591c-0.135-1.391-0.209-2.8-0.209-4.226V239.417z"/>
	<path fill="#00A18D" d="M124.276,15.706c-0.417-1.021-1.582-1.513-2.608-1.093c-1.022,0.418-1.512,1.586-1.093,2.609l31.532,77
		h4.322L124.276,15.706z"/>
	<path fill="#00A18D" d="M272.681,17.834c0.427-1.019-0.053-2.19-1.072-2.617c-1.017-0.427-2.19,0.053-2.617,1.072l-32.649,77.933
		h4.337L272.681,17.834z"/>
	<path fill="#00A18D" d="M17.833,119.138c-1.019-0.427-2.189,0.053-2.617,1.072c-0.427,1.019,0.053,2.191,1.072,2.618l68.101,28.53
		v-4.337L17.833,119.138z"/>
	<path fill="#00A18D" d="M373.985,272.68c0.252,0.106,0.514,0.156,0.771,0.156c0.782,0,1.524-0.462,1.846-1.228
		c0.427-1.019-0.053-2.191-1.072-2.618l-68.126-28.541c-0.033,1.421-0.134,2.826-0.302,4.21L373.985,272.68z"/>
	<path fill="#F3C352" d="M345.459,169.056c1.085-0.209,1.794-1.258,1.585-2.343c-0.21-1.084-1.263-1.795-2.343-1.584l-37.271,7.2
		v4.074L345.459,169.056z"/>
	<path fill="#F3C352" d="M46.36,222.763c-1.085,0.209-1.794,1.258-1.585,2.343c0.185,0.956,1.022,1.621,1.962,1.621
		c0.126,0,0.253-0.012,0.381-0.037l37.271-7.2v-4.074L46.36,222.763z"/>
	<path fill="#F3C352" d="M169.056,46.359c-0.209-1.085-1.268-1.796-2.343-1.584c-1.085,0.209-1.794,1.258-1.585,2.343l9.1,47.104
		h4.074L169.056,46.359z"/>
	<path fill="#F3C352" d="M267.015,94.323l15.654-23.15c0.618-0.915,0.378-2.159-0.537-2.777c-0.913-0.619-2.157-0.379-2.777,0.536
		l-17.1,25.289h1.925C265.131,94.221,266.074,94.263,267.015,94.323z"/>
	<path fill="#F3C352" d="M109.149,320.646c-0.618,0.915-0.378,2.159,0.537,2.777c0.343,0.232,0.732,0.344,1.118,0.344
		c0.642,0,1.272-0.309,1.659-0.88l27.188-40.208h-4.83L109.149,320.646z"/>
	<path fill="#F3C352" d="M71.173,109.149c-0.912-0.619-2.158-0.378-2.777,0.537c-0.618,0.915-0.378,2.158,0.537,2.777l17.512,11.842
		c0.421-1.313,0.9-2.6,1.44-3.855L71.173,109.149z"/>
	<path fill="#F3C352" d="M320.646,282.669c0.343,0.232,0.732,0.343,1.118,0.343c0.642,0,1.272-0.308,1.659-0.88
		c0.618-0.915,0.378-2.158-0.537-2.777l-23.002-15.554c-0.755,1.104-1.558,2.172-2.41,3.199L320.646,282.669z"/>
	<path fill="#F3C352" d="M324.129,114.385c0.924-0.605,1.183-1.845,0.578-2.769s-1.846-1.183-2.769-0.578l-17.236,11.281
		c0.483,1.295,0.904,2.615,1.261,3.955L324.129,114.385z"/>
	<path fill="#F3C352" d="M67.69,277.433c-0.924,0.605-1.183,1.845-0.578,2.769c0.384,0.586,1.023,0.905,1.676,0.905
		c0.376,0,0.756-0.105,1.093-0.327l23.302-15.25c-0.806-1.061-1.562-2.162-2.269-3.296L67.69,277.433z"/>
	<path fill="#F3C352" d="M277.433,324.128c0.384,0.587,1.023,0.905,1.676,0.905c0.376,0,0.756-0.105,1.094-0.327
		c0.924-0.605,1.183-1.844,0.578-2.769l-25.694-39.26h-4.781L277.433,324.128z"/>
	<path fill="#F3C352" d="M131.749,94.221L114.385,67.69c-0.604-0.925-1.843-1.183-2.77-0.579c-0.924,0.605-1.183,1.844-0.578,2.769
		l15.941,24.357c0.221-0.003,0.439-0.017,0.661-0.017h4.11V94.221z"/>
	<path fill="#F3C352" d="M228.928,47.598c0.226-1.081-0.468-2.141-1.549-2.367c-1.085-0.226-2.141,0.467-2.367,1.549l-9.908,47.441
		h4.087L228.928,47.598z"/>
	<path fill="#F3C352" d="M344.22,228.928c0.139,0.029,0.275,0.042,0.411,0.042c0.927,0,1.759-0.648,1.956-1.591
		c0.226-1.082-0.468-2.141-1.549-2.367l-37.608-7.854v4.086L344.22,228.928z"/>
	<path fill="#F3C352" d="M47.598,162.891c-1.088-0.225-2.142,0.467-2.367,1.549c-0.226,1.081,0.468,2.141,1.549,2.366l37.609,7.855
		v-4.086L47.598,162.891z"/>
	<path fill="#164854" d="M297.908,131.545c-7.859-34.35-38.274-27.91-65.337-28.324c-17.895,0.014-38.739-0.011-56.605-0.001
		c-14.668,0.023-33.692-0.017-48.327,0c-18.603-0.27-34.523,15.793-34.25,34.251c0.278,3.226-0.2,14.667,0,17.656
		c0.016,19.693-0.013,42.956-0.001,62.623c-0.625,22.489-1.893,45.364,23.617,54.235c11.094,3.273,25.267,1.093,36.703,1.693
		c13.325,17.159,28.866,37.174,42.201,54.348c12.883-16.592,29.384-37.844,42.2-54.348c9.437-0.291,22.799,0.675,32.185-0.556l0,0
		c17.108-2.887,29.395-19.138,28.135-36.433c-0.001-10.622,0.001-28.161,0-38.781C298.026,176.773,299.262,152.603,297.908,131.545z
		 M257.976,181.882c-0.122,1.417-0.319,2.812-0.589,4.188c-0.529,2.69-1.332,5.302-2.366,7.839c-0.552,1.354-1.167,2.688-1.844,4
		c-1.244,2.41-2.688,4.75-4.292,7.021c-0.844,1.195-1.73,2.373-2.658,3.531c-1.275,1.592-2.624,3.148-4.029,4.671
		c-0.965,1.046-1.955,2.078-2.97,3.092c-1.307,1.307-2.65,2.587-4.02,3.843c-1.013,0.929-2.041,1.845-3.079,2.747
		c-1.16,1.008-2.332,1.999-3.512,2.974c-1.037,0.857-2.079,1.702-3.123,2.534c-1.319,1.052-2.64,2.084-3.955,3.097
		c-1.068,0.823-2.133,1.634-3.189,2.433c-1.223,0.924-2.434,1.833-3.627,2.724c-1.122,0.838-2.226,1.661-3.31,2.471
		c-1.543,1.153-3.042,2.279-4.481,3.377c-1.228,0.937-2.412,1.855-3.542,2.754c-2.017,1.604-3.863,3.147-5.481,4.636
		c-1.059,0.974-2.023,1.924-2.871,2.851c-0.025-0.027-0.052-0.055-0.078-0.082c-0.025,0.027-0.052,0.055-0.077,0.082
		c-0.309-0.336-0.638-0.678-0.975-1.022c-1.788-1.825-3.952-3.757-6.386-5.799c-1.111-0.932-2.276-1.886-3.489-2.864
		c-1.366-1.102-2.79-2.233-4.255-3.394c-1.066-0.843-2.153-1.701-3.258-2.576c-1.278-1.012-2.58-2.046-3.895-3.101
		c-1.033-0.829-2.075-1.671-3.121-2.527c-1.135-0.928-2.274-1.871-3.413-2.831c-1.018-0.857-2.034-1.728-3.046-2.61
		c-1.331-1.16-2.654-2.341-3.96-3.545c-1.008-0.928-2.007-1.869-2.99-2.823c-1.249-1.211-2.474-2.444-3.668-3.699
		c-0.983-1.033-1.943-2.082-2.88-3.143c-1.448-1.642-2.834-3.319-4.142-5.031c-0.897-1.176-1.762-2.366-2.579-3.576
		c-1.37-2.024-2.614-4.098-3.717-6.217c-0.685-1.315-1.314-2.648-1.879-4c-1.188-2.842-2.103-5.765-2.679-8.771
		c-0.265-1.384-0.452-2.787-0.569-4.206c-0.104-1.262-0.155-2.536-0.134-3.826c0.029-1.711,0.12-3.348,0.266-4.917
		c0.132-1.428,0.31-2.799,0.534-4.113c0.599-3.501,1.519-6.604,2.727-9.333c0.562-1.269,1.193-2.448,1.876-3.56
		c1.708-2.78,3.78-5.079,6.168-6.936c1.075-0.836,2.213-1.585,3.41-2.247c2.938-1.626,6.229-2.738,9.797-3.405
		c1.423-0.266,2.887-0.465,4.394-0.592c0.894-0.076,1.804-0.123,2.725-0.152c0.113-0.004,0.228-0.007,0.342-0.01
		c0.268-0.007,0.534-0.017,0.804-0.02c0.131-0.001,0.265,0.001,0.397,0.001c0.131-0.001,0.26-0.006,0.392-0.006
		c0.352,0,0.704,0.003,1.06,0.009c1.023,0.017,2.009,0.114,2.968,0.262c1.723,0.266,3.349,0.722,4.873,1.344
		c3.149,1.285,5.874,3.245,8.217,5.502c1.826,1.76,3.417,3.698,4.785,5.649c0.181,0.258,0.357,0.516,0.53,0.773
		c1.579,2.352,2.836,4.677,3.797,6.677c1.204,2.507,1.941,4.49,2.258,5.357c0.279-0.693,0.853-2.096,1.742-3.912
		c1.008-2.058,2.415-4.63,4.246-7.258c1.513-2.171,3.315-4.377,5.415-6.358c2.21-2.085,4.752-3.918,7.639-5.197
		c1.556-0.689,3.217-1.207,4.976-1.524c1.136-0.206,2.315-0.322,3.537-0.339c0.159-0.003,0.312-0.018,0.472-0.018
		c0.133,0,0.266,0.001,0.4,0.003c0,0,0.001,0,0.002,0c1.583,0.027,3.126,0.122,4.634,0.274c0.844,0.085,1.681,0.183,2.499,0.309
		c0.64,0.099,1.27,0.213,1.894,0.337c1.041,0.208,2.059,0.448,3.049,0.729c1.584,0.45,3.102,0.997,4.545,1.646
		c0.387,0.174,0.765,0.361,1.141,0.55c1.241,0.623,2.419,1.331,3.537,2.12c1.279,0.904,2.473,1.921,3.576,3.056
		c0.636,0.654,1.243,1.346,1.816,2.08c0.464,0.595,0.906,1.218,1.327,1.867c0.1,0.153,0.206,0.299,0.302,0.456
		c0.688,1.106,1.304,2.299,1.864,3.561c0.045,0.103,0.09,0.206,0.134,0.31c1.026,2.383,1.832,5.033,2.374,7.992
		c0.03,0.165,0.053,0.34,0.082,0.507c0.203,1.182,0.374,2.402,0.495,3.678c0.014,0.14,0.02,0.288,0.033,0.428
		c0.181,2.062,0.261,4.24,0.223,6.553C258.104,180.129,258.051,181.009,257.976,181.882z"/>
	<path fill="#FF6641" d="M257.896,172.687c-0.133-19.91-18.926-32.688-37.713-29.544c-11.864,2.052-20.011,14.278-24.016,24.248
		c-6.925-21.676-26.183-32.382-47.339-21.389c-20.992,12.69-17.907,44.863-3.422,61.699c13.444,17.919,33.751,29.533,49.477,44.965
		c0.025-0.027,0.052-0.055,0.077-0.082c0.025,0.027,0.053,0.055,0.078,0.082C218.731,229.643,261.526,211.807,257.896,172.687z"/>
</g>
</svg>
