<?xml version="1.0" encoding="utf-8"?>
<!-- Generator: Adobe Illustrator 24.0.2, SVG Export Plug-In . SVG Version: 6.00 Build 0)  -->
<svg version="1.1" id="Capa_1" xmlns="http://www.w3.org/2000/svg" xmlns:xlink="http://www.w3.org/1999/xlink" x="0px" y="0px"
	 width="154.404px" height="180.434px" viewBox="0 0 154.404 180.434" enable-background="new 0 0 154.404 180.434"
	 xml:space="preserve">
<path fill="#164854" d="M154.378,73.001c-1.474,0.143-2.954,0.218-4.436,0.225c-16.248,0.002-31.403-8.188-40.303-21.782v74.171
	c0,30.276-24.544,54.819-54.819,54.819C24.543,180.434,0,155.891,0,125.615c0-30.276,24.543-54.82,54.819-54.82l0,0
	c1.144,0,2.263,0.104,3.388,0.174v27.014c-1.125-0.135-2.231-0.341-3.388-0.341c-15.452,0-27.979,12.526-27.979,27.979
	c0,15.452,12.527,27.979,27.979,27.979c15.455,0,29.103-12.177,29.103-27.632L84.193,0h25.844
	c2.437,23.176,21.125,41.278,44.366,42.978v30.023"/>
</svg>
