<?xml version="1.0" encoding="utf-8"?>
<!-- Generator: Adobe Illustrator 24.0.2, SVG Export Plug-In . SVG Version: 6.00 Build 0)  -->
<svg version="1.1" id="Capa_1" xmlns="http://www.w3.org/2000/svg" xmlns:xlink="http://www.w3.org/1999/xlink" x="0px" y="0px"
	 width="296.045px" height="92.044px" viewBox="0 0 296.045 92.044" enable-background="new 0 0 296.045 92.044"
	 xml:space="preserve">
<g>
	<g>
		<path fill-rule="evenodd" clip-rule="evenodd" fill="#FFFFFF" d="M122.115,22.841c-0.74-0.318-1.563-0.47-2.48-0.447
			c-0.941,0.035-1.845,0.188-2.703,0.447c-0.858,0.27-1.434,0.529-1.693,0.752c-0.235,0.212-0.435,0.717-0.622,1.481
			c-0.177,0.776-0.33,1.704-0.423,2.809c-0.094,1.105-0.13,2.28-0.13,3.549c0,1.27,0.083,2.527,0.223,3.797
			c0.13,1.599,0.364,3.185,0.741,4.737c0.364,1.587,0.917,3.02,1.669,4.337c0.753,1.328,1.728,2.457,2.939,3.385
			c1.187,0.928,2.727,1.539,4.608,1.798c1.857,0.27,3.432,0,4.737-0.846c1.282-0.846,2.351-1.857,3.174-3.033
			c0.952-1.317,1.751-2.88,2.327-4.725c0.129,1.657,0.505,3.15,1.104,4.501c0.517,1.199,1.305,2.339,2.386,3.421
			c1.081,1.105,2.633,1.821,4.655,2.186c1.258,0.223,2.268,0.235,3.02,0.071c0.753-0.188,1.258-0.436,1.505-0.788
			c0.259-0.329,0.223-0.682-0.082-1.046c-0.329-0.364-0.917-0.658-1.787-0.905c-0.952-0.212-1.704-0.846-2.221-1.869
			c-0.517-1.035-0.893-2.245-1.14-3.679c-0.259-1.422-0.364-2.986-0.364-4.702c0-1.704,0.023-3.361,0.094-4.972
			c0.047-1.622,0.129-3.068,0.223-4.372c0.082-1.282,0.105-2.28,0.07-2.974c-0.059-0.481-0.282-0.987-0.658-1.527
			c-0.388-0.506-0.881-0.987-1.493-1.387c-0.611-0.412-1.246-0.764-1.951-1.035c-0.694-0.259-1.34-0.388-1.927-0.364
			c-0.6,0.036-1.117,0.223-1.517,0.588c-0.411,0.364-0.647,0.952-0.681,1.763c-0.059,0.682-0.106,1.634-0.188,2.868
			c-0.071,1.222-0.2,2.55-0.399,3.938c-0.223,1.422-0.482,2.868-0.787,4.337c-0.33,1.469-0.753,2.809-1.306,3.985
			c-0.552,1.175-1.21,2.174-1.963,2.939c-0.752,0.776-1.656,1.163-2.703,1.163c-0.74,0-1.34-0.387-1.799-1.163
			c-0.458-0.764-0.811-1.763-1.034-2.974c-0.212-1.187-0.376-2.515-0.47-3.984c-0.094-1.446-0.129-2.844-0.129-4.184
			c0-1.34,0.012-2.55,0.058-3.655c0.036-1.082,0.082-1.857,0.142-2.316C123.172,23.793,122.843,23.171,122.115,22.841"/>
		<path fill-rule="evenodd" clip-rule="evenodd" fill="#FFFFFF" d="M147.092,24.934c0.318,0.728,0.529,1.728,0.682,2.974
			c0.141,1.246,0.223,2.786,0.223,4.584c0,1.822-0.047,3.95-0.082,6.418c0,3.914,0.388,6.677,1.199,8.322
			c0.787,1.634,1.998,2.398,3.632,2.303c1.411-0.071,2.539-0.834,3.385-2.268c0.835-1.435,1.222-3.621,1.187-6.595
			c0-1.399,0.059-2.868,0.2-4.396c0.129-1.505,0.446-2.939,0.963-4.279c0.494-1.34,1.211-2.516,2.14-3.526
			c0.917-0.987,2.186-1.669,3.785-2.033c0.811-0.188,1.528-0.494,2.116-0.952c0.588-0.446,1.046-0.929,1.399-1.434
			c0.329-0.506,0.505-0.965,0.54-1.399c0.023-0.447-0.141-0.718-0.506-0.87c-1.469-0.399-2.926-0.364-4.372,0.082
			c-1.458,0.459-2.774,1.046-3.949,1.763c-1.363,0.823-2.668,1.857-3.914,3.068c-0.176-0.624-0.458-1.27-0.858-1.975
			c-0.364-0.588-0.846-1.246-1.434-1.998c-0.588-0.752-1.364-1.539-2.281-2.362c-1.057-0.847-2.163-1.304-3.326-1.387
			c-1.175-0.071-2.221,0.083-3.174,0.447c-0.952,0.364-1.704,0.811-2.292,1.363c-0.553,0.54-0.776,0.964-0.647,1.282
			c0.188,0.364,0.412,0.588,0.647,0.658c0.27,0.07,0.564,0.094,0.881,0.094c0.353,0,0.728,0.036,1.117,0.071
			c0.411,0.036,0.87,0.199,1.375,0.482C146.315,23.7,146.763,24.216,147.092,24.934"/>
		<path fill-rule="evenodd" clip-rule="evenodd" fill="#FFFFFF" d="M175.043,21.96c0.129-1.234,0.294-2.538,0.481-3.902
			c0.188-1.352,0.4-2.692,0.682-4.02c0.27-1.317,0.6-2.586,0.987-3.82c0.388-1.211,0.834-2.351,1.34-3.421
			c0.482-0.987,0.976-1.634,1.493-1.962c0.494-0.306,0.952-0.329,1.352-0.071c0.411,0.27,0.74,0.823,0.964,1.669
			c0.211,0.847,0.294,1.916,0.211,3.185c-0.235,3.185-0.787,6.077-1.645,8.663c-0.869,2.586-1.751,4.831-2.644,6.735
			c-1.14,2.186-2.351,4.138-3.621,5.865C174.643,27.837,174.772,24.851,175.043,21.96 M168.472,15.765
			c-0.846,3.232-1.398,6.5-1.634,9.838c-0.259,3.35-0.177,6.641,0.2,9.826c0.388,3.197,1.163,6.065,2.315,8.568
			c1.164,2.492,2.762,4.514,4.808,6.053c2.045,1.539,4.595,2.316,7.64,2.316c2.045,0,3.784-0.364,5.219-1.069
			c1.434-0.717,2.621-1.599,3.585-2.656c0.952-1.07,1.681-2.21,2.198-3.432c0.517-1.211,0.905-2.351,1.116-3.421
			c0.224-1.305,0.318-2.445,0.283-3.397c-0.035-0.952-0.153-1.74-0.329-2.386c-0.188-0.776-0.482-1.434-0.881-1.987
			c0.587,0.365,1.21,0.694,1.892,0.952c0.588,0.247,1.246,0.447,1.974,0.588c0.718,0.164,1.469,0.188,2.269,0.035
			c1.117-0.141,1.999-0.411,2.645-0.858c0.623-0.423,1.022-0.846,1.187-1.281c0.153-0.447,0.094-0.811-0.201-1.105
			c-0.294-0.294-0.776-0.388-1.398-0.294c-0.646,0.094-1.375,0.012-2.221-0.235c-0.847-0.259-1.705-0.635-2.586-1.105
			c-0.881-0.483-1.763-1.046-2.633-1.728c-0.858-0.682-1.633-1.41-2.303-2.186c-0.681-0.729-1.493-1.152-2.433-1.304
			c-0.928-0.13-1.834-0.071-2.715,0.187c-0.881,0.259-1.669,0.635-2.351,1.188c-0.693,0.552-1.116,1.163-1.304,1.845
			c-0.141,0.635-0.047,1.046,0.282,1.222c0.306,0.188,0.729,0.364,1.269,0.576c0.506,0.211,1.046,0.552,1.587,0.987
			c0.553,0.459,0.976,1.27,1.305,2.445c0.317,1.246,0.423,2.644,0.329,4.208c-0.083,1.575-0.341,3.068-0.753,4.455
			c-0.399,1.422-0.963,2.609-1.704,3.585c-0.728,0.987-1.563,1.469-2.515,1.469c-0.646,0-1.375-0.199-2.186-0.646
			c-0.811-0.436-1.575-1.094-2.315-2.022c-0.729-0.893-1.317-2.057-1.763-3.468c-0.459-1.41-0.658-3.079-0.623-4.996
			c1.916-2.351,3.643-4.901,5.183-7.616c0.682-1.14,1.352-2.386,2.022-3.75c0.658-1.363,1.258-2.774,1.834-4.219
			c0.564-1.458,1.069-2.962,1.469-4.537c0.399-1.563,0.693-3.162,0.881-4.819c0.129-1.141,0.2-2.257,0.2-3.374
			c0-1.105-0.106-2.151-0.318-3.127c-0.2-0.975-0.529-1.833-0.999-2.585c-0.483-0.753-1.176-1.375-2.081-1.892
			c-0.882-0.447-1.904-0.647-3.08-0.611c-1.175,0.058-2.351,0.352-3.514,0.905c-1.152,0.552-2.257,1.339-3.303,2.362
			c-1.046,1.058-1.857,2.351-2.445,3.902C170.352,9.665,169.318,12.533,168.472,15.765"/>
		<path fill-rule="evenodd" clip-rule="evenodd" fill="#FFFFFF" d="M216.028,21.278c-0.67-0.199-1.528-0.281-2.598-0.247
			c-1.058,0.047-2.268,0.247-3.608,0.576c-1.34,0.353-2.692,0.893-4.032,1.634c-1.339,0.752-2.598,1.728-3.773,2.903
			c-1.176,1.176-2.139,2.61-2.856,4.29c-1.093,2.598-1.61,5.054-1.54,7.405c0.082,2.351,0.517,4.432,1.363,6.229
			c0.846,1.811,1.963,3.268,3.373,4.373c1.399,1.093,2.903,1.634,4.502,1.575c1.575-0.094,2.915-0.459,4.02-1.105
			c1.081-0.635,1.962-1.351,2.668-2.127c0.8-0.846,1.446-1.857,1.892-2.997c0.506,1.763,1.222,3.256,2.128,4.431
			c0.4,0.528,0.846,1.011,1.317,1.434c0.482,0.435,1.046,0.764,1.692,0.987c0.646,0.223,1.375,0.329,2.186,0.329
			c0.811,0,1.704-0.177,2.657-0.553c1.81-0.694,3.291-1.68,4.466-3.009c1.164-1.316,2.045-2.609,2.633-3.89
			c0.576-1.269,0.917-2.41,0.999-3.397c0.094-1-0.012-1.563-0.329-1.704c-0.27-0.129-0.635,0.117-1.081,0.787
			c-0.459,0.658-1.011,1.411-1.634,2.221c-0.646,0.811-1.363,1.563-2.151,2.222c-0.799,0.658-1.704,0.893-2.692,0.717
			c-1.469-0.329-2.444-1.434-2.939-3.326c-0.494-1.869-0.681-4.666-0.54-8.357c0.082-1.798-0.07-3.08-0.435-3.843
			c-0.364-0.753-0.87-1.187-1.493-1.34c-0.624-0.129-1.282-0.106-1.963,0.082c-0.694,0.176-1.282,0.294-1.763,0.329
			c-0.494,0.047-0.847,0.399-1.023,1.023c-0.199,0.646-0.329,1.399-0.411,2.257c-0.071,0.87-0.071,1.752-0.035,2.633
			c0.035,0.881,0.082,1.575,0.082,2.068c0,0.506-0.223,1.222-0.635,2.151c-0.399,0.94-0.929,1.845-1.551,2.727
			c-0.647,0.881-1.364,1.669-2.151,2.351c-0.787,0.694-1.54,1.022-2.28,1.022c-0.588,0-1.082-0.587-1.469-1.798
			c-0.388-1.211-0.588-2.644-0.6-4.302c-0.047-1.645,0.129-3.397,0.494-5.207c0.364-1.821,1.011-3.408,1.928-4.725
			c0.588-0.811,1.304-1.446,2.162-1.963c0.87-0.494,1.704-0.952,2.539-1.363c0.8-0.399,1.54-0.811,2.163-1.187
			c0.623-0.388,1.011-0.881,1.152-1.469C216.945,21.749,216.663,21.478,216.028,21.278"/>
		<path fill-rule="evenodd" clip-rule="evenodd" fill="#FFFFFF" d="M228.793,28.436c-0.141,1.176-0.235,2.574-0.306,4.184
			c-0.082,1.622-0.118,3.326-0.129,5.125c-0.036,1.798-0.023,3.479,0.012,5.03c0.036,1.587,0.13,2.927,0.247,4.032
			c0.106,1.117,0.27,1.763,0.459,1.94c0.306,0.283,0.858,0.493,1.669,0.682c0.788,0.188,1.599,0.27,2.445,0.27
			c0.835,0,1.611-0.082,2.34-0.27c0.74-0.189,1.222-0.518,1.457-1.023c0.188-0.447,0.294-1.163,0.329-2.116
			c0.035-0.952,0.153-2.045,0.318-3.268c0.164-1.21,0.47-2.538,0.928-3.949c0.459-1.399,1.176-2.809,2.151-4.231
			c0.823-1.222,1.599-2.163,2.316-2.821c0.717-0.659,1.352-0.952,1.904-0.917c0.552,0.035,0.998,0.494,1.339,1.352
			c0.341,0.869,0.553,2.186,0.67,3.949c0.211,4.96,1.058,8.98,2.562,12.047c1.505,3.056,3.973,4.819,7.382,5.278
			c1.727,0.211,3.256,0.011,4.596-0.588c1.34-0.624,2.457-1.363,3.338-2.21c0.881-0.858,1.528-1.704,1.916-2.527
			c0.388-0.811,0.494-1.304,0.306-1.493c-0.236-0.153-0.624-0.094-1.141,0.165c-0.506,0.259-1.128,0.552-1.834,0.881
			c-0.693,0.353-1.446,0.623-2.233,0.824c-0.811,0.211-1.622,0.187-2.433-0.036c-1.011-0.223-1.775-0.764-2.292-1.634
			c-0.517-0.858-0.917-1.903-1.211-3.138c-0.294-1.21-0.517-2.551-0.622-4.02l-0.329-4.337c-0.118-1.434-0.294-2.785-0.518-4.079
			c-0.223-1.281-0.564-2.362-1.022-3.244c-0.682-1.27-1.469-2.222-2.351-2.868c-0.882-0.624-1.81-0.976-2.762-1.046
			c-0.952-0.071-1.904,0.071-2.856,0.435c-0.964,0.376-1.822,0.905-2.609,1.563c-0.846,0.741-1.658,1.622-2.445,2.645
			c-0.787,1.034-1.493,1.997-2.081,2.962c-0.693,1.14-1.352,2.292-1.94,3.467c0.035-2.315,0.035-4.373,0-6.206
			c-0.059-0.776-0.118-1.528-0.153-2.281c-0.035-0.729-0.129-1.411-0.235-1.998c-0.105-0.588-0.223-1.07-0.329-1.434
			c-0.117-0.364-0.259-0.553-0.447-0.553c-0.364,0-0.834,0.094-1.41,0.235c-0.564,0.164-1.141,0.387-1.705,0.681
			c-0.576,0.294-1.128,0.647-1.634,1.035c-0.517,0.376-0.917,0.798-1.176,1.246C229.087,26.508,228.923,27.261,228.793,28.436"/>
		<path fill-rule="evenodd" clip-rule="evenodd" fill="#FFFFFF" d="M278.512,21.278c-0.658-0.199-1.528-0.281-2.586-0.247
			c-1.069,0.047-2.281,0.247-3.62,0.576c-1.34,0.353-2.68,0.893-4.02,1.634c-1.339,0.752-2.609,1.728-3.784,2.903
			c-1.176,1.176-2.128,2.61-2.844,4.29c-1.105,2.598-1.623,5.054-1.54,7.405c0.071,2.351,0.505,4.432,1.352,6.229
			c0.846,1.811,1.962,3.268,3.385,4.373c1.387,1.093,2.891,1.634,4.49,1.575c1.586-0.094,2.926-0.459,4.019-1.105
			c1.093-0.635,1.975-1.351,2.668-2.127c0.811-0.846,1.446-1.857,1.892-2.997c0.517,1.763,1.234,3.256,2.128,4.431
			c0.411,0.528,0.846,1.011,1.328,1.434c0.47,0.435,1.046,0.764,1.681,0.987c0.646,0.223,1.387,0.329,2.186,0.329
			c0.811,0,1.716-0.177,2.668-0.553c1.799-0.694,3.28-1.68,4.455-3.009c1.163-1.316,2.045-2.609,2.633-3.89
			c0.587-1.269,0.917-2.41,1.011-3.397c0.094-1-0.023-1.563-0.329-1.704c-0.282-0.129-0.646,0.117-1.093,0.787
			c-0.459,0.658-0.999,1.411-1.634,2.221c-0.635,0.811-1.351,1.563-2.139,2.222c-0.811,0.658-1.716,0.893-2.703,0.717
			c-1.469-0.329-2.445-1.434-2.939-3.326c-0.494-1.869-0.682-4.666-0.529-8.357c0.07-1.798-0.082-3.08-0.447-3.843
			c-0.364-0.753-0.858-1.187-1.481-1.34c-0.623-0.129-1.293-0.106-1.962,0.082c-0.705,0.176-1.293,0.294-1.763,0.329
			c-0.505,0.047-0.846,0.399-1.035,1.023c-0.199,0.646-0.329,1.399-0.399,2.257c-0.082,0.87-0.082,1.752-0.035,2.633
			c0.035,0.881,0.071,1.575,0.071,2.068c0,0.506-0.224,1.222-0.624,2.151c-0.411,0.94-0.94,1.845-1.563,2.727
			c-0.646,0.881-1.363,1.669-2.151,2.351c-0.787,0.694-1.539,1.022-2.281,1.022c-0.587,0-1.081-0.587-1.469-1.798
			c-0.376-1.211-0.588-2.644-0.6-4.302c-0.036-1.645,0.129-3.397,0.494-5.207c0.364-1.821,1.011-3.408,1.928-4.725
			c0.588-0.811,1.304-1.446,2.162-1.963c0.87-0.494,1.716-0.952,2.539-1.363c0.811-0.399,1.54-0.811,2.163-1.187
			c0.622-0.388,1.01-0.881,1.163-1.469C279.428,21.749,279.158,21.478,278.512,21.278"/>
	</g>
	<g>
		<path fill="#FFFFFF" d="M97.255,44.54c-1.489,14.688-7.368,26.978-17.005,35.541c-8.723,7.75-20.217,11.964-32.526,11.964
			c-0.558,0-1.116-0.006-1.68-0.025C19.702,91.202-0.092,70.928,0,44.854c0.013-4.952,1.024-10.118,3.09-15.734
			c0-0.006,0-0.012,0.006-0.025C3.182,28.548,3.348,28,3.593,27.471c3.439-7.498,9.226-16.915,23.521-23.214
			c0.086-0.043,0.178-0.08,0.27-0.117c9.912-3.832,20.842-3.592,30.779,0.67c9.998,4.287,17.643,12.087,21.511,21.947
			c2.716,6.914,2.384,13.692,1.79,18.828c-0.055,0.467-0.153,0.916-0.301,1.347c-2.09,10.721-6.933,18.754-14.424,23.909
			c-6.246,4.3-12.812,5.486-17.226,5.727c-0.692,0.037-1.385,0.056-2.066,0.056c-17.636,0-30.902-12.431-31.877-30.245
			c-0.055-1.015-0.067-2.005-0.037-2.965c0.116-3.506,3.047-6.256,6.534-6.139c3.494,0.117,6.235,3.051,6.118,6.557
			c-0.018,0.603-0.012,1.23,0.024,1.87c0.625,11.503,8.92,18.822,20.616,18.182c7.669-0.412,17.385-4.306,20.113-20.483
			c0.018-0.104,0.037-0.209,0.061-0.313c0.484-4.964,0.141-8.501-1.104-11.675c-5.401-13.76-21.78-20.821-35.83-15.47
			c-9.244,4.109-13.388,9.614-16.153,15.119c-0.006,0.006-0.006,0.012-0.006,0.012c-0.049,0.148-0.098,0.289-0.159,0.437
			c-2.097,5.093-3.077,9.343-3.096,13.384c-0.061,19.339,14.142,33.818,33.783,34.427c20.953,0.652,35.941-13.507,38.228-36.069
			c0.349-3.494,3.469-6.034,6.933-5.677C95.079,37.934,97.61,41.046,97.255,44.54"/>
	</g>
	<g>
		<path fill="#FFFFFF" d="M118.408,77.208c-1.316-0.725-2.348-1.721-3.096-2.991c-0.748-1.27-1.122-2.698-1.122-4.287
			s0.374-3.018,1.122-4.287s1.783-2.267,3.107-2.991c1.324-0.725,2.804-1.087,4.439-1.087c1.277,0,2.445,0.215,3.505,0.643
			c1.059,0.429,1.962,1.063,2.71,1.904l-1.519,1.473c-1.23-1.293-2.765-1.939-4.603-1.939c-1.215,0-2.313,0.272-3.294,0.817
			c-0.981,0.546-1.749,1.297-2.301,2.255c-0.553,0.958-0.83,2.029-0.83,3.213s0.276,2.255,0.83,3.213
			c0.553,0.958,1.32,1.709,2.301,2.255c0.981,0.545,2.08,0.817,3.294,0.817c1.823,0,3.356-0.654,4.603-1.963l1.519,1.473
			c-0.748,0.841-1.655,1.479-2.722,1.915c-1.067,0.437-2.24,0.654-3.517,0.654C121.2,78.293,119.724,77.932,118.408,77.208z"/>
		<path fill="#FFFFFF" d="M136.2,66.168c0.763-0.374,1.69-0.561,2.78-0.561v2.173c-0.125-0.016-0.296-0.023-0.514-0.023
			c-1.215,0-2.169,0.362-2.862,1.086c-0.693,0.725-1.04,1.757-1.04,3.097v6.168h-2.243V65.723h2.149v2.08
			C134.86,67.086,135.436,66.542,136.2,66.168z"/>
		<path fill="#FFFFFF" d="M152.999,72.663h-10.047c0.14,1.091,0.619,1.967,1.437,2.629c0.818,0.662,1.834,0.993,3.049,0.993
			c1.479,0,2.671-0.499,3.575-1.495l1.239,1.448c-0.561,0.654-1.258,1.153-2.091,1.495c-0.833,0.343-1.764,0.515-2.792,0.515
			c-1.309,0-2.469-0.27-3.481-0.807c-1.013-0.537-1.795-1.289-2.348-2.255c-0.553-0.966-0.83-2.056-0.83-3.271
			c0-1.199,0.269-2.282,0.806-3.248c0.537-0.966,1.277-1.718,2.22-2.255c0.942-0.537,2.005-0.806,3.189-0.806
			s2.239,0.269,3.166,0.806s1.651,1.289,2.173,2.255s0.783,2.071,0.783,3.317C153.046,72.157,153.03,72.382,152.999,72.663z
			 M144.226,68.481c-0.724,0.653-1.148,1.511-1.273,2.569h7.944c-0.125-1.043-0.549-1.896-1.273-2.558
			c-0.724-0.662-1.624-0.993-2.699-0.993C145.85,67.5,144.95,67.827,144.226,68.481z"/>
		<path fill="#FFFFFF" d="M164.483,66.869c0.911,0.841,1.366,2.095,1.366,3.762v7.477h-2.125v-1.636
			c-0.375,0.576-0.908,1.017-1.602,1.32s-1.515,0.456-2.465,0.456c-1.387,0-2.496-0.335-3.329-1.005s-1.25-1.55-1.25-2.641
			c0-1.09,0.397-1.966,1.191-2.629c0.794-0.661,2.056-0.992,3.785-0.992h3.552v-0.444c0-0.966-0.281-1.706-0.842-2.22
			s-1.387-0.771-2.477-0.771c-0.732,0-1.448,0.12-2.149,0.361c-0.7,0.242-1.293,0.565-1.776,0.97l-0.934-1.682
			c0.639-0.515,1.401-0.907,2.289-1.181c0.889-0.272,1.83-0.408,2.828-0.408C162.26,65.607,163.572,66.027,164.483,66.869z
			 M162.252,75.946c0.623-0.382,1.074-0.923,1.355-1.624v-1.729h-3.459c-1.9,0-2.85,0.64-2.85,1.916
			c0,0.624,0.241,1.114,0.725,1.473c0.482,0.358,1.152,0.537,2.009,0.537S161.629,76.328,162.252,75.946z"/>
		<path fill="#FFFFFF" d="M177.205,77.382c-0.326,0.28-0.732,0.495-1.215,0.643c-0.482,0.148-0.98,0.223-1.494,0.223
			c-1.247,0-2.213-0.335-2.898-1.005s-1.027-1.628-1.027-2.874v-6.8h-2.104v-1.846h2.104v-2.71h2.242v2.71h3.553v1.846h-3.553v6.706
			c0,0.67,0.168,1.185,0.503,1.542c0.335,0.358,0.813,0.538,1.437,0.538c0.686,0,1.27-0.195,1.753-0.585L177.205,77.382z"/>
		<path fill="#FFFFFF" d="M180.184,62.919c-0.287-0.28-0.432-0.623-0.432-1.028c0-0.404,0.145-0.751,0.432-1.039
			c0.289-0.288,0.65-0.433,1.087-0.433s0.798,0.137,1.087,0.409c0.287,0.272,0.432,0.611,0.432,1.017
			c0,0.42-0.145,0.774-0.432,1.062c-0.289,0.289-0.65,0.433-1.087,0.433S180.473,63.2,180.184,62.919z M180.149,65.723h2.243v12.384
			h-2.243V65.723z"/>
		<path fill="#FFFFFF" d="M197.859,65.723l-5.42,12.384h-2.29l-5.421-12.384h2.336l4.253,9.931l4.347-9.931H197.859z"/>
		<path fill="#FFFFFF" d="M210.99,72.663h-10.047c0.141,1.091,0.619,1.967,1.438,2.629c0.817,0.662,1.834,0.993,3.049,0.993
			c1.479,0,2.672-0.499,3.574-1.495l1.239,1.448c-0.562,0.654-1.259,1.153-2.091,1.495c-0.834,0.343-1.765,0.515-2.793,0.515
			c-1.309,0-2.469-0.27-3.48-0.807c-1.014-0.537-1.796-1.289-2.349-2.255c-0.554-0.966-0.829-2.056-0.829-3.271
			c0-1.199,0.268-2.282,0.806-3.248c0.537-0.966,1.276-1.718,2.22-2.255c0.941-0.537,2.006-0.806,3.189-0.806
			s2.238,0.269,3.166,0.806c0.926,0.537,1.65,1.289,2.172,2.255c0.522,0.966,0.783,2.071,0.783,3.317
			C211.037,72.157,211.021,72.382,210.99,72.663z M202.217,68.481c-0.725,0.653-1.148,1.511-1.273,2.569h7.944
			c-0.125-1.043-0.549-1.896-1.273-2.558c-0.724-0.662-1.624-0.993-2.698-0.993C203.841,67.5,202.941,67.827,202.217,68.481z"/>
		<path fill="#FFFFFF" d="M232.557,69.835h2.243v6.379c-0.81,0.67-1.753,1.184-2.827,1.542s-2.196,0.537-3.364,0.537
			c-1.651,0-3.14-0.361-4.463-1.086c-1.324-0.725-2.364-1.721-3.119-2.991c-0.756-1.27-1.134-2.698-1.134-4.287
			s0.378-3.021,1.134-4.299c0.755-1.277,1.799-2.274,3.131-2.991c1.331-0.716,2.831-1.075,4.497-1.075
			c1.309,0,2.496,0.215,3.564,0.643c1.066,0.429,1.974,1.056,2.721,1.881l-1.447,1.449c-1.309-1.262-2.891-1.893-4.744-1.893
			c-1.246,0-2.363,0.269-3.353,0.806c-0.989,0.538-1.765,1.285-2.325,2.243s-0.841,2.037-0.841,3.236
			c0,1.184,0.28,2.255,0.841,3.213s1.336,1.709,2.325,2.255c0.989,0.545,2.099,0.817,3.329,0.817c1.465,0,2.742-0.351,3.832-1.052
			V69.835z"/>
		<path fill="#FFFFFF" d="M243.047,66.168c0.764-0.374,1.69-0.561,2.781-0.561v2.173c-0.125-0.016-0.297-0.023-0.514-0.023
			c-1.216,0-2.17,0.362-2.863,1.086c-0.693,0.725-1.039,1.757-1.039,3.097v6.168h-2.243V65.723h2.149v2.08
			C241.707,67.086,242.283,66.542,243.047,66.168z"/>
		<path fill="#FFFFFF" d="M250.687,77.429c-0.981-0.545-1.748-1.297-2.301-2.255c-0.554-0.958-0.83-2.044-0.83-3.259
			c0-1.216,0.276-2.302,0.83-3.26c0.553-0.958,1.319-1.706,2.301-2.243s2.087-0.806,3.318-0.806c1.23,0,2.332,0.269,3.306,0.806
			s1.737,1.285,2.29,2.243s0.829,2.044,0.829,3.26c0,1.215-0.276,2.301-0.829,3.259s-1.316,1.71-2.29,2.255
			c-0.974,0.546-2.075,0.818-3.306,0.818C252.774,78.248,251.669,77.975,250.687,77.429z M256.143,75.736
			c0.631-0.366,1.126-0.88,1.484-1.543c0.357-0.661,0.537-1.421,0.537-2.277s-0.18-1.616-0.537-2.278
			c-0.358-0.662-0.854-1.172-1.484-1.53c-0.631-0.358-1.343-0.538-2.137-0.538c-0.795,0-1.508,0.18-2.139,0.538
			s-1.129,0.868-1.495,1.53s-0.55,1.422-0.55,2.278s0.184,1.616,0.55,2.277c0.366,0.663,0.864,1.177,1.495,1.543
			c0.631,0.365,1.344,0.549,2.139,0.549C254.8,76.285,255.512,76.101,256.143,75.736z"/>
		<path fill="#FFFFFF" d="M275.314,65.723v12.384h-2.127v-1.869c-0.451,0.639-1.047,1.133-1.787,1.483s-1.546,0.526-2.418,0.526
			c-1.651,0-2.952-0.456-3.902-1.367s-1.426-2.255-1.426-4.03v-7.127h2.244v6.869c0,1.2,0.287,2.107,0.864,2.723
			c0.575,0.615,1.401,0.923,2.477,0.923c1.184,0,2.118-0.358,2.804-1.075c0.686-0.716,1.028-1.729,1.028-3.037v-6.402H275.314z"/>
		<path fill="#FFFFFF" d="M289.613,66.401c0.95,0.53,1.694,1.27,2.231,2.22c0.538,0.95,0.806,2.049,0.806,3.295
			s-0.268,2.348-0.806,3.306c-0.537,0.958-1.281,1.702-2.231,2.231c-0.95,0.53-2.025,0.795-3.225,0.795
			c-0.888,0-1.701-0.172-2.441-0.515c-0.74-0.342-1.367-0.841-1.881-1.495v6.402h-2.242V65.723h2.148v1.963
			c0.498-0.686,1.129-1.203,1.893-1.554s1.604-0.525,2.523-0.525C287.588,65.607,288.663,65.872,289.613,66.401z M288.34,75.736
			c0.631-0.366,1.129-0.88,1.496-1.543c0.365-0.661,0.549-1.421,0.549-2.277s-0.184-1.616-0.549-2.278
			c-0.367-0.662-0.865-1.172-1.496-1.53s-1.344-0.538-2.138-0.538c-0.779,0-1.483,0.184-2.114,0.55s-1.13,0.876-1.496,1.53
			c-0.365,0.654-0.549,1.41-0.549,2.267s0.18,1.616,0.537,2.277c0.358,0.663,0.857,1.177,1.496,1.543
			c0.639,0.365,1.347,0.549,2.126,0.549C286.996,76.285,287.709,76.101,288.34,75.736z"/>
	</g>
</g>
</svg>
