<?xml version="1.0" encoding="utf-8"?>
<!-- Generator: Adobe Illustrator 24.0.2, SVG Export Plug-In . SVG Version: 6.00 Build 0)  -->
<svg version="1.1" id="Capa_1" xmlns="http://www.w3.org/2000/svg" xmlns:xlink="http://www.w3.org/1999/xlink" x="0px" y="0px"
	 width="513.01px" height="71.192px" viewBox="0 0 513.01 71.192" enable-background="new 0 0 513.01 71.192" xml:space="preserve">
<g>
	<g>
		<path d="M506.705,24.602c-3.483,0-6.305-2.821-6.305-6.303c0-3.483,2.821-6.305,6.305-6.305c3.483,0,6.305,2.821,6.305,6.305
			C513.01,21.781,510.189,24.602,506.705,24.602z M506.705,12.918c-2.925,0-5.294,2.421-5.294,5.381c0,2.959,2.369,5.38,5.294,5.38
			s5.312-2.421,5.312-5.38C512.017,15.339,509.631,12.918,506.705,12.918z M508.239,21.747l-1.585-2.821h-1.045v2.821h-0.959v-6.915
			h2.352c1.184,0,2.176,0.889,2.176,2.073c0,1.027-0.626,1.637-1.48,1.898l1.655,2.943H508.239z M506.897,15.686h-1.288v2.421h1.288
			c0.767,0,1.306-0.505,1.306-1.201C508.203,16.208,507.664,15.686,506.897,15.686z"/>
	</g>
	<path d="M181.586,18.193c-2.249-2.233-4.886-4.01-7.844-5.27c-5.992-2.562-13.244-2.526-19.119,0
		c-2.936,1.26-5.563,3.037-7.789,5.27c-2.217,2.226-4.007,4.856-5.266,7.825c-1.286,2.985-1.924,6.187-1.924,9.533
		c0,3.411,0.638,6.63,1.924,9.576c1.269,2.946,3.05,5.572,5.266,7.802c2.243,2.239,4.853,4.007,7.789,5.266
		c2.952,1.282,6.181,1.917,9.572,1.917c3.349,0,6.562-0.635,9.546-1.917c2.959-1.26,5.595-3.037,7.844-5.266
		c2.21-2.23,3.99-4.856,5.257-7.782c1.276-2.965,1.924-6.184,1.924-9.595c0-3.346-0.648-6.549-1.924-9.533
		C185.589,23.049,183.796,20.419,181.586,18.193 M183.542,35.55c0,2.659-0.514,5.201-1.54,7.532
		c-1.025,2.356-2.402,4.423-4.13,6.145c-1.741,1.728-3.779,3.125-6.145,4.13c-4.69,2.031-10.373,2.031-15.05,0
		c-2.347-1.006-4.417-2.402-6.155-4.13c-1.715-1.722-3.102-3.789-4.124-6.145c-1.016-2.33-1.533-4.872-1.533-7.532
		c0-2.653,0.518-5.175,1.533-7.515c1.022-2.356,2.409-4.41,4.124-6.148c1.738-1.719,3.808-3.108,6.155-4.13
		c2.347-1.012,4.869-1.536,7.519-1.536c2.656,0,5.188,0.524,7.532,1.536c2.366,1.022,4.404,2.412,6.145,4.13
		c1.722,1.738,3.102,3.792,4.13,6.148C183.028,30.375,183.542,32.898,183.542,35.55"/>
	<path d="M116.659,49.225c-1.761,1.758-3.851,3.157-6.168,4.156c-4.628,1.998-10.337,2.011-15.024-0.02
		c-2.353-1.012-4.4-2.409-6.135-4.137c-1.738-1.722-3.121-3.792-4.137-6.145c-1.025-2.334-1.533-4.872-1.533-7.532
		c0-2.653,0.508-5.175,1.533-7.519c1.016-2.353,2.399-4.404,4.137-6.142c1.735-1.719,3.782-3.112,6.135-4.134
		c4.687-2.021,10.389-2.021,15.06,0c2.347,1.022,4.417,2.415,6.132,4.134c0.241,0.247,0.54,0.423,0.83,0.553l3.431-3.479
		c-0.13-0.267-0.283-0.498-0.527-0.736c-2.2-2.207-4.82-3.977-7.789-5.283c-5.934-2.575-13.273-2.575-19.177-0.026
		c-2.946,1.263-5.579,3.047-7.795,5.273c-2.233,2.223-4.016,4.859-5.283,7.828c-1.269,2.978-1.911,6.187-1.911,9.53
		c0,3.411,0.641,6.63,1.911,9.576c1.266,2.946,3.05,5.579,5.283,7.802c2.217,2.239,4.856,4.01,7.795,5.27
		c2.946,1.279,6.171,1.914,9.566,1.914c3.395,0,6.62-0.635,9.576-1.914c2.939-1.26,5.579-3.05,7.825-5.302
		c0.059-0.052,0.085-0.111,0.12-0.166l-3.613-3.662C116.835,49.124,116.737,49.154,116.659,49.225"/>
	<path d="M268.988,59.51l7.167-14.852h25.664l7.109,14.852h5.797l-22.244-46.495c-0.443-0.866-1.051-1.435-1.826-1.689
		c-1.312-0.439-2.024-0.439-3.352,0c-0.775,0.254-1.383,0.823-1.823,1.699L263.162,59.51H268.988z M288.983,18.05l10.383,21.514
		h-20.763L288.983,18.05z"/>
	<path d="M411.409,59.509V13.954c0-0.749-0.264-1.367-0.762-1.855c-0.963-0.989-2.757-0.989-3.737,0
		c-0.472,0.488-0.732,1.107-0.732,1.855v45.554H411.409z"/>
	<path d="M374.59,11.629L354.94,53.053l-19.919-41.424h-5.8l22.208,46.472c0.43,0.866,1.038,1.435,1.829,1.676
		c0.657,0.228,1.198,0.332,1.683,0.332c0.472,0,1.003-0.104,1.65-0.332c0.788-0.241,1.406-0.81,1.842-1.686l21.941-46.463H374.59z"
		/>
	<path d="M488.378,11.629v39.273l-38.931-38.394c-0.43-0.452-0.784-0.729-1.054-0.879c-0.846-0.446-2.327-0.365-3.164,0.469
		c-0.488,0.488-0.736,1.103-0.736,1.855v45.558h5.208V20.222l38.924,38.384c0.439,0.433,0.784,0.703,1.074,0.869
		c0.342,0.195,0.775,0.299,1.289,0.299c0.742,0,1.374-0.264,1.878-0.752c0.491-0.498,0.749-1.126,0.749-1.878V11.629H488.378z"/>
	<path d="M241.169,51.059c-1.693-1.354-5.393-4.944-7.255-7.027l-3.434-3.824c1.055-0.407,2.047-0.924,2.994-1.553
		c1.338-0.889,2.477-1.976,3.408-3.235c0.947-1.25,1.692-2.643,2.223-4.137c0.547-1.494,0.823-3.134,0.823-4.853
		c0-2.018-0.387-3.935-1.159-5.729c-0.762-1.797-1.803-3.378-3.147-4.703c-1.325-1.328-2.897-2.392-4.69-3.151
		c-1.806-0.762-3.723-1.146-5.738-1.146h-15.46c-0.732,0-1.387,0.254-1.868,0.742c-0.491,0.491-0.742,1.113-0.742,1.868v45.2h5.221
		V41.174v-5.087V16.796h12.495c1.302,0,2.571,0.241,3.73,0.749c1.165,0.508,2.197,1.214,3.079,2.083
		c0.879,0.879,1.569,1.907,2.077,3.069c0.504,1.165,0.771,2.425,0.771,3.733c0,1.308-0.267,2.571-0.771,3.733
		c-0.508,1.162-1.198,2.2-2.077,3.076c-0.872,0.853-1.898,1.575-3.079,2.08c-1.159,0.495-2.412,0.768-3.73,0.768h-5.12l10.11,11.545
		c1.445,1.627,4.882,5.025,6.438,6.477c1.562,1.484,3.418,3.17,5.276,4.274c6.181,3.688,10.562-0.247,10.562-0.247
		C249.026,58.223,241.169,51.059,241.169,51.059"/>
	<g>
		<path d="M30.961,63.838c1.227-2.054,3.524-6.808,3.524-13.227V34.573c0-3.226,1.03-6.679,3.738-8.526
			C50.592,17.608,60.04,7.025,61.901,0c0,0,0.763,16.47-6.886,31.201c-4.399,8.465-23.844,39.669-24.054,39.991
			C30.754,70.87,11.302,39.666,6.914,31.201C-0.741,16.47,0.021,0,0.021,0c1.864,7.025,11.308,17.608,23.678,26.046
			c2.711,1.847,3.738,5.3,3.738,8.526v16.039C27.436,57.03,29.737,61.785,30.961,63.838"/>
		<path d="M32.613,51.454c0,0.912-0.739,1.647-1.654,1.647c-0.905,0-1.647-0.735-1.647-1.647c0-0.908,0.742-1.65,1.647-1.65
			C31.874,49.803,32.613,50.545,32.613,51.454"/>
	</g>
</g>
</svg>
