<?xml version="1.0" encoding="utf-8"?>
<!-- Generator: Adobe Illustrator 24.0.2, SVG Export Plug-In . SVG Version: 6.00 Build 0)  -->
<svg version="1.1" id="Capa_1" xmlns="http://www.w3.org/2000/svg" xmlns:xlink="http://www.w3.org/1999/xlink" x="0px" y="0px"
	 width="118.857px" height="118.912px" viewBox="0 0 118.857 118.912" enable-background="new 0 0 118.857 118.912"
	 xml:space="preserve">
<g id="XMLID_2296_">
	<g id="XMLID_2297_">
		<g id="XMLID_2299_">
			<rect id="XMLID_2301_" x="2.358" y="39.638" fill="#FFFFFF" width="24.539" height="79.274"/>
			<path id="XMLID_2300_" fill="#FFFFFF" d="M14.51,29.258c8.016,0,14.51-6.556,14.51-14.632S22.526,0,14.51,0
				C6.493,0,0,6.549,0,14.626S6.493,29.258,14.51,29.258z"/>
		</g>
		<path id="XMLID_2298_" fill="#FFFFFF" d="M66.123,77.299c0-11.144,5.129-17.785,14.951-17.785c9.022,0,13.359,6.373,13.359,17.785
			c0,11.418,0,41.614,0,41.614h24.423c0,0,0-28.958,0-50.193c0-21.235-12.036-31.501-28.843-31.501
			c-16.815,0-23.89,13.099-23.89,13.099V39.638H42.584v79.274h23.539C66.123,118.912,66.123,89.511,66.123,77.299z"/>
	</g>
</g>
</svg>
