<?xml version="1.0" encoding="utf-8"?>
<!-- Generator: Adobe Illustrator 24.0.2, SVG Export Plug-In . SVG Version: 6.00 Build 0)  -->
<svg version="1.1" id="Capa_1" xmlns="http://www.w3.org/2000/svg" xmlns:xlink="http://www.w3.org/1999/xlink" x="0px" y="0px"
	 width="130.02px" height="130.021px" viewBox="0 0 130.02 130.021" enable-background="new 0 0 130.02 130.021"
	 xml:space="preserve">
<g id="XMLID_2392_">
	<g id="XMLID_2393_">
		<path id="XMLID_2398_" fill="#164854" d="M65.01,11.714c17.359,0,19.414,0.066,26.269,0.379c6.338,0.289,9.781,1.349,12.073,2.24
			c3.034,1.18,5.2,2.587,7.474,4.863c2.276,2.275,3.684,4.441,4.863,7.475c0.891,2.292,1.949,5.733,2.24,12.073
			c0.312,6.855,0.379,8.91,0.379,26.27c0,17.359-0.067,19.415-0.379,26.27c-0.29,6.34-1.348,9.781-2.24,12.071
			c-1.179,3.035-2.587,5.201-4.863,7.476c-2.274,2.274-4.44,3.683-7.474,4.862c-2.292,0.891-5.735,1.951-12.073,2.24
			c-6.855,0.312-8.909,0.378-26.269,0.378c-17.361,0-19.415-0.066-26.27-0.378c-6.338-0.289-9.781-1.349-12.071-2.24
			c-3.035-1.179-5.201-2.589-7.476-4.862c-2.274-2.276-3.684-4.441-4.863-7.476c-0.889-2.29-1.948-5.732-2.239-12.071
			c-0.312-6.854-0.378-8.91-0.378-26.27c0-17.359,0.066-19.415,0.378-26.27c0.29-6.339,1.349-9.781,2.239-12.073
			c1.18-3.034,2.589-5.199,4.863-7.475c2.275-2.275,4.441-3.683,7.476-4.863c2.29-0.891,5.733-1.95,12.071-2.24
			C45.596,11.78,47.652,11.714,65.01,11.714 M65.01,0C47.354,0,45.14,0.075,38.206,0.391c-6.919,0.316-11.644,1.416-15.78,3.022
			c-4.276,1.661-7.901,3.884-11.516,7.499c-3.614,3.614-5.837,7.241-7.497,11.515c-1.608,4.135-2.707,8.861-3.022,15.78
			C0.075,45.141,0,47.355,0,65.011c0,17.657,0.075,19.87,0.391,26.804c0.314,6.92,1.414,11.645,3.022,15.78
			c1.66,4.275,3.883,7.901,7.497,11.515c3.615,3.615,7.24,5.838,11.516,7.499c4.135,1.606,8.86,2.706,15.78,3.021
			c6.935,0.316,9.148,0.391,26.805,0.391c17.655,0,19.869-0.074,26.803-0.391c6.92-0.315,11.645-1.415,15.78-3.021
			c4.276-1.661,7.901-3.884,11.515-7.499c3.615-3.614,5.838-7.24,7.499-11.515c1.606-4.135,2.706-8.86,3.022-15.78
			c0.315-6.935,0.39-9.148,0.39-26.804s-0.075-19.87-0.39-26.804c-0.316-6.92-1.416-11.645-3.022-15.78
			c-1.661-4.274-3.884-7.901-7.499-11.515c-3.614-3.615-7.239-5.837-11.515-7.499c-4.135-1.606-8.86-2.706-15.78-3.022
			C84.879,0.075,82.666,0,65.01,0"/>
		<path id="XMLID_2395_" fill="#164854" d="M65.01,31.628c-18.437,0-33.384,14.946-33.384,33.383S46.574,98.395,65.01,98.395
			c18.437,0,33.383-14.946,33.383-33.384S83.448,31.628,65.01,31.628 M65.01,86.682c-11.969,0-21.671-9.703-21.671-21.671
			c0-11.969,9.701-21.67,21.671-21.67c11.968,0,21.669,9.701,21.669,21.67C86.68,76.979,76.979,86.682,65.01,86.682"/>
		<path id="XMLID_2394_" fill="#164854" d="M107.515,30.308c0,4.308-3.493,7.802-7.801,7.802c-4.31,0-7.802-3.494-7.802-7.802
			s3.493-7.801,7.802-7.801C104.022,22.507,107.515,26,107.515,30.308"/>
	</g>
</g>
</svg>
