<?xml version="1.0" encoding="utf-8"?>
<!-- Generator: Adobe Illustrator 24.0.2, SVG Export Plug-In . SVG Version: 6.00 Build 0)  -->
<svg version="1.1" id="Capa_1" xmlns="http://www.w3.org/2000/svg" xmlns:xlink="http://www.w3.org/1999/xlink" x="0px" y="0px"
	 width="344.399px" height="520.434px" viewBox="0 0 344.399 520.434" enable-background="new 0 0 344.399 520.434"
	 xml:space="preserve">
<path fill="#722282" d="M116.39,46.686c-0.051,3.143-2.621,5.641-5.761,5.596c-3.143-0.048-5.644-2.645-5.593-5.773
	c0.045-3.134,2.636-5.644,5.773-5.596C113.939,40.976,116.45,43.549,116.39,46.686"/>
<path fill="#722282" d="M127.085,30.806c-0.06,3.512-2.939,6.301-6.436,6.25c-3.497-0.06-6.304-2.954-6.238-6.448
	c0.054-3.506,2.942-6.301,6.444-6.238C124.35,24.421,127.142,27.303,127.085,30.806"/>
<path fill="#722282" d="M143.138,17.724c-0.06,3.947-3.308,7.089-7.254,7.02c-3.95-0.057-7.107-3.314-7.038-7.254
	c0.057-3.955,3.32-7.092,7.263-7.026C140.07,10.53,143.206,13.775,143.138,17.724"/>
<path fill="#722282" d="M164.288,9.619c-0.066,4.414-3.71,7.944-8.124,7.86c-4.426-0.06-7.953-3.704-7.875-8.121
	c0.063-4.42,3.719-7.959,8.127-7.884C160.839,1.555,164.366,5.193,164.288,9.619"/>
<path fill="#722282" d="M188.933,9.055c-0.078,4.927-4.138,8.838-9.054,8.763c-4.933-0.093-8.859-4.135-8.772-9.057
	c0.087-4.927,4.138-8.844,9.062-8.76C185.079,0.085,189.002,4.125,188.933,9.055"/>
<path fill="#722282" d="M214.124,18.051c-0.078,5.527-4.639,9.932-10.163,9.83c-5.524-0.096-9.932-4.642-9.851-10.16
	c0.093-5.533,4.648-9.926,10.169-9.839C209.812,7.975,214.217,12.515,214.124,18.051"/>
<path fill="#722282" d="M235.781,37.016c-0.099,6.148-5.164,11.063-11.33,10.964c-6.145-0.096-11.054-5.17-10.961-11.318
	c0.102-6.157,5.17-11.066,11.333-10.964C230.977,25.789,235.889,30.857,235.781,37.016"/>
<path fill="#722282" d="M249.999,65.873c-0.114,7.296-6.112,13.102-13.396,12.979c-7.281-0.12-13.09-6.109-12.97-13.402
	c0.12-7.278,6.109-13.093,13.396-12.964C244.31,52.6,250.122,58.604,249.999,65.873"/>
<path fill="#722282" d="M23.014,165.048c2.684,1.61,3.566,5.092,1.955,7.782c-1.613,2.696-5.113,3.569-7.794,1.964
	c-2.693-1.622-3.563-5.11-1.958-7.806C16.84,164.322,20.321,163.425,23.014,165.048"/>
<path fill="#722282" d="M14.598,147.838c3.017,1.805,3.991,5.698,2.204,8.709c-1.811,2.99-5.719,3.97-8.721,2.171
	c-2.999-1.796-3.974-5.695-2.168-8.697C7.707,147.02,11.593,146.042,14.598,147.838"/>
<path fill="#722282" d="M11.303,127.395c3.38,2.033,4.486,6.421,2.447,9.8c-2.021,3.392-6.415,4.492-9.791,2.462
	c-3.404-2.024-4.492-6.418-2.459-9.809C3.527,126.46,7.912,125.362,11.303,127.395"/>
<path fill="#722282" d="M14.862,105.023c3.787,2.27,5.02,7.194,2.744,10.979c-2.279,3.797-7.191,5.032-10.988,2.75
	c-3.785-2.261-5.02-7.191-2.744-10.976C6.141,103.988,11.053,102.744,14.862,105.023"/>
<path fill="#722282" d="M26.683,83.411c4.234,2.525,5.596,7.995,3.065,12.217c-2.543,4.222-8.001,5.602-12.229,3.065
	c-4.213-2.534-5.584-7.998-3.059-12.22C16.999,82.254,22.46,80.877,26.683,83.411"/>
<path fill="#722282" d="M47.077,66.085c4.738,2.837,6.28,8.979,3.431,13.714c-2.846,4.747-8.985,6.289-13.726,3.458
	c-4.735-2.858-6.277-8.994-3.44-13.735C36.188,64.778,42.333,63.236,47.077,66.085"/>
<path fill="#722282" d="M74.335,56.809c5.269,3.17,6.993,10.004,3.82,15.294c-3.152,5.269-10.007,6.996-15.279,3.83
	c-5.281-3.158-6.999-10.004-3.833-15.288C62.198,55.354,69.048,53.636,74.335,56.809"/>
<path fill="#722282" d="M106.42,58.93c6.271,3.743,8.298,11.837,4.555,18.089c-3.752,6.244-11.839,8.28-18.095,4.537
	c-6.25-3.743-8.28-11.845-4.531-18.098C92.088,57.217,100.185,55.184,106.42,58.93"/>
<path fill="#722282" d="M78.828,305.092c2.732-1.532,6.19-0.552,7.71,2.189c1.538,2.75,0.534,6.208-2.204,7.731
	c-2.735,1.529-6.202,0.534-7.716-2.204C75.1,310.07,76.078,306.609,78.828,305.092"/>
<path fill="#722282" d="M59.714,303.769c3.074-1.703,6.933-0.609,8.634,2.45c1.691,3.059,0.591,6.936-2.477,8.628
	c-3.056,1.706-6.918,0.597-8.61-2.468C55.555,309.326,56.658,305.47,59.714,303.769"/>
<path fill="#722282" d="M40.36,296.403c3.449-1.91,7.803-0.672,9.719,2.774c1.913,3.455,0.681,7.809-2.771,9.722
	c-3.464,1.934-7.803,0.684-9.722-2.777C35.664,302.667,36.905,298.316,40.36,296.403"/>
<path fill="#722282" d="M22.76,282.137c3.871-2.147,8.742-0.756,10.883,3.119c2.156,3.86,0.765,8.736-3.107,10.883
	c-3.857,2.15-8.742,0.75-10.88-3.104C17.512,289.172,18.891,284.284,22.76,282.137"/>
<path fill="#722282" d="M9.956,261.09c4.306-2.399,9.725-0.849,12.115,3.458c2.393,4.309,0.846,9.725-3.452,12.124
	c-4.315,2.375-9.737,0.834-12.124-3.473C4.105,268.905,5.647,263.48,9.956,261.09"/>
<path fill="#722282" d="M5.156,234.769c4.825-2.693,10.91-0.951,13.585,3.887c2.69,4.828,0.96,10.922-3.866,13.612
	c-4.843,2.675-10.931,0.942-13.615-3.887C-1.421,243.541,0.313,237.456,5.156,234.769"/>
<path fill="#722282" d="M10.745,206.529c5.374-2.987,12.166-1.056,15.159,4.336c2.987,5.365,1.056,12.16-4.324,15.147
	c-5.377,2.984-12.163,1.056-15.153-4.324C3.428,216.305,5.359,209.515,10.745,206.529"/>
<path fill="#722282" d="M28.624,179.793c6.378-3.545,14.415-1.268,17.951,5.11c3.533,6.361,1.239,14.388-5.128,17.933
	c-6.367,3.542-14.4,1.247-17.936-5.119C19.976,191.354,22.261,183.326,28.624,179.793"/>
<path fill="#722282" d="M228.011,326.779c0.054-3.137,2.621-5.635,5.761-5.587c3.143,0.048,5.641,2.645,5.581,5.776
	c-0.033,3.131-2.624,5.629-5.758,5.584C230.461,332.495,227.951,329.916,228.011,326.779"/>
<path fill="#722282" d="M217.313,342.665c0.06-3.515,2.936-6.309,6.438-6.259c3.494,0.069,6.301,2.963,6.238,6.463
	c-0.054,3.503-2.945,6.295-6.442,6.229C220.051,349.05,217.259,346.168,217.313,342.665"/>
<path fill="#722282" d="M201.26,355.742c0.063-3.943,3.314-7.089,7.251-7.023c3.955,0.063,7.107,3.32,7.047,7.254
	c-0.063,3.97-3.32,7.104-7.272,7.032C204.331,362.942,201.191,359.704,201.26,355.742"/>
<path fill="#722282" d="M180.107,363.855c0.066-4.423,3.716-7.95,8.127-7.869c4.429,0.066,7.956,3.713,7.875,8.13
	c-0.063,4.423-3.713,7.95-8.124,7.875C183.568,371.907,180.029,368.281,180.107,363.855"/>
<path fill="#722282" d="M155.471,364.413c0.072-4.921,4.129-8.838,9.05-8.748c4.93,0.081,8.859,4.117,8.769,9.048
	c-0.084,4.915-4.135,8.838-9.06,8.76C159.315,373.386,155.393,369.346,155.471,364.413"/>
<path fill="#722282" d="M130.273,355.414c0.087-5.515,4.639-9.92,10.163-9.827c5.524,0.093,9.926,4.648,9.851,10.163
	c-0.096,5.527-4.645,9.938-10.172,9.839C134.588,365.508,130.186,360.947,130.273,355.414"/>
<path fill="#722282" d="M108.616,336.458c0.105-6.151,5.164-11.066,11.327-10.961c6.148,0.099,11.069,5.167,10.967,11.312
	c-0.105,6.157-5.176,11.063-11.33,10.967S108.511,342.614,108.616,336.458"/>
<path fill="#722282" d="M94.402,307.598c0.117-7.287,6.106-13.108,13.39-12.982c7.281,0.126,13.09,6.118,12.976,13.408
	c-0.114,7.275-6.112,13.084-13.405,12.97C100.093,320.874,94.276,314.874,94.402,307.598"/>
<path fill="#722282" d="M265.569,68.379c-2.735,1.526-6.187,0.543-7.71-2.198c-1.541-2.747-0.537-6.202,2.195-7.722
	c2.735-1.532,6.202-0.537,7.731,2.195C269.297,63.401,268.322,66.853,265.569,68.379"/>
<path fill="#722282" d="M284.681,69.7c-3.077,1.706-6.93,0.609-8.634-2.453c-1.688-3.056-0.591-6.927,2.471-8.625
	c3.056-1.709,6.921-0.6,8.619,2.459C288.84,64.137,287.736,67.997,284.681,69.7"/>
<path fill="#722282" d="M304.034,77.065c-3.446,1.916-7.803,0.669-9.719-2.78c-1.916-3.44-0.675-7.803,2.777-9.716
	c3.458-1.934,7.797-0.678,9.719,2.774C308.74,70.801,307.486,75.143,304.034,77.065"/>
<path fill="#722282" d="M321.635,91.328c-3.866,2.156-8.742,0.756-10.883-3.11c-2.153-3.871-0.765-8.739,3.11-10.883
	c3.854-2.153,8.739-0.756,10.886,3.104C326.886,84.308,325.506,89.178,321.635,91.328"/>
<path fill="#722282" d="M334.436,112.377c-4.306,2.408-9.722,0.846-12.106-3.449c-2.393-4.321-0.852-9.737,3.452-12.13
	c4.309-2.384,9.725-0.828,12.124,3.47C340.289,104.571,338.748,109.984,334.436,112.377"/>
<path fill="#722282" d="M339.247,138.7c-4.834,2.693-10.913,0.948-13.6-3.883c-2.684-4.825-0.954-10.925,3.874-13.612
	c4.837-2.684,10.928-0.945,13.618,3.884C345.821,129.925,344.082,136.013,339.247,138.7"/>
<path fill="#722282" d="M333.65,166.947c-5.374,2.981-12.16,1.05-15.153-4.342c-2.99-5.368-1.065-12.16,4.312-15.147
	c5.386-2.993,12.169-1.053,15.159,4.324C340.97,157.168,339.036,163.951,333.65,166.947"/>
<path fill="#722282" d="M315.764,193.677c-6.373,3.551-14.4,1.263-17.942-5.104c-3.533-6.37-1.239-14.397,5.128-17.939
	c6.366-3.545,14.397-1.247,17.933,5.122C324.416,182.11,322.125,190.15,315.764,193.677"/>
<path fill="#7B868C" d="M53.619,445.194c0,5.221-0.228,4.933,4.828,5.551v1.457H43.359v-1.457c5.047-0.618,4.822-0.33,4.822-5.551
	v-25.229c0-5.215,0.225-4.936-4.822-5.554v-1.463h14.688c9.314,0,13.909,3.707,13.909,10.436c0,8.073-7.281,12.445-15.867,11.95
	v-1.122c7.011,0.102,10.262-4.099,10.262-10.268c0-6.28-3.032-9.194-9.305-9.194h-3.428V445.194z"/>
<path fill="#7B868C" d="M75.19,412.947h16.317c5.668,0,11.33,2.975,11.33,9.539c0,5.773-3.533,9.752-7.857,11.438l5.5,8.358
	c2.804,4.096,5.947,8.016,7.905,9.2v0.72h-5.773c-3.308,0-5.101-6.112-11.89-17.384h-5.272v10.376c0,5.218-0.222,4.933,4.825,5.551
	v1.458H75.19v-1.458c5.05-0.618,4.825-0.333,4.825-5.551v-25.229c0-5.215,0.225-4.936-4.825-5.554V412.947z M85.449,433.034h4.657
	c4.873,0,7.119-3.707,7.119-10.046c0-6.112-3.359-8.238-7.455-8.238h-4.321V433.034z"/>
<path fill="#7B868C" d="M120.822,445.194c0,5.221-0.222,4.933,4.825,5.551v1.457h-15.084v-1.457c5.047-0.618,4.819-0.33,4.819-5.551
	v-25.229c0-5.215,0.228-4.936-4.819-5.554v-1.463h15.084v1.463c-5.047,0.618-4.825,0.339-4.825,5.554V445.194z"/>
<path fill="#7B868C" d="M165.738,452.202c-8.916-10.541-18.17-21.583-27.305-32.354v24.785c0,1.173,0.216,2.132,0.33,3.029
	c0.288,2.015,2.186,2.804,5.89,3.083v1.457h-13.735v-1.457c2.693-0.279,4.537-1.068,4.816-3.083
	c0.123-0.897,0.339-1.856,0.339-3.029v-26.408c-1.568-2.018-3.308-3.815-6.504-3.815v-1.463h10.205
	c8.358,10.154,17.048,20.467,25.4,30.621h0.114v-23.046c0-1.178-0.228-2.132-0.333-3.029c-0.276-2.015-2.183-2.804-5.89-3.083
	v-1.463h13.741v1.463c-2.639,0.279-4.546,1.068-4.825,3.083c-0.105,0.897-0.336,1.85-0.336,3.029v31.68H165.738z"/>
<path fill="#7B868C" d="M211.011,442.227l-1.676,7.008c0,1.23-1.011,1.458-2.582,1.961c-2.126,0.726-6.058,1.688-10.937,1.688
	c-11.495,0-21.871-5.5-21.871-20.53c0-8.637,7.356-20.074,22.437-20.074c5.44,0,8.016,1.014,10.766,1.907
	c1.568,0.504,2.186,1.293,2.186,2.183v7.239h-1.463c-0.162-4.486-3.026-9.368-11.941-9.368c-10.484,0-15.534,7.572-15.585,17.669
	c-0.057,11.156,5.041,19.007,16.485,19.007c7.452,0,10.934-4.267,12.73-8.691H211.011z"/>
<path fill="#7B868C" d="M214.082,450.746c5.044-0.618,4.822-0.333,4.822-5.551v-25.232c0-5.212,0.222-4.933-4.822-5.551v-1.463
	h0.057h25.004v9.029h-1.451c-0.564-4.147-1.685-7.227-5.722-7.227h-7.629v16.032h4.708c3.536,0,5.047-1.404,5.161-4.879h1.458v11.95
	h-1.458c-0.114-3.317-1.4-5.278-5.161-5.278h-4.708v12.676c0,4.768,2.189,5.161,7.239,5.161c8.13,0,7.734-2.303,10.31-8.301h1.463
	l-1.679,10.091h-27.592V450.746z"/>
<path fill="#7B868C" d="M265.721,421.31c-0.45-3.928-2.585-7.068-7.068-7.068c-3.251,0-6.163,1.682-6.163,5.833
	c0,3.923,3.916,6.277,9.527,10.484c5.941,4.429,7.851,7.293,7.851,11.941c0,6.675-6.84,10.382-13.573,10.382
	c-3.587,0-6.675-0.681-9.584-1.802c-0.222-0.108-0.399-0.333-0.399-0.783v-8.073h1.469c0.612,6.229,4.708,8.691,9.021,8.691
	c3.982,0,7.23-3.02,7.23-7.122c0-3.644-1.961-6.615-10.37-12.166c-3.023-2.021-6.786-4.204-6.786-10.316
	c0-5.05,5.614-9.029,12.049-9.029c2.42,0,5.608,0.282,7.857,1.065c0.333,0.114,0.396,0.339,0.396,0.618v7.347H265.721z"/>
<path fill="#7B868C" d="M294.588,421.018c-0.456-3.928-2.588-7.068-7.068-7.068c-3.26,0-6.178,1.682-6.178,5.833
	c0,3.923,3.931,6.277,9.539,10.484c5.944,4.429,7.851,7.293,7.851,11.941c0,6.675-6.84,10.382-13.567,10.382
	c-3.596,0-6.678-0.681-9.59-1.802c-0.225-0.108-0.396-0.333-0.396-0.783v-8.073h1.46c0.615,6.229,4.702,8.691,9.029,8.691
	c3.98,0,7.227-3.02,7.227-7.122c0-3.644-1.958-6.615-10.37-12.166c-3.026-2.021-6.783-4.204-6.783-10.316
	c0-5.05,5.599-9.03,12.049-9.03c2.414,0,5.614,0.282,7.857,1.065c0.333,0.114,0.393,0.339,0.393,0.618v7.347H294.588z"/>
<path fill="#7B868C" d="M59.206,510.711c0,2.021,0,3.146,0.3,4.561c0.297,1.346,2.912,1.721,6.271,1.949v2.315H42.163v-2.315
	c3.287-0.228,5.905-0.603,6.205-1.949c0.297-1.416,0.297-2.54,0.297-4.561v-34.676c0-2.015,0-3.143-0.297-4.555
	c-0.3-1.346-2.918-1.727-6.205-1.946v-2.315h23.613v2.315c-3.359,0.219-5.974,0.6-6.271,1.946c-0.3,1.412-0.3,2.54-0.3,4.555v13.231
	h22.503v-13.231c0-2.015,0-3.143-0.303-4.555c-0.3-1.346-2.909-1.727-6.205-1.946v-2.315h23.547v2.315
	c-3.293,0.219-5.911,0.6-6.211,1.946c-0.291,1.412-0.291,2.54-0.291,4.555v34.676c0,2.021,0,3.146,0.291,4.561
	c0.3,1.346,2.918,1.721,6.211,1.949v2.315H75.202v-2.315c3.296-0.228,5.905-0.603,6.205-1.949c0.303-1.416,0.303-2.54,0.303-4.561
	v-17.786H59.206V510.711z"/>
<path fill="#7B868C" d="M102.074,493.755c0-15.186,12.331-27.437,28.396-27.437c15.399,0,25.934,12.556,25.934,25.721
	c0,17.252-13.678,28.393-28.627,28.393C115.674,520.433,102.074,511.238,102.074,493.755 M144.82,494.121
	c0-17.486-8.367-25.109-16.368-25.109c-9.713,0-14.802,8.964-14.802,21.598c0,17.639,7.629,27.134,16.077,27.134
	C140.04,517.743,144.82,508.023,144.82,494.121"/>
<path fill="#7B868C" d="M176.087,499.655c0,9.195,2.834,16.143,12.556,16.143c9.12,0,14.278-5.155,14.278-17.036v-20.557
	c0-1.868-0.228-3.509-0.375-4.939c-0.375-2.462-2.387-3.512-6.349-3.731v-2.315h17.495v2.315c-4.048,0.219-6.064,1.269-6.361,3.731
	c-0.234,1.43-0.375,3.071-0.375,4.939v21.298c0,14.952-9.791,20.932-19.582,20.932c-16.82,0-21.823-8.073-21.823-21.298v-23.103
	c0-2.012,0-3.14-0.303-4.552c-0.297-1.346-2.912-1.727-6.208-1.946v-2.315h23.544v2.315c-3.278,0.219-5.905,0.6-6.202,1.946
	c-0.297,1.412-0.297,2.54-0.297,4.552V499.655z"/>
<path fill="#7B868C" d="M247.016,478.799c-1.344-4.708-4.114-9.785-10.013-9.785c-3.362,0-7.251,2.087-7.251,7.623
	c0,5.227,5.014,7.845,13.15,14.047c7.629,5.755,10.016,9.941,10.016,15.624c0,9.194-9.11,14.125-19.804,14.125
	c-6.202,0-10.31-0.897-14.2-2.39c-0.303-0.147-0.528-0.447-0.528-1.047v-11.363h2.024c1.271,6.801,5.533,12.106,11.878,12.106
	c4.861,0,9.2-3.958,9.2-9.416c0-4.933-2.174-8.292-12.628-15.102c-5.62-3.578-10.25-7.698-10.25-14.266
	c0-7.404,7.11-12.64,17.429-12.64c4.846,0,8.511,0.153,12.25,1.2c0.516,0.222,0.744,0.678,0.744,1.05v10.235H247.016z"/>
<path fill="#7B868C" d="M259.043,517.222c3.284-0.228,5.902-0.6,6.202-1.952c0.303-1.412,0.303-2.534,0.303-4.558v-34.676
	c0-2.015,0-3.146-0.303-4.555c-0.3-1.346-2.918-1.724-6.202-1.949v-2.315h36.7v12.031h-2.021c-1.122-5.311-2.918-9.266-8.142-9.266
	h-9.5v20.923h6.208c4.705,0,6.729-2.912,6.729-7.17h2.012v17.417h-2.012c-0.147-4.111-1.712-7.476-6.729-7.476h-6.208v16.97
	c0,5.677,2.771,6.124,8.901,6.124c9.488,0,10.907-4.109,14.044-10.757h2.024l-2.24,13.525h-39.765V517.222z"/>
<path fill="#7B868C" d="M299.574,475.184c0-4.327,3.461-7.875,7.878-7.875c4.087,0,7.875,3.548,7.875,7.875
	c0,4.33-3.788,7.878-7.875,7.878C303.034,483.062,299.574,479.514,299.574,475.184 M314.196,475.184
	c0-3.635-3.353-6.744-6.744-6.744c-3.724,0-6.744,3.131-6.744,6.744c0,3.635,3.044,6.744,6.744,6.744
	C310.825,481.928,314.196,478.819,314.196,475.184 M303.643,470.68h3.958c1.242,0,2.939,0.57,2.939,1.961
	c0,1.259-0.804,2.108-1.697,2.48l1.176,1.781c0.609,0.87,1.259,1.721,1.673,1.982v0.219h-1.652c-0.717,0-1.044-1.2-2.57-3.722
	h-1.131v2.198c0,0.411,0,0.585,0.045,0.891c0.045,0.24,0.477,0.261,0.978,0.324v0.309h-3.719v-0.309
	c0.501-0.063,0.936-0.084,0.978-0.324c0.045-0.306,0.045-0.48,0.045-0.891v-5.377c0-0.414,0-0.585-0.045-0.894
	c-0.042-0.237-0.477-0.261-0.978-0.321V470.68z M306.753,474.815c1.22,0,2.153-0.306,2.153-1.829c0-1.176-0.63-1.697-1.736-1.697
	h-0.462c-0.432,0-0.369,0.501-0.369,0.804v2.723H306.753z"/>
<path fill="#722282" d="M105.291,222.737c0,4.108,0,6.391,0.615,9.279c0.609,2.735,5.779,3.494,12.622,3.949v4.714H70.627v-4.714
	c6.837-0.456,12.01-1.215,12.622-3.949c0.606-2.888,0.606-5.17,0.606-9.279v-70.554c0-4.105,0-6.385-0.606-9.272
	c-0.612-2.735-5.785-3.5-12.622-3.952v-4.717h51.244c25.238,0,36.187,12.01,36.187,28.285c0,21.442-18.857,33.905-46.23,32.54
	v-3.809c15.054-0.45,23.115-10.484,23.115-27.212c0-13.537-6.235-23.871-21.286-23.871h-8.367V222.737z"/>
<path fill="#722282" d="M193.326,222.737c0,4.108,0,6.391,0.606,9.279c0.609,2.735,5.932,3.494,12.778,3.949v4.714h-48.057v-4.714
	c6.696-0.456,12.01-1.215,12.616-3.949c0.618-2.888,0.618-5.17,0.618-9.279v-70.554c0-4.105,0-6.385-0.618-9.272
	c-0.606-2.735-5.92-3.5-12.616-3.952v-4.717h48.057v4.717c-6.846,0.453-12.169,1.218-12.778,3.952
	c-0.606,2.888-0.606,5.167-0.606,9.272v26.915h45.765v-26.915c0-4.105,0-6.385-0.606-9.272c-0.612-2.735-5.929-3.5-12.616-3.952
	v-4.717h47.892v4.717c-6.687,0.453-12.016,1.218-12.619,3.952c-0.606,2.888-0.606,5.167-0.606,9.272v70.554
	c0,4.108,0,6.391,0.606,9.279c0.603,2.735,5.932,3.494,12.619,3.949v4.714H225.87v-4.714c6.687-0.456,12.004-1.215,12.616-3.949
	c0.606-2.888,0.606-5.17,0.606-9.279v-36.187h-45.765V222.737z"/>
<path fill="#722282" d="M237.975,314.54c-6.268-3.749-8.301-11.845-4.555-18.095c3.755-6.241,11.848-8.271,18.095-4.525
	c6.253,3.737,8.283,11.837,4.531,18.086C252.309,316.246,244.206,318.283,237.975,314.54"/>
<path fill="#722282" d="M270.063,316.658c-5.275-3.17-6.99-10.007-3.818-15.291c3.152-5.269,10.004-6.993,15.276-3.832
	c5.278,3.164,6.999,10.007,3.833,15.297C282.193,318.106,275.344,319.831,270.063,316.658"/>
<path fill="#722282" d="M297.32,307.386c-4.747-2.837-6.28-8.982-3.428-13.714c2.837-4.744,8.979-6.289,13.723-3.455
	c4.735,2.843,6.277,8.987,3.44,13.735C308.209,308.693,302.061,310.229,297.32,307.386"/>
<path fill="#722282" d="M317.712,290.059c-4.234-2.525-5.593-7.992-3.056-12.22c2.534-4.225,7.992-5.605,12.217-3.065
	c4.222,2.534,5.59,8.007,3.062,12.232C327.401,291.213,321.938,292.596,317.712,290.059"/>
<path fill="#722282" d="M329.536,268.447c-3.794-2.27-5.02-7.191-2.741-10.982c2.273-3.8,7.188-5.026,10.973-2.747
	c3.797,2.261,5.038,7.188,2.756,10.973C338.253,269.485,333.338,270.726,329.536,268.447"/>
<path fill="#722282" d="M333.095,246.068c-3.38-2.024-4.483-6.411-2.459-9.794c2.03-3.386,6.424-4.498,9.806-2.465
	c3.404,2.033,4.492,6.415,2.456,9.809C340.862,247.01,336.486,248.107,333.095,246.068"/>
<path fill="#722282" d="M329.791,225.625c-3.011-1.805-3.992-5.698-2.189-8.7c1.805-2.996,5.713-3.977,8.712-2.171
	c3.002,1.793,3.976,5.695,2.168,8.694C336.691,226.452,332.795,227.427,329.791,225.625"/>
<path fill="#722282" d="M321.383,208.416c-2.684-1.604-3.566-5.08-1.958-7.773c1.616-2.714,5.116-3.566,7.797-1.958
	c2.693,1.601,3.563,5.098,1.952,7.797C327.561,209.157,324.076,210.036,321.383,208.416"/>
</svg>
