<?xml version="1.0" encoding="utf-8"?>
<!-- Generator: Adobe Illustrator 24.0.2, SVG Export Plug-In . SVG Version: 6.00 Build 0)  -->
<svg version="1.1" id="Capa_1" xmlns="http://www.w3.org/2000/svg" xmlns:xlink="http://www.w3.org/1999/xlink" x="0px" y="0px"
	 width="500.233px" height="230.533px" viewBox="0 0 500.233 230.533" enable-background="new 0 0 500.233 230.533"
	 xml:space="preserve">
<path fill="#288DC1" d="M375.712,61.071l-70.818-46.202l-70.68,46.326c-2.381,1.559-5.574,0.889-7.133-1.492l-1.777-2.717
	c-1.555-2.381-0.885-5.574,1.496-7.129l74.387-48.752c2.252-1.472,5.159-1.472,7.413,0l74.524,48.625
	c2.382,1.559,3.051,4.751,1.496,7.133l-1.777,2.717C381.286,61.96,378.094,62.626,375.712,61.071"/>
<path fill="#6A6057" d="M447.412,21.172H444.4c-3.418,0-6.198,2.78-6.198,6.196v138.344c0,3.416,2.78,6.196,6.198,6.196h3.012
	c3.416,0,6.196-2.78,6.196-6.196V27.368C453.608,23.952,450.828,21.172,447.412,21.172"/>
<path fill="#6A6057" d="M494.035,0.464h-3.012c-3.418,0-6.198,2.78-6.198,6.196v159.051c0,3.416,2.78,6.194,6.198,6.194h3.012
	c3.416,0,6.198-2.778,6.198-6.194V6.66C500.233,3.244,497.452,0.464,494.035,0.464"/>
<path fill="#6A6057" d="M170.446,90.794c-7.274-7.386-17.408-11.454-28.536-11.454c-12.659,0-23.552,4.757-31.497,13.759
	c-7.453,8.442-11.556,19.935-11.556,32.361c0,0.279,0.004,1.547,0.004,1.547c0.181,12.402,4.372,23.752,11.801,31.962
	c7.883,8.713,18.688,13.317,31.248,13.317c13.507,0,23.834-4.904,30.425-8.593c1.439-0.807,2.47-2.201,2.831-3.826
	c0.367-1.655,0.01-3.397-0.98-4.773l-1.298-1.804c-1.702-2.368-4.918-3.153-7.486-1.828c-0.601,0.31-1.213,0.64-1.845,0.978
	c-4.785,2.564-10.739,5.756-20.116,5.756c-18.643,0-28.956-15.092-28.956-25.542l-0.104-0.874c0-0.691,0.251-1.327,0.711-1.787
	c0.426-0.426,1.001-0.662,1.62-0.662h60.439c2.115,0,3.874-1.659,4.092-3.852c0.23-1.602,0.438-4.429,0.438-5.931
	C181.679,108.363,177.688,98.15,170.446,90.794z M165.622,116.118c-0.357,0.414-0.876,0.652-1.423,0.652h-47.509
	c-0.565,0-1.096-0.253-1.455-0.693c-0.351-0.43-0.491-0.986-0.381-1.522c2.588-12.696,13.713-21.563,27.056-21.563
	c5.902,0,11.623,2.291,16.107,6.453c4.341,4.027,7.193,9.428,8.036,15.213C166.128,115.182,165.971,115.714,165.622,116.118z"/>
<path fill="#6A6057" d="M403.147,90.793c-7.272-7.386-17.406-11.454-28.536-11.454c-12.659,0-23.55,4.759-31.495,13.761
	c-7.453,8.442-11.558,19.933-11.558,32.359c0,0.281,0.006,1.545,0.006,1.549c0.179,12.402,4.37,23.752,11.799,31.962
	c7.885,8.711,18.69,13.315,31.247,13.315c13.509,0,23.836-4.904,30.427-8.593c1.439-0.805,2.47-2.199,2.831-3.823
	c0.369-1.657,0.012-3.398-0.98-4.777l-1.3-1.804c-1.702-2.368-4.916-3.153-7.484-1.828c-0.601,0.31-1.213,0.64-1.848,0.98
	c-4.782,2.564-10.737,5.754-20.114,5.754c-18.645,0-28.954-15.092-28.956-25.54l-0.104-0.874c0-0.691,0.251-1.327,0.709-1.787
	c0.428-0.428,1.003-0.662,1.62-0.662h60.441c2.112,0,3.872-1.659,4.089-3.854c0.23-1.6,0.44-4.427,0.44-5.931
	C414.383,108.362,410.394,98.151,403.147,90.793z M398.325,116.117c-0.357,0.414-0.878,0.652-1.423,0.652h-47.509
	c-0.565,0-1.095-0.251-1.455-0.693c-0.351-0.43-0.493-0.984-0.383-1.522c2.59-12.695,13.713-21.561,27.056-21.561
	c5.902,0,11.623,2.291,16.109,6.453c4.339,4.025,7.192,9.428,8.036,15.211C398.83,115.183,398.675,115.715,398.325,116.117z"/>
<path fill="#6A6057" d="M313.324,79.424h-3.457c-2.493,0-4.7,1.679-5.366,4.082l-16.307,58.743L264.022,83.48
	c-0.858-2.097-2.88-3.451-5.148-3.451h-3.451c-2.268,0-4.292,1.357-5.15,3.455l-24.148,58.765l-16.264-58.667
	c-0.664-2.405-2.87-4.084-5.366-4.084h-3.497c-1.755,0-3.371,0.801-4.433,2.199c-1.062,1.398-1.404,3.169-0.935,4.857l22.529,81.403
	c0.666,2.405,2.872,4.084,5.37,4.084h2.005c2.268,0,4.29-1.353,5.152-3.45l26.473-64.356l26.451,64.266
	c0.856,2.081,2.864,3.436,5.116,3.45l2.008,0.014h0.026c2.501,0,4.708-1.677,5.372-4.084l22.56-81.401
	c0.469-1.69,0.128-3.461-0.934-4.857C316.693,80.225,315.079,79.424,313.324,79.424"/>
<path fill="#6A6057" d="M36.721,79.463c-12.196,0-22.197,3.053-30.368,6.039C2.613,86.739,0,90.198,0,93.913v72.125
	c0,3.343,2.721,6.065,6.065,6.065h3.186c3.341,0,6.061-2.721,6.061-6.065v-65.689c0-1.329,0.793-2.511,2.02-3.01
	c3.408-1.386,10.439-3.713,19.256-3.713c7.598,0,14.552,2.309,19.582,6.5c5.075,4.229,7.871,10.132,7.871,16.625v49.286
	c0,3.343,2.719,6.065,6.061,6.065h3.19c3.341,0,6.061-2.721,6.061-6.065V116.74C79.352,94.79,61.822,79.463,36.721,79.463"/>
<path fill="#288DC1" d="M232.703,207.865c0.473-2.048,0.098-3.976-1.06-5.43c-1.386-1.743-3.752-2.701-6.665-2.701h-10.131
	c-0.55,0-1.076,0.41-1.198,0.935l-6.563,28.434c-0.061,0.255-0.01,0.51,0.141,0.701c0.153,0.194,0.395,0.304,0.677,0.304h10.631
	c5.786,0,10.8-3.538,11.923-8.413c0.966-4.162-2.15-6.241-3.834-7.04C228.135,213.876,231.84,211.62,232.703,207.865z
	 M225.225,221.285c-0.599,2.603-3.102,4.565-5.819,4.565h-6.689l2.054-8.892h6.078c1.62,0,3.006,0.575,3.803,1.577
	C225.265,219.305,225.463,220.257,225.225,221.285z M227.269,208.31c-0.607,2.641-2.902,4.484-5.576,4.484h-5.919l2.014-8.719h5.988
	c1.362,0,2.407,0.408,3.021,1.18C227.395,206.005,227.558,207.062,227.269,208.31z"/>
<g>
	<path fill="#288DC1" d="M258.617,199.733h-12.306c-0.552,0-1.076,0.41-1.196,0.934l-6.563,28.434
		c-0.061,0.255-0.012,0.51,0.139,0.701c0.155,0.194,0.397,0.304,0.677,0.304h2.941c0.518,0,1.078-0.438,1.196-0.937l2.501-10.837
		h6.599l3.359,11.277c0.075,0.247,0.365,0.497,0.777,0.497h3.53c0.426,0,0.805-0.188,1.041-0.518c0.2-0.279,0.261-0.626,0.159-0.927
		l-3.632-10.773c4.474-1.618,7.788-4.971,8.668-8.78c0.559-2.429,0.102-4.73-1.292-6.481
		C263.729,200.762,261.387,199.733,258.617,199.733z M261.485,209.129c-0.652,2.823-3.675,5.209-6.601,5.209h-7.865l2.338-10.138
		h7.936c1.425,0,2.697,0.573,3.489,1.569C261.52,206.697,261.772,207.89,261.485,209.129z"/>
	<path fill="#288DC1" d="M298.134,228.801l-7.127-28.915c-0.098-0.328-0.514-0.583-0.805-0.583h-0.452
		c-0.275,0-0.772,0.234-1.001,0.54l-20.565,28.907c-0.234,0.322-0.289,0.677-0.149,0.948c0.131,0.259,0.418,0.404,0.783,0.404h2.849
		c0.611,0,1.09-0.383,1.315-0.709c0.697-1.015,1.406-2.016,2.112-3.019c0.658-0.929,1.313-1.859,1.961-2.8h14.597l1.417,5.77
		c0.124,0.503,0.475,0.758,1.039,0.758h2.851c0.393,0,0.764-0.173,0.988-0.461C298.14,229.394,298.209,229.088,298.134,228.801z
		 M279.883,219.58l8.028-11.469h0.028l2.776,11.469H279.883z"/>
</g>
<path fill="#288DC1" d="M336.954,199.732h-2.898c-0.538,0-1.072,0.418-1.192,0.935l-4.626,20.025l-14.499-21.323l-0.045-0.065
	h-1.213c-0.53,0-1.072,0.408-1.184,0.889l-6.673,28.909c-0.057,0.245,0,0.497,0.153,0.689c0.157,0.198,0.4,0.312,0.666,0.312h2.851
	c0.542,0,1.078-0.418,1.196-0.934l4.759-20.626l14.405,21.989h1.258c0.542,0,1.076-0.401,1.188-0.889l6.673-28.909
	c0.055-0.247,0-0.499-0.153-0.689C337.463,199.846,337.219,199.732,336.954,199.732"/>
<path fill="#288DC1" d="M371.33,204.367c-2.376-2.99-6.09-4.635-10.458-4.635h-10.407c-0.507,0-1.033,0.43-1.149,0.936
	l-6.565,28.434c-0.061,0.257-0.01,0.516,0.143,0.711c0.149,0.188,0.373,0.293,0.63,0.293h10.407c8.823,0,17.575-6.817,19.507-15.194
	C374.35,210.966,373.602,207.222,371.33,204.367z M368.122,214.843c-1.453,6.302-7.292,10.877-13.884,10.877h-5.782l4.991-21.602
	h5.849c3.226,0,5.884,1.109,7.486,3.124C368.328,209.187,368.806,211.887,368.122,214.843z"/>
<path fill="#288DC1" d="M403.75,202.519c-0.028-0.267-0.167-0.512-0.363-0.648c-0.764-0.603-3.597-2.568-7.879-2.568
	c-7.358,0-11.142,4.824-11.891,8.065c-1.204,5.213,2.277,7.539,6.22,9.277c4.386,1.899,5.892,3.524,5.368,5.8
	c-0.52,2.246-2.998,3.877-5.89,3.877c-3.253,0-5.945-2.435-6.453-2.923c-0.461-0.436-1.211-0.291-1.826,0.349
	c-0.277,0.289-0.55,0.601-0.813,0.903c-0.251,0.289-0.513,0.589-0.772,0.858l-0.006,0.008c-0.672,0.789-0.416,1.182-0.045,1.575
	c0.516,0.573,3.373,3.442,9.059,3.442c5.821,0,11.028-3.542,12.111-8.238c1.278-5.536-3.251-7.957-7.596-9.793
	c-3.636-1.549-4.912-3.069-4.408-5.24c0.296-1.296,1.906-3.746,5.858-3.746c1.078,0,2.892,0.355,5.411,2.042
	c0.057,0.037,0.096,0.067,0.112,0.075c0.563,0.402,1.282,0.232,1.881-0.448c0.212-0.228,0.438-0.469,0.664-0.717
	c0.287-0.312,0.577-0.628,0.846-0.915C403.727,203.138,403.776,202.761,403.75,202.519"/>
</svg>
