<?xml version="1.0" encoding="utf-8"?>
<!-- Generator: Adobe Illustrator 24.0.2, SVG Export Plug-In . SVG Version: 6.00 Build 0)  -->
<svg version="1.1" id="Capa_1" xmlns="http://www.w3.org/2000/svg" xmlns:xlink="http://www.w3.org/1999/xlink" x="0px" y="0px"
	 width="177.694px" height="178.13px" viewBox="0 0 177.694 178.13" enable-background="new 0 0 177.694 178.13"
	 xml:space="preserve">
<g>
	<path fill="#164854" d="M0,178.13l12.771-47.649C5.54,117.436,1.735,102.817,1.735,87.979C1.735,39.468,41.203,0,89.714,0
		c48.513,0,87.98,39.468,87.98,87.979c0,48.512-39.468,87.981-87.98,87.981c-14.563,0-28.946-3.677-41.82-10.66L0,178.13z
		 M50.275,147.444l3.016,1.799c11.074,6.597,23.668,10.087,36.423,10.087c39.342,0,71.351-32.006,71.351-71.351
		c0-39.343-32.008-71.348-71.351-71.348c-39.341,0-71.349,32.005-71.349,71.348c0,12.992,3.609,25.782,10.434,36.993l1.851,3.038
		l-7.128,26.603L50.275,147.444z"/>
	<path fill-rule="evenodd" clip-rule="evenodd" fill="#164854" d="M122.443,100.215c-3.622-2.166-8.334-4.584-12.599-2.839
		c-3.273,1.339-5.363,6.463-7.483,9.078c-1.089,1.343-2.387,1.552-4.059,0.88c-12.285-4.893-21.7-13.095-28.479-24.396
		c-1.148-1.757-0.942-3.14,0.441-4.769c2.049-2.41,4.619-5.149,5.174-8.4c0.553-3.248-0.971-7.047-2.314-9.941
		c-1.716-3.698-3.635-8.971-7.339-11.062c-3.407-1.924-7.891-0.847-10.923,1.624c-5.236,4.264-7.763,10.944-7.686,17.566
		c0.021,1.881,0.252,3.758,0.692,5.574c1.057,4.368,3.076,8.446,5.347,12.324c1.713,2.924,3.574,5.761,5.583,8.49
		c6.571,8.926,14.747,16.684,24.213,22.481c4.729,2.897,9.823,5.437,15.099,7.181c5.916,1.955,11.187,3.99,17.576,2.776
		c6.689-1.27,13.284-5.41,15.938-11.855c0.785-1.909,1.179-4.034,0.739-6.049C131.455,104.708,125.813,102.23,122.443,100.215z"/>
</g>
</svg>
