<?xml version="1.0" encoding="utf-8"?>
<!-- Generator: Adobe Illustrator 24.0.2, SVG Export Plug-In . SVG Version: 6.00 Build 0)  -->
<svg version="1.1" id="Layout" xmlns="http://www.w3.org/2000/svg" xmlns:xlink="http://www.w3.org/1999/xlink" x="0px" y="0px"
	 viewBox="0 0 963.744 1056.277" enable-background="new 0 0 963.744 1056.277" xml:space="preserve">
<path fill="#1A1E37" d="M920.86,516.82c-1.096,2.946-2.2,5.892-3.27,8.838c-115.458,312.346-380.892,536.147-636.086,530.514
	c-248.5-5.552-344.728-265.35-239.139-541.084C163.92,197.554,431.514,1.394,671.976,0.006
	c228.148-1.242,352.579,181.399,262.028,477.376l-214.311-15.26c65.513-201.072,91.398-413.883-65.95-413.025
	c-174.461,1.037-317.289,262.998-397.627,480.236c-47.755,129.359-169.497,478.861,43.457,477.732
	c211.544-1.164,347.727-345.851,396.479-477.353l-8.169,0.452c-85.893,5.111-143.092,12.912-209.786,110.507
	c-28.934,42.286-48.229,69.957-60.11,93.024c-2.545,4.768-4.674,4.467-3.543-0.823c3.047-13.579,11.663-43.655,22.039-90.772
	c16.772-76.782-14.225-129.018-79.359-141.085c-19.795-3.66-43.945-6.893-57.455-8.325c-5.365-0.504-4.214-2.883,1.67-3.653
	c12.046-1.416,22.654-1.795,57.292-5.331c149.018-15.116,182.018-71.023,225.553-152.198l22.293-42.15
	c2.581-5.841,5.559-4.122,4.247,1.287l-11.636,51.317c-22.259,100.357-4.475,137.663,105.166,145.164l221.995,10.8L920.86,516.82z"
	/>
</svg>
