<?xml version="1.0" encoding="utf-8"?>
<!-- Generator: Adobe Illustrator 24.0.2, SVG Export Plug-In . SVG Version: 6.00 Build 0)  -->
<svg version="1.1" id="Capa_1" xmlns="http://www.w3.org/2000/svg" xmlns:xlink="http://www.w3.org/1999/xlink" x="0px" y="0px"
	 width="406.297px" height="393.292px" viewBox="0 0 406.297 393.292" enable-background="new 0 0 406.297 393.292"
	 xml:space="preserve">
<g>
	<path fill="#F3C352" d="M404.297,201.149h-69.239v4h69.239c1.104,0,2-0.896,2-2S405.402,201.149,404.297,201.149z"/>
	<path fill="#F3C352" d="M2,201.149c-1.104,0-2,0.896-2,2s0.896,2,2,2h69.935v-4H2z"/>
	<path fill="#F3C352" d="M205.149,2c0-1.104-0.896-2-2-2s-2,0.896-2,2v118.308h4V2z"/>
	<path fill="#F3C352" d="M346.796,62.329c0.781-0.781,0.781-2.047,0-2.828s-2.047-0.781-2.828,0l-60.807,60.807h5.656
		L346.796,62.329z"/>
	<path fill="#F3C352" d="M62.329,59.501c-0.78-0.781-2.048-0.781-2.828,0c-0.781,0.781-0.781,2.047,0,2.828l57.979,57.979h5.656
		L62.329,59.501z"/>
	<path fill="#F3C352" d="M16.246,277.526c-1.022,0.418-1.512,1.586-1.093,2.608c0.317,0.774,1.064,1.243,1.852,1.243
		c0.252,0,0.509-0.049,0.757-0.15l54.173-22.185v-4.322L16.246,277.526z"/>
	<path fill="#F3C352" d="M390.052,128.772c1.022-0.418,1.512-1.586,1.093-2.608c-0.417-1.022-1.584-1.511-2.608-1.093l-53.478,21.9
		v4.322L390.052,128.772z"/>
	<path fill="#F3C352" d="M128.772,16.246c-0.418-1.022-1.583-1.511-2.608-1.093c-1.022,0.419-1.512,1.587-1.093,2.609
		l41.994,102.547h4.322L128.772,16.246z"/>
	<path fill="#F3C352" d="M282.717,18.396c0.427-1.019-0.053-2.191-1.072-2.618c-1.018-0.428-2.19,0.053-2.617,1.072l-43.343,103.458
		h4.337L282.717,18.396z"/>
	<path fill="#F3C352" d="M18.396,123.58c-1.019-0.427-2.19,0.054-2.618,1.072c-0.427,1.019,0.053,2.191,1.072,2.618l55.085,23.077
		v-4.337L18.396,123.58z"/>
	<path fill="#F3C352" d="M387.902,282.717c0.252,0.105,0.514,0.156,0.771,0.156c0.782,0,1.524-0.462,1.846-1.229
		c0.427-1.019-0.053-2.19-1.072-2.617l-54.389-22.785v4.337L387.902,282.717z"/>
	<g>
		<g>
			<path fill="#FF6641" d="M335.058,179.704l23.21-4.484c1.085-0.209,1.794-1.259,1.585-2.343c-0.21-1.085-1.265-1.793-2.343-1.584
				l-22.452,4.337V179.704z"/>
		</g>
		<g>
			<path fill="#FF6641" d="M46.445,233.421c0.185,0.957,1.022,1.621,1.962,1.621c0.125,0,0.253-0.012,0.381-0.036l23.147-4.472
				v-4.074l-23.906,4.618C46.945,231.288,46.235,232.337,46.445,233.421z"/>
		</g>
		<g>
			<path fill="#FF6641" d="M185.108,120.308h4.074l-13.963-72.279c-0.209-1.084-1.255-1.792-2.343-1.584
				c-1.084,0.209-1.794,1.259-1.584,2.343L185.108,120.308z"/>
		</g>
		<g>
			<path fill="#FF6641" d="M293.086,73.714c0.618-0.915,0.378-2.158-0.537-2.777c-0.913-0.619-2.158-0.378-2.777,0.537
				l-33.022,48.835h4.829L293.086,73.714z"/>
		</g>
		<g>
			<path fill="#FF6641" d="M71.473,116.526l10.511,7.107c1.294-0.823,2.684-1.497,4.141-2.028l-12.411-8.392
				c-0.915-0.619-2.158-0.378-2.777,0.537C70.318,114.664,70.558,115.907,71.473,116.526z"/>
		</g>
		<g>
			<path fill="#FF6641" d="M336.693,115.75c-0.604-0.924-1.845-1.182-2.77-0.578l-11.037,7.224c1.342,0.641,2.606,1.414,3.776,2.31
				l9.453-6.187C337.038,117.913,337.297,116.674,336.693,115.75z"/>
		</g>
		<g>
			<path fill="#FF6641" d="M146.543,120.308h4.781l-32.805-50.125c-0.604-0.923-1.843-1.184-2.769-0.578
				c-0.924,0.604-1.183,1.844-0.578,2.769L146.543,120.308z"/>
		</g>
		<g>
			<path fill="#FF6641" d="M237.327,49.285c0.226-1.081-0.468-2.141-1.549-2.366c-1.085-0.224-2.142,0.467-2.367,1.549
				l-15.004,71.84h4.087L237.327,49.285z"/>
		</g>
		<g>
			<path fill="#FF6641" d="M357.83,233.411l-22.772-4.756v4.087l21.954,4.585c0.139,0.028,0.275,0.042,0.411,0.042
				c0.927,0,1.759-0.647,1.956-1.591C359.605,234.697,358.911,233.637,357.83,233.411z"/>
		</g>
		<g>
			<path fill="#FF6641" d="M46.919,170.52c-0.226,1.081,0.467,2.141,1.549,2.366l23.467,4.901v-4.086l-22.65-4.73
				C48.207,168.746,47.145,169.44,46.919,170.52z"/>
		</g>
		<g>
			<path fill="#FF6641" d="M249.232,242.933c-0.815-1.36-1.827-2.459-3.014-3.375c-1.935-1.4-4.183-2.223-6.523-2.691
				c-1.664-0.333-3.373-0.492-5.054-0.526c-0.377-0.007-0.761-0.011-1.144-0.016c-2.014-0.023-4.089,0.007-6.15,0.146
				c-1.504,0.101-2.997,0.26-4.449,0.508c-0.495,0.084-0.986,0.176-1.47,0.282c-0.65,0.139-1.297,0.319-1.938,0.519
				c-1.284,0.4-2.533,0.918-3.668,1.597c-1.194,0.715-2.26,1.602-3.12,2.686c-0.333,0.42-0.642,0.864-0.907,1.345
				c-1.14,2.047-1.605,4.406-1.603,6.752c0.001,1.449,0.179,2.893,0.493,4.256c0.235,1.074,0.553,2.146,0.946,3.193
				c1.174,3.128,3.055,6.028,5.635,8.077c0.929,0.738,1.944,1.371,3.055,1.857c2.106,0.927,4.862,1.387,7.662,1.529
				c1.456,0.074,2.92,0.062,4.314-0.02c2.596-0.153,4.939-0.539,6.472-1.04c1.164-0.393,2.28-0.995,3.322-1.706
				c1.134-0.774,2.165-1.683,3.052-2.642c0.743-0.803,1.394-1.633,1.896-2.437c1.382-2.351,2.583-5.215,3.199-8.159
				c0.369-1.761,0.523-3.549,0.379-5.277C250.477,246.081,250.05,244.431,249.232,242.933z"/>
		</g>
		<g>
			<path fill="#FF6641" d="M194.626,148.488c-1.295,0.201-2.604,0.456-3.922,0.789c-0.608,0.154-1.217,0.321-1.827,0.505
				c-1.646,0.495-3.234,1.03-4.77,1.591c-1.286,0.47-2.528,0.959-3.722,1.466c-2.138,0.907-4.127,1.861-5.911,2.843
				c-1.244,0.684-2.38,1.381-3.42,2.08c-2.298,1.544-4.08,3.102-5.179,4.576c-0.142,0.094-0.276,0.198-0.416,0.294
				c-1.011,0.693-1.98,1.431-2.933,2.165c-0.151,0.034-0.294,0.079-0.443,0.115c-2.82,0.673-5.439,1.655-7.803,2.778
				c-1.424,0.677-2.762,1.397-3.987,2.133c-3.645,2.187-6.333,4.44-7.778,5.756c-0.771,0.702-1.203,1.148-1.203,1.148
				s0.675-0.334,1.873-0.868c1.739-0.775,4.591-1.974,8.17-3.218c-1.43,1.453-2.868,3.073-4.276,4.85
				c-0.334,0.421-0.667,0.843-0.996,1.284c-0.506,0.67-0.973,1.354-1.411,2.045c-1.539,2.428-2.674,4.948-3.509,7.341
				c-0.466,1.336-0.838,2.631-1.136,3.849c-1.176,4.803-1.195,8.388-1.195,8.388s1.23-3.311,3.603-7.885
				c0.135-0.26,0.271-0.521,0.413-0.789c-0.117,0.268-0.222,0.537-0.329,0.806c-1.139,2.846-1.742,5.749-1.618,8.619
				c0.008,0.177,0.007,0.355,0.02,0.532c0.081,1.1,0.178,2.267,0.281,3.468c0.208,2.413,0.455,5.025,0.725,7.79
				c0.127,1.301,0.258,2.632,0.392,3.998c0.272,2.761,0.555,5.635,0.836,8.617c0.129,1.369,0.257,2.76,0.383,4.165
				c0.278,3.107,0.542,6.3,0.782,9.538c0.112,1.516,0.217,3.041,0.315,4.575c0.305,4.752,0.536,9.568,0.642,14.357
				c0.037,1.666,0.063,3.329,0.068,4.982c0.085-1.772,0.175-3.547,0.273-5.324c0.27-4.862,0.62-9.732,1.239-14.552
				c0.163,0.071,0.313,0.13,0.495,0.199c0.179,0.098,0.455,0.185,0.731,0.268c0.183,0.112,0.365,0.187,0.462,0.277
				c0.088,0.125,0.176,0.125,0.265,0.182c0.467,0.378,1.105,1.025,1.661,2.208c0.553,1.186,1.103,2.656,1.368,4.863
				c0.011,0.096,0.031,0.192,0.044,0.288c0.206,1.563,0.579,3.102,1.069,4.588c0.719,2.182,1.683,4.246,2.749,6.066
				c0.648,1.04,1.59,2.252,2.756,3.432c0.9,0.909,1.944,1.786,3.099,2.559c1.158,0.775,2.417,1.448,3.784,1.893
				c1.837,0.558,4.372,0.956,7.115,1.112c0.826,0.047,1.669,0.074,2.519,0.074c0.559,0,1.171-0.015,1.803-0.039
				c2.8-0.109,6.175-0.516,8.945-1.779c0.588-0.261,1.157-0.566,1.713-0.9c1.896-1.139,3.596-2.689,5.037-4.554
				c2.023-2.618,3.537-5.849,4.351-9.435c0.19-0.725,0.278-1.465,0.369-2.191c0.972-4.716,2.483-6.134,3.953-6.5
				c0.339-0.084,0.675-0.113,1.002-0.113c0,0,0.091,0,0.091-0.093c0,0,0.088-0.089,0.088-0.194c0,0.105,0.1,0.105,0.1,0.194
				l0.033,0.045v-5.657c0.012,0.005,0.045,0.005,0.055,0.005c0.546-0.08,1.103-0.08,1.834-0.182c0.244-0.06,0.523-0.087,0.797-0.12
				c0.135-0.016,0.274-0.029,0.398-0.058c0.179,0,0.458-0.089,0.645-0.089c0.589-0.111,1.225-0.254,1.887-0.436
				c1.19-0.327,2.472-0.798,3.781-1.518c0.344-0.189,0.689-0.391,1.035-0.616c0.525-0.332,1.066-0.63,1.615-0.908
				c1.196-0.606,2.442-1.093,3.709-1.497c0.88-0.28,1.769-0.525,2.659-0.737c0.009-0.002,0.016-0.003,0.025-0.005
				c0.818-0.158,1.542-0.344,2.365-0.435c0.655-0.089,1.316-0.165,1.978-0.234c1.638-0.17,3.271-0.278,4.836-0.349
				c0.455-0.021,0.913-0.043,1.353-0.057h1.837c0.55,0,1.191,0.084,1.834,0.084c0.229,0.08,0.507,0.09,0.753,0.093
				c0.055,0.001,0.118,0.004,0.168,0.004c0.636,0.087,1.286,0.087,1.922,0.194c0.927,0.069,1.929,0.182,2.844,0.265
				c1.568,0.175,3.129,0.466,4.599,0.641c0.005,0,0.008,0.001,0.012,0.001c0.355,0.002,0.629,0.086,0.896,0.086
				c0.467,0,1.017,0.104,1.477,0.189c2.019,0.272,4.039,0.648,6.147,1.107c0.341,0.081,0.705,0.177,1.057,0.265
				c1.065,0.268,2.161,0.557,3.298,0.848c-0.589-3.408-1.431-6.518-2.734-9.363c-0.971-2.121-2.199-4.095-3.787-5.923
				c-2.283-2.629-5.295-4.967-9.325-7.036c-1.017-0.521-2.028-1.032-3.04-1.546c-4.491-2.279-8.935-4.525-13.309-6.866
				c-0.462-0.247-0.922-0.497-1.383-0.747c-0.595-0.323-1.195-0.637-1.787-0.965c0.074,0.326,0.141,0.645,0.209,0.965
				c0.009,0.044,0.02,0.09,0.029,0.134c0.312,1.501,0.548,2.926,0.725,4.238c0.007,0.051,0.013,0.1,0.02,0.151
				c0.232,1.752,0.363,3.295,0.434,4.519c0.018,0.322,0.033,0.619,0.044,0.896c0.055,1.344,0.035,2.131,0.035,2.131
				s-0.441-1.165-1.337-3.01c-0.106-0.219-0.219-0.447-0.338-0.684c-0.683-1.36-1.578-3.008-2.694-4.802
				c-0.185-0.298-0.377-0.599-0.575-0.904c-0.562-0.868-1.175-1.762-1.836-2.667c-0.293-0.402-0.597-0.805-0.91-1.209
				c-0.308-0.397-0.624-0.795-0.951-1.192c-0.44-0.536-0.899-1.069-1.375-1.599c-0.097-0.108-0.195-0.216-0.294-0.324
				c-0.465-0.509-0.944-1.013-1.442-1.51c-0.011-0.011-0.023-0.022-0.035-0.034c-0.461-0.459-0.938-0.909-1.427-1.353
				c-0.06-0.054-0.119-0.109-0.179-0.163c-0.374-0.335-0.755-0.665-1.146-0.99c-0.094-0.078-0.185-0.158-0.28-0.235
				c-0.371-0.302-0.749-0.599-1.135-0.889c-0.122-0.092-0.249-0.178-0.372-0.269c-0.363-0.266-0.733-0.527-1.109-0.782
				c-0.106-0.071-0.213-0.141-0.32-0.212c-0.492-0.325-0.995-0.639-1.508-0.94c-0.028-0.016-0.056-0.034-0.084-0.05
				c-0.526-0.306-1.06-0.604-1.608-0.882c0.477,0.471,0.935,0.952,1.375,1.44c0.108,0.119,0.212,0.24,0.318,0.36
				c0.297,0.338,0.586,0.679,0.866,1.023c0.218,0.268,0.432,0.536,0.64,0.806c0.098,0.126,0.194,0.253,0.29,0.379
				c0.251,0.333,0.493,0.667,0.728,1.001c0.044,0.062,0.088,0.124,0.131,0.186c0.247,0.354,0.487,0.709,0.718,1.062
				c0.003,0.004,0.005,0.008,0.007,0.011c0.243,0.373,0.475,0.743,0.7,1.112c0.007,0.012,0.015,0.024,0.022,0.037
				c0.238,0.391,0.468,0.779,0.686,1.163c0.01,0.018,0.019,0.035,0.03,0.053c0.214,0.377,0.417,0.75,0.613,1.118
				c0.078,0.147,0.156,0.294,0.231,0.439c0.16,0.309,0.312,0.612,0.459,0.911c0.16,0.325,0.313,0.645,0.458,0.957
				c0.09,0.195,0.177,0.385,0.262,0.574c0.333,0.741,0.625,1.439,0.874,2.072c0.015,0.038,0.029,0.074,0.043,0.112
				c0.387,0.989,0.673,1.82,0.872,2.438c0.243,0.756,0.357,1.194,0.357,1.194s-0.429-0.579-1.233-1.561
				c-0.571-0.697-1.34-1.605-2.273-2.649c-0.452-0.506-0.939-1.04-1.47-1.606c-0.29-0.31-0.59-0.626-0.903-0.95
				c-0.008-0.009-0.018-0.018-0.026-0.026c-0.214-0.222-0.435-0.447-0.659-0.675c-0.169-0.171-0.34-0.344-0.515-0.518
				c-0.15-0.15-0.304-0.302-0.459-0.455c-0.058-0.057-0.114-0.114-0.173-0.171c-0.067-0.065-0.128-0.128-0.196-0.194
				c-0.116-0.113-0.239-0.228-0.357-0.342c-0.063-0.061-0.128-0.122-0.191-0.183c-0.049-0.046-0.097-0.093-0.146-0.14
				c-0.121-0.116-0.239-0.23-0.362-0.347c-0.009-0.008-0.017-0.017-0.026-0.025c-0.116-0.11-0.236-0.22-0.354-0.33
				c-0.025-0.024-0.052-0.047-0.077-0.071c-0.093-0.087-0.189-0.174-0.284-0.261c-0.115-0.106-0.229-0.212-0.346-0.318
				c-0.005-0.005-0.01-0.009-0.015-0.013c-0.128-0.117-0.254-0.233-0.384-0.35c-0.138-0.124-0.283-0.25-0.424-0.375
				c-0.139-0.124-0.279-0.248-0.42-0.372c-0.035-0.03-0.068-0.061-0.103-0.091c-0.095-0.083-0.185-0.165-0.281-0.248v0.918v0.022
				v0.636v0.323v0.099v0.27v0.044v0.142v0.058v0.037v0.024v3.761v0.019v0.05v0.05v0.141v0.029v0.272v0.161v0.236v0.675v0.086v0.985
				v2.229v0.175v6.08v23.865c-0.353-0.054-0.812-0.078-1.314-0.126c-0.156-0.015-0.298-0.022-0.466-0.047
				c-0.365,0-0.736-0.09-1.186-0.178c-0.193,0-0.469-0.089-0.652-0.089c-0.388-0.073-0.799-0.161-1.22-0.262
				c-1.183-0.283-2.475-0.696-3.804-1.354c-0.555-0.274-1.115-0.588-1.676-0.955c-0.273-0.175-0.553-0.337-0.832-0.497
				c-1.167-0.67-2.385-1.22-3.638-1.667c-0.982-0.35-1.984-0.635-2.996-0.876c-1.427-0.339-2.873-0.585-4.312-0.764
				c-1.395-0.174-2.782-0.289-4.137-0.374c-0.891-0.056-1.77-0.102-2.625-0.142h-1.842c-0.377,0-0.724,0.007-1.074,0.027
				c-0.247,0.014-0.493,0.03-0.759,0.07c-0.274,0-0.648,0-0.912,0.084c-0.641,0-1.287,0.097-1.935,0.184
				c-0.913,0.107-1.936,0.177-2.843,0.289c-1.559,0.175-3.12,0.447-4.597,0.636c-0.018,0-0.039,0.005-0.057,0.006
				c-0.245,0.01-0.511,0.082-0.86,0.082c-0.453,0.087-0.999,0.191-1.461,0.191c-2.023,0.267-4.039,0.627-6.155,1.096
				c-0.475,0.11-0.976,0.237-1.484,0.37c-0.546,0.142-1.101,0.291-1.652,0.436c0.616-3.129,1.374-6.244,2.362-9.286
				c0.063-0.193,0.117-0.389,0.182-0.581c0.494-1.487,1.057-2.993,1.683-4.504c1.042-2.515,2.263-5.044,3.65-7.528
				c0.872-1.563,1.812-3.106,2.813-4.618c1.033-1.561,2.133-3.084,3.296-4.557c1.093-1.384,2.241-2.722,3.442-4
				c1.037-1.104,2.113-2.162,3.227-3.167c1.286-1.16,2.621-2.247,4.004-3.25c0.653-0.474,1.316-0.932,1.99-1.367
				c1.433-0.924,2.91-1.756,4.432-2.48c0.475-0.226,0.954-0.44,1.436-0.645c1.54-0.652,3.12-1.197,4.74-1.616
				c0.007,0.002,0.013,0.004,0.02,0.006c0.263,0.077,0.531,0.161,0.797,0.243c2.434,0.753,4.977,1.752,7.449,3.177
				c0.591,0.341,1.18,0.697,1.76,1.09c0.79,0.531,1.552,1.077,2.3,1.627c0.054,0.04,0.106,0.08,0.16,0.12
				c0.725,0.537,1.429,1.079,2.115,1.625c0.447,0.356,0.889,0.712,1.319,1.07c0.322,0.268,0.639,0.535,0.952,0.803
				c0.118,0.101,0.244,0.203,0.361,0.304v-0.243v-1.788v-0.465v-7.148v-41.118c-0.432-0.003-0.871,0.002-1.313,0.01
				C199.06,147.972,196.868,148.141,194.626,148.488z M167.049,236.421c1.143-0.15,2.296-0.236,3.434-0.264
				c0.825-0.018,1.666-0.026,2.512-0.026c1.755,0,3.54,0.051,5.31,0.189c1.507,0.117,2.996,0.302,4.442,0.572
				c0.318,0.059,0.639,0.114,0.952,0.182c0.924,0.195,1.847,0.454,2.744,0.776c1.274,0.457,2.485,1.062,3.576,1.815
				c1.12,0.773,2.097,1.717,2.864,2.851c0.157,0.232,0.326,0.455,0.465,0.704c1.83,3.386,1.911,7.439,1.096,11.113
				c-0.918,4.162-3.037,8.323-6.341,11.074c-0.993,0.827-2.088,1.532-3.296,2.064c-1.955,0.855-4.469,1.311-7.058,1.483
				c-1.457,0.097-2.934,0.1-4.352,0.035c-2.822-0.128-5.399-0.533-7.044-1.065c-1.203-0.376-2.357-0.985-3.428-1.72
				c-1.126-0.773-2.148-1.691-3.025-2.667c-0.708-0.787-1.33-1.604-1.814-2.407c-1.225-2.05-2.31-4.523-2.973-7.117
				c-0.419-1.641-0.664-3.327-0.665-4.991c-0.001-2.187,0.414-4.33,1.436-6.256c0.736-1.382,1.737-2.565,3.027-3.397
				C161.284,237.649,164.135,236.803,167.049,236.421z"/>
		</g>
		<g>
			<path fill="#FF6641" d="M115.01,146.178c-1.101,8.128-2.113,12.911-4.617,15.944c-0.963,1.166-2.15,2.073-3.645,2.81
				c-3.029,1.494-7.328,2.296-13.663,3.15c14.649,2.004,18.45,3.686,20.688,14.358c0.269,1.281,0.516,2.688,0.755,4.244
				c0.162,1.05,0.321,2.161,0.481,3.349c0.151-1.113,0.301-2.162,0.452-3.154c0.219-1.433,0.443-2.742,0.684-3.943
				c1.212-6.044,2.86-9.303,6.494-11.346c1.486-0.835,3.307-1.469,5.566-2.005c2.383-0.565,5.248-1.025,8.736-1.502
				C119.342,165.711,117.404,163.764,115.01,146.178z"/>
		</g>
		<g>
			<path fill="#FF6641" d="M150.055,159.77c0.344-2.532,0.669-4.346,1.205-5.682c0.573-1.428,1.399-2.303,2.742-2.914
				c1.362-0.621,3.255-0.974,6.001-1.344c-7.985-1.089-8.863-1.971-9.947-9.954c-0.375,2.744-0.732,4.636-1.354,5.999
				c-0.613,1.343-1.487,2.17-2.912,2.744c-1.336,0.538-3.151,0.865-5.686,1.211C148.086,150.905,148.965,151.783,150.055,159.77z"/>
		</g>
		<g>
			<path fill="#FF6641" d="M124.051,205.149c-0.119-0.669-0.23-1.408-0.343-2.241c-0.113,0.833-0.224,1.572-0.342,2.241
				c-0.886,5.012-2.226,5.724-8.463,6.563c5.451,0.746,7.158,1.393,8.094,4.884c0.278,1.037,0.491,2.313,0.71,3.931
				c0.24-1.765,0.469-3.138,0.787-4.22c0.956-3.248,2.722-3.869,8.031-4.594C126.284,210.873,124.941,210.161,124.051,205.149z"/>
		</g>
		<g>
			<path fill="#FF6641" d="M146.723,357.197h0.97h0.001h6.535h5.405v-7.32h-5.405h-6.535h-0.971c-2.038,0-3.668,1.651-3.668,3.666
				C143.055,355.576,144.685,357.197,146.723,357.197z"/>
		</g>
		<g>
			<path fill="#FF6641" d="M169.604,342.927c-0.54-0.267-1.132-0.433-1.76-0.493l0,0c-0.162-0.016-0.32-0.049-0.486-0.049
				c-0.097,0-0.187,0.023-0.282,0.029c-2.684,0.151-4.818,2.373-4.818,5.088v2.376v7.32v2.39c0,2.711,2.134,4.921,4.818,5.07
				c0.095,0.005,0.185,0.029,0.282,0.029c0.167,0,0.324-0.033,0.486-0.049c0.628-0.06,1.219-0.225,1.76-0.49
				c1.694-0.833,2.868-2.556,2.868-4.559v-0.904v-1.487v-7.32v-2.376c0-1.075-0.339-2.073-0.91-2.9
				C171.068,343.886,170.39,343.315,169.604,342.927z"/>
		</g>
		<g>
			<path fill="#FF6641" d="M246.557,349.878h-13.025h-4.074h-24.309h-4h-18.705h-6.367h-0.971v7.32h0.971h6.367h18.705h4h25.723l0,0
				h4.074l0,0h11.611c2.029,0,3.668-1.621,3.668-3.652C250.225,351.529,248.587,349.878,246.557,349.878z"/>
		</g>
		<g>
			<path fill="#FF6641" d="M205.149,378.507h-4h-53.454h-0.971c-2.038,0-3.668,1.623-3.668,3.646c0,2.018,1.63,3.658,3.668,3.658
				h0.971h53.454h4h2.14h5.406v-7.304h-5.406H205.149z"/>
		</g>
		<g>
			<path fill="#FF6641" d="M178.995,328.581h3.979h5.398v-7.32h-5.398h-2.451h-4.086h-20.602h-4.337h-3.805h-0.971
				c-2.038,0-3.668,1.63-3.668,3.657c0,2.037,1.63,3.663,3.668,3.663h0.971h0.738h4.337h22.14H178.995z"/>
		</g>
		<g>
			<path fill="#FF6641" d="M196.117,336.082c0.166,0,0.323-0.034,0.485-0.049c0.62-0.059,1.206-0.22,1.741-0.481
				c1.466-0.715,2.534-2.097,2.805-3.754c0.044-0.27,0.083-0.542,0.083-0.824v-2.394v-7.32v-2.371c0-0.284-0.039-0.557-0.083-0.828
				c-0.272-1.663-1.339-3.043-2.805-3.756c-0.535-0.26-1.121-0.42-1.741-0.479c-0.162-0.015-0.319-0.049-0.485-0.049
				c-0.095,0-0.183,0.023-0.276,0.028c-2.699,0.146-4.838,2.353-4.838,5.083v2.371v7.32v2.394c0,2.716,2.138,4.933,4.838,5.08
				C195.935,336.059,196.023,336.082,196.117,336.082z"/>
		</g>
		<g>
			<path fill="#FF6641" d="M222.666,371.55c-0.536-0.261-1.121-0.423-1.741-0.482l0,0c-0.162-0.015-0.318-0.049-0.484-0.049
				c-0.105,0-0.203,0.024-0.306,0.031c-2.689,0.16-4.816,2.35-4.816,5.063v2.394v7.304v2.371c0,2.734,2.126,4.919,4.816,5.079
				c0.103,0.006,0.201,0.031,0.306,0.031c0.166,0,0.322-0.033,0.483-0.049c0.62-0.059,1.206-0.22,1.742-0.481
				c1.695-0.826,2.875-2.55,2.875-4.579v-2.371v-7.304v-2.394C225.54,374.098,224.361,372.376,222.666,371.55z"/>
		</g>
		<g>
			<path fill="#FF6641" d="M246.557,378.507h-11.046h-6.377h-0.971v7.304h0.971h6.377h11.046c2.029,0,3.668-1.64,3.668-3.658
				C250.225,380.129,248.587,378.507,246.557,378.507z"/>
		</g>
		<g>
			<path fill="#FF6641" d="M246.557,321.261h-18.554h-4.074h-12.727h-6.054h-0.307h-0.971v7.32h0.971h0.307h6.054h14.141h4.074
				h17.14c2.029,0,3.668-1.626,3.668-3.663C250.225,322.891,248.587,321.261,246.557,321.261z"/>
		</g>
		<g>
			<path fill="#FF6641" d="M317.904,130.436c-1.562-0.717-3.293-1.128-5.124-1.128h0.971c1.605,0,3.134,0.316,4.539,0.875l0,0
				c-1.406-0.559-2.935-0.875-4.539-0.875h-1.428l0,0h-32.505h-5.656h-18.667l0,0h-4.829l0,0h-14.413h-4.337h-11.301l0,0h-4.087l0,0
				h-11.379h-4h-10.227l0,0h-4.074l0,0h-11.775h-4.322h-13.536l0,0h-4.781l0,0h-20.296h-5.656H97.52l0,0h-4.167h-0.001h-0.969
				c-0.61,0-1.204,0.058-1.79,0.144c-5.645,0.825-10.041,5.474-10.471,11.239c-0.092,0.613-0.155,1.236-0.155,1.874v6.809v4.337
				v21.668v4.086v21.685v4v19.76v4.074v22.449v4.322v25.623v3.426c0,0.441,0.036,0.872,0.085,1.3c0.024,0.215,0.047,0.43,0.08,0.643
				c0.572,6.266,5.835,11.176,12.25,11.176h0.971h12.198h5.656h25.446h4.828h19.798h4.337h15.699h4.086h15.75h4h14.272h4.074H239.8
				h4.322h18.663h4.782h27.529h5.656h12.031c6.025,0,11.03-4.332,12.091-10.05c0.136-0.733,0.216-1.485,0.216-2.257v-2.426v-26.788
				v-4.337V230.66v-4.087v-21.424v-4V181.63v-4.074v-22.18v-4.322v-9.437C325.087,136.65,322.14,132.381,317.904,130.436z
				 M262.974,139.526c0.041,0.299,0.081,0.567,0.121,0.848c0.279,1.944,0.565,3.484,0.952,4.705c1.219,3.846,3.477,4.622,9.99,5.499
				c-8.866,1.204-9.857,2.189-11.058,11.024c-0.002,0.012-0.003,0.023-0.005,0.035c-0.001-0.01-0.003-0.019-0.004-0.029
				c-0.882-6.481-1.659-8.737-5.497-9.955c-1.22-0.387-2.76-0.674-4.703-0.953c-0.282-0.041-0.55-0.081-0.85-0.122
				c0.399-0.054,0.764-0.107,1.132-0.161c7.445-1.085,8.668-2.316,9.76-9.76C262.866,140.289,262.92,139.925,262.974,139.526z
				 M286.001,222.496c-0.207,0.919-0.379,2.011-0.557,3.32c-0.195-1.433-0.385-2.596-0.619-3.566
				c-0.919-3.811-2.551-4.473-8.188-5.24c0.565-0.076,1.077-0.153,1.565-0.23c5.618-0.892,6.357-2.071,7.242-8.579
				c0.961,7.074,1.741,7.853,8.817,8.809c-3.205,0.435-5.111,0.839-6.334,1.801C286.949,219.58,286.404,220.703,286.001,222.496z
				 M265.885,205.149c-0.002,0.415,0.008,0.829-0.005,1.246c-0.032,1.027-0.116,1.917-0.214,2.75
				c0.251,1.716,0.408,3.416,0.423,5.105c0.013,1.35-0.071,2.693-0.266,4.031c-0.04,0.276-0.078,0.552-0.128,0.828
				c-0.423,2.323-0.853,4.847-1.279,7.538c-0.209,1.316-0.416,2.681-0.622,4.076c-0.47,3.185-0.929,6.557-1.361,10.098
				c-0.178,1.464-0.351,2.963-0.519,4.478c-0.448,4.038-0.856,8.247-1.202,12.584c-0.139,1.738-0.268,3.495-0.386,5.271
				c-0.095,1.429-0.185,2.866-0.265,4.315c0.008-1.524,0.004-3.054-0.005-4.585c-0.012-1.912-0.039-3.827-0.089-5.745
				c-0.098-3.731-0.277-7.47-0.589-11.201c-0.076-0.86-0.157-1.687-0.239-2.515c-0.026-0.266-0.049-0.545-0.077-0.809
				c-0.178,0.151-0.369,0.268-0.565,0.375c-0.361,0.196-0.751,0.343-1.18,0.507c-0.274,0.098-0.458,0.185-0.732,0.268
				c-0.084,0.112-0.279,0.187-0.465,0.278c-0.088,0.125-0.181,0.125-0.276,0.182c-0.455,0.378-1.096,1.124-1.646,2.208
				c-0.456,0.91-0.905,2.118-1.203,3.735c-0.066,0.358-0.127,0.728-0.176,1.128c-0.14,1.238-0.393,2.453-0.716,3.636
				c-0.733,2.687-1.866,5.193-3.142,7.305c-0.617,1.031-1.493,2.189-2.583,3.312c-0.891,0.918-1.94,1.798-3.093,2.58
				c-1.205,0.816-2.525,1.523-3.962,1.991c-1.615,0.492-3.789,0.857-6.16,1.045c-1.128,0.089-2.296,0.142-3.479,0.142
				c-0.251,0-0.523-0.007-0.79-0.012c-2.958-0.06-6.828-0.472-9.948-1.806c-0.352-0.15-0.698-0.316-1.039-0.493
				c-1.779-0.926-3.395-2.22-4.808-3.798c-2.482-2.773-4.327-6.432-5.258-10.598c-0.176-0.725-0.274-1.465-0.365-2.191
				c-0.609-2.991-1.434-4.647-2.326-5.556c-0.858-0.874-1.779-1.057-2.633-1.057l-0.058-0.048v46.028h-1.309h-14.466h-4.086h-14.407
				h-4.337h-18.216h-4.828h-23.455h-5.656H92.383c-3.397,0-6.16-2.763-6.16-6.16v-3.549v-4.781v-24.091v-4.322v-21.096v-4.074
				v-18.551v-4v-20.378v-4.086v-20.354v-4.337v-10.378c0-3.397,2.763-6.16,6.16-6.16h7.089h7.141h26.018h5.656h18.172h4.781h12.03
				h4.322h10.445h4.074h9.04h1.313v12.471c0.923,0.005,1.816,0.039,2.687,0.086c2.771,0.151,5.256,0.487,7.293,0.858
				c1.604,0.292,2.936,0.603,3.908,0.856c1.174,0.306,1.831,0.528,1.831,0.528s-0.707,0.01-1.957,0.075
				c-1.034,0.053-2.445,0.146-4.149,0.3c-1.518,0.138-3.26,0.324-5.184,0.581c1.683,0.076,3.336,0.229,4.973,0.431
				c0.849,0.104,1.695,0.218,2.535,0.348c0.471-0.018,0.969-0.016,1.479-0.004c1.853,0.043,3.954,0.284,6.236,0.717
				c1.271,0.241,2.593,0.536,3.963,0.893c2.154,0.561,4.417,1.268,6.74,2.107c1.26,0.455,2.537,0.95,3.825,1.484
				c0.168,0.07,0.335,0.135,0.503,0.206c2.094,0.887,4.05,1.93,5.871,3.06c1.181,0.733,2.303,1.501,3.365,2.291
				c2.447,1.821,4.573,3.745,6.356,5.56c1.028,1.047,1.943,2.056,2.74,2.988c2.564,2.998,3.913,5.187,3.913,5.187
				s-2.088-1.669-5.624-4.067c-0.514-0.349-1.059-0.713-1.632-1.089c0.415,0.447,0.814,0.905,1.213,1.363
				c1.638,1.88,3.138,3.852,4.486,5.908c0.742,1.132,1.433,2.29,2.081,3.47c1.314,2.392,2.437,4.873,3.336,7.437
				c0.443,1.264,0.825,2.55,1.16,3.85c0.655,2.539,1.107,5.141,1.327,7.797C265.845,202.47,265.89,203.805,265.885,205.149z
				 M295.524,167.482c2.698,5.939,7.657,7.359,19.594,8.981c-10.069,1.372-15.169,2.606-18.14,6.523
				c-0.921,1.215-1.639,2.69-2.234,4.506c-0.947,2.89-1.59,6.643-2.266,11.61c-0.613-4.505-1.198-8.013-2.008-10.784
				c-0.425-1.453-0.913-2.702-1.498-3.785c-2.554-4.723-6.994-6.268-16.351-7.672c-0.885-0.133-1.805-0.264-2.78-0.397
				c2.235-0.304,4.223-0.601,6-0.921c5.538-0.999,8.998-2.234,11.321-4.636c1.355-1.401,2.324-3.204,3.09-5.588
				c0.924-2.873,1.559-6.587,2.226-11.484c0.546,4.017,1.07,7.24,1.751,9.856C294.603,165.128,295.025,166.383,295.524,167.482z"/>
		</g>
	</g>
</g>
</svg>
