<?xml version="1.0" encoding="utf-8"?>
<!-- Generator: Adobe Illustrator 24.0.2, SVG Export Plug-In . SVG Version: 6.00 Build 0)  -->
<svg version="1.1" id="Layout" xmlns="http://www.w3.org/2000/svg" xmlns:xlink="http://www.w3.org/1999/xlink" x="0px" y="0px"
	 viewBox="0 0 333.37 105.354" enable-background="new 0 0 333.37 105.354" xml:space="preserve">
<g>
	<path fill="#010202" d="M147.085,60.306c-1.878,0.977-4.032,4.005-6.573,9.121c-3.749,7.458-5.297,10.365-5.858,11.362
		c-0.507-0.943-0.942-2.245-1.3-3.834c-0.127-0.738-0.35-2.346-0.658-4.755c-0.685-5.375-0.812-6.229-0.864-6.382
		c-0.697-3.337-1.756-5.183-3.195-5.663c-0.401-0.135-0.841-0.205-1.312-0.205c-3.034,0-6.605,3.439-10.95,10.539
		c-1.033,1.759-1.949,3.389-2.784,4.825c0.565-7.703,1.477-14.321,2.714-19.71v-0.392c0-1.302-0.714-2.021-2.014-2.021
		c-1.023,0-1.682,0.548-1.896,1.575c-0.648,2.891-1.29,7.171-1.97,12.709c-0.139,1.063-0.266,2.055-0.37,3.029
		c-1.461,1.797-4.193,5.919-4.234,5.954c-1.555,2.398-2.981,3.575-4.219,3.575h-0.196c-1.709,0-2.589-2.104-2.589-6.226
		c0-1.676,0.293-4.501,0.855-8.418c0.505-3.506,0.544-4.121,0.544-4.261v-0.393c0-1.724-0.714-2.105-1.346-2.105
		c-0.515,0-1.069,0.292-1.657,0.908c-0.594,0.581-0.925,1.162-0.994,1.73c-0.253,1.847-0.527,3.763-0.846,5.627
		c-0.383,2.804-0.562,5.201-0.562,7.101c0,6.688,2.11,10.06,6.312,10.06h0.571c2.092,0,3.988-0.992,5.688-3.048
		c0.659-0.886,1.317-1.812,1.975-2.733c-0.035,0.921-0.061,1.758-0.061,2.462c0,1.367,0.314,2.293,0.963,2.785
		c0.363,0.31,0.845,0.48,1.421,0.48c0.518,0,1.05-0.288,1.587-0.819c0.3-0.305,1.356-1.795,6.748-10.915
		c3.775-6.433,5.876-8.127,7.01-8.366c0.497,1.148,0.88,2.548,1.095,4.209c0.195,1.505,0.375,3.03,0.57,4.619
		c0.571,3.558,1.008,5.781,1.317,6.776c1.052,3.969,2.485,5.886,4.443,5.886c0.41,0,0.854-0.123,1.338-0.329
		c1.461-0.649,3.496-3.675,6.243-9.257c2.563-5.233,4.29-8.67,5.209-10.247c0.584,5.768,0.701,6.742,0.745,6.864
		c1.033,7.528,3.09,11.169,6.313,11.169c1.904,0,3.928-1.365,6.155-4.174c0.641,1.934,1.983,3.371,4.006,4.244
		c0.632,0.275,1.325,0.394,2.11,0.394c3.322,0,7.532-3.49,12.856-10.728c1.46,3.645,2.664,6.213,3.561,7.579
		c1.491,2.414,3.182,3.628,5.044,3.628c2.188,0,4.69-1.542,7.646-4.654v25.474h22.999v-4.294h-17.935V58.254h-5.064v15.449
		c-2.663,3.234-6.331,6.706-7.507,6.706h-0.113c-0.758,0-2.031-1.044-3.85-6.073c-1.63-4.429-3.042-6.503-4.459-6.503h-0.23
		c-0.494,0.072-1.488,0.669-4.801,5.018c-2.697,3.453-4.686,5.61-5.91,6.395c-0.672,0.464-1.374,0.705-2.058,0.705
		c-1.861,0-2.75-1.202-2.75-3.611v-0.123c0-2.513,1.254-5.693,3.748-9.357c2.803-3.969,5.622-5.968,8.414-5.968
		c1.459,0,2.837,0.598,4.11,1.812c0.484,0.358,0.911,0.529,1.304,0.529c1.29,0,2.01-0.752,2.01-2.105
		c0-1.144-1.042-2.206-3.187-3.197c-1.809-0.838-3.279-1.248-4.45-1.248c-3.714,0-7.403,2.426-10.938,7.252
		c-1.93,2.567-3.265,5.048-4.084,7.41c-0.071,0.083-0.136,0.153-0.17,0.241c-0.427,0.921-1.264,2.324-2.511,4.19
		c-2.101,3.01-3.221,3.73-3.757,3.795h-0.105c-0.376,0-1.399-0.733-2.388-7.593c-0.188-2.122-0.337-4.225-0.472-6.297
		c-0.453-3.492-1.298-5.337-2.589-5.627c-0.126-0.033-0.296-0.051-0.527-0.103c-0.222,0-0.444,0.052-0.668,0.103"/>
	<path fill="#010202" d="M234.106,58.254l-12.886,47.1h4.56l3.893-14.441h15.467l3.95,14.441h4.891l-13.134-47.1H234.106z
		 M230.972,86.622l6.373-24.054h0.135l6.357,24.054H230.972z"/>
	<polygon fill="#010202" points="248.644,62.961 259.882,62.961 259.882,105.354 264.93,105.354 264.93,62.961 276.168,62.961 
		276.168,58.254 248.644,58.254 	"/>
	<polygon fill="#010202" points="278.805,62.961 290.056,62.961 290.056,105.354 295.109,105.354 295.109,62.961 306.351,62.961 
		306.351,58.254 278.805,58.254 	"/>
	<polygon fill="#010202" points="333.37,62.567 333.37,58.254 309.735,58.254 309.735,105.354 333.37,105.354 333.37,101.06 
		314.804,101.06 314.804,82.719 333.37,82.719 333.37,78.409 314.804,78.409 314.804,62.567 	"/>
	<path fill="#010202" d="M83,25.87l0.083-1.524c0-7.458-3.509-13.531-10.428-17.999C66.182,2.121,57.99,0,48.292,0
		c-9.617,0-19.595,2.326-29.646,6.964C6.268,12.61,0,19.814,0,28.403c0,0.885,0.061,1.725,0.191,2.515
		c0.45,2.615,2.559,5.216,6.217,7.732c3.661,2.479,7.071,3.745,10.122,3.745h0.099c1.3,0,2.006-0.684,2.006-1.969
		c0-1.197-0.654-1.864-1.906-1.966c-2.354-0.121-5.013-1.146-7.881-3.081c-2.86-1.899-4.417-3.624-4.647-5.078
		c-0.118-0.79-0.187-1.388-0.187-1.729c0-5.803,4.363-11.257,12.982-16.238c8.36-4.906,17.714-7.68,27.807-8.314
		c1.033-0.069,2.224-0.086,3.545-0.086c8.892,0,16.329,1.917,22.105,5.698c5.71,3.782,8.632,8.727,8.632,14.714v1.212
		c0,6.76-2.851,13.039-8.48,18.649c-5.601,5.61-12.376,8.983-20.096,10.043c-1.478,0.169-1.782,1.148-1.782,1.916
		c0,1.337,0.706,2.087,2.004,2.087h0.293h0.039c8.456-1.196,15.845-4.943,21.975-11.174C79.155,40.854,82.504,33.72,83,25.87z"/>
	<path fill="#010202" d="M45.675,11.172c-1.354,0-2.117,0.703-2.117,1.999c0,0.464,0.187,0.909,0.549,1.337
		c1.273,1.509,1.886,5.493,1.886,11.89c0,6.519-0.592,15.055-1.752,25.302c-0.776,5.698-1.504,11.292-2.171,16.719
		c-1.23,9.785-1.869,16.064-1.869,18.714c0,0.89,0.061,1.165,0.095,1.266c0.232,0.978,0.899,1.488,1.914,1.488
		c1.347,0,2.101-0.685,2.101-1.964c-0.036-0.24-0.061-0.411-0.096-0.532v-0.464c0-1.589,0.367-5.37,1.12-11.203
		c0.937-7.135,1.879-14.235,2.799-21.317c1.255-11.02,1.888-20.036,1.888-26.778C50.023,16.544,48.606,11.172,45.675,11.172z"/>
	<path fill="#010202" d="M89.686,54.801h-0.64c-2.955,0-6.251,1.864-9.804,5.542c-2.812,2.942-5.066,6.106-6.669,9.373
		c-2.128-4.789-5.581-7.235-10.236-7.235c-0.829,0-1.713,0.1-2.637,0.276c-1.356,0.269-1.622,1.127-1.622,1.795
		c0,1.213,0.667,1.879,1.915,1.879h2.406c4.691,0,7.193,3.681,7.663,11.275v2.262c0,0.905,0.04,1.677,0.118,2.306
		c0.17,1.646,1.151,1.968,1.958,1.968c1.263,0,1.962-0.733,1.962-2.086v-4.174c0.666-4.309,2.803-8.676,6.32-12.985
		c3.366-4.105,6.235-6.21,8.505-6.263c0.567,0,0.995,0.154,1.3,0.464c0.152,1.178,0.898,1.795,2.093,1.795
		c1.172,0,1.826-0.616,1.922-1.847v-0.376c0-0.907-0.47-1.764-1.381-2.585C91.968,55.417,90.943,54.935,89.686,54.801z"/>
	<path fill="#010202" d="M99.413,50.608c1.548,0.236,3.051-1.2,3.374-3.252c0.31-2.035-0.693-3.864-2.219-4.104
		c-1.539-0.259-3.034,1.195-3.356,3.229C96.876,48.505,97.869,50.369,99.413,50.608z"/>
</g>
</svg>
